<?xml version="1.0" standalone="no"?>
<!DOCTYPE svg PUBLIC "-//W3C//DTD SVG 20010904//EN"
 "http://www.w3.org/TR/2001/REC-SVG-20010904/DTD/svg10.dtd">
<svg version="1.0" xmlns="http://www.w3.org/2000/svg"
 width="666.000000pt" height="666.000000pt" viewBox="0 0 666.000000 666.000000"
 preserveAspectRatio="xMidYMid meet">
<metadata>
Created by potrace 1.14, written by Peter Selinger 2001-2017
</metadata>
<g transform="translate(0.000000,666.000000) scale(0.100000,-0.100000)"
fill="#000000" stroke="none">
<path d="M3953 5190 c-7 -11 -13 -26 -13 -33 0 -41 -169 -283 -196 -281 -8 1
-11 -2 -9 -7 7 -11 -35 -59 -52 -59 -8 0 -11 -5 -7 -12 5 -8 2 -9 -9 -5 -9 3
-19 1 -23 -5 -5 -7 -2 -8 7 -4 8 4 -4 -8 -25 -27 -22 -19 -45 -33 -51 -30 -7
2 -19 -2 -27 -9 -66 -62 -366 -183 -400 -161 -7 4 -8 1 -3 -6 5 -9 -1 -12 -21
-11 -16 1 -31 1 -34 0 -36 -13 -245 -20 -300 -10 -21 4 -46 3 -55 -3 -12 -6
-16 -6 -11 1 3 5 -1 12 -9 16 -8 3 -17 0 -21 -6 -5 -7 -2 -8 6 -3 9 6 11 4 6
-4 -6 -9 -13 -8 -29 6 -11 10 -17 12 -13 6 4 -7 2 -13 -3 -13 -6 0 -11 4 -11
9 0 5 -7 12 -16 15 -9 3 -12 2 -9 -5 13 -21 -132 26 -252 81 -132 62 -222 123
-341 235 l-65 60 44 -63 c63 -91 75 -109 110 -182 48 -100 70 -162 65 -177 -4
-9 -1 -11 6 -7 7 5 9 0 6 -14 -4 -12 -2 -22 4 -22 5 0 7 -4 4 -8 -3 -5 1 -35
9 -68 7 -32 16 -84 20 -114 3 -30 8 -75 11 -100 3 -25 6 -49 6 -55 4 -42 -17
-187 -38 -270 -27 -101 -121 -312 -154 -345 -3 -3 -18 -23 -35 -45 -50 -68
-117 -135 -128 -128 -5 3 -7 1 -4 -4 8 -12 -101 -109 -110 -99 -4 3 0 6 7 6 7
0 11 3 8 6 -6 6 -88 -44 -100 -61 -4 -5 -8 -6 -8 -2 0 5 -12 -1 -26 -12 -15
-11 -30 -18 -35 -15 -5 3 -9 1 -9 -4 0 -5 -10 -13 -23 -17 -12 -4 -24 -8 -27
-10 -28 -12 -43 -17 -92 -34 -32 -11 -58 -18 -58 -16 0 3 -9 -3 -20 -12 -11
-10 -20 -20 -20 -23 0 -3 48 -5 106 -4 118 1 245 -16 349 -48 39 -12 75 -22
81 -24 6 -1 51 -21 100 -44 237 -113 447 -307 571 -526 48 -85 105 -223 97
-235 -3 -5 0 -9 6 -9 6 0 10 -8 9 -18 -2 -9 3 -39 9 -67 35 -144 49 -380 27
-480 -3 -16 -10 -47 -15 -67 -4 -21 -7 -38 -5 -38 2 0 22 37 45 82 127 249
355 455 604 545 46 16 42 15 156 44 129 33 387 33 532 0 78 -18 193 -58 265
-92 113 -55 156 -84 346 -239 33 -26 31 -21 -17 50 -33 48 -126 242 -126 263
0 7 -7 23 -16 35 -8 12 -12 22 -8 22 3 0 1 6 -5 13 -6 8 -8 17 -4 20 3 4 1 7
-5 7 -6 0 -9 9 -7 20 2 11 0 20 -4 20 -26 0 -46 315 -29 450 38 288 217 582
459 753 111 78 335 177 401 177 25 0 29 15 5 17 -28 3 -202 12 -283 16 -34 1
-59 6 -56 11 3 5 -8 6 -26 3 -18 -4 -32 -3 -32 2 0 5 -9 7 -20 4 -12 -3 -20 0
-20 6 0 7 -4 10 -9 7 -13 -8 -134 35 -219 78 -296 149 -492 365 -612 676 -12
30 -28 66 -37 79 -8 13 -10 20 -4 17 7 -5 9 -1 5 8 -3 9 -9 16 -13 16 -4 0 -7
8 -8 18 -1 9 -4 28 -7 42 -37 178 -40 298 -12 490 1 8 6 23 10 32 4 9 6 24 4
33 -2 13 -5 12 -15 -5z m-1218 -1090 c-3 -5 -12 -10 -18 -10 -7 0 -6 4 3 10
19 12 23 12 15 0z m541 -2 c3 -4 -1 -5 -10 -4 -8 1 -18 5 -22 8 -3 4 1 5 10 4
8 -1 18 -5 22 -8z m405 -5 c13 -16 12 -17 -3 -4 -17 13 -22 21 -14 21 2 0 10
-8 17 -17z m-676 -12 c3 -5 2 -12 -3 -15 -5 -3 -9 1 -9 9 0 17 3 19 12 6z
m-345 -15 c0 -2 -8 -10 -17 -17 -16 -13 -17 -12 -4 4 13 16 21 21 21 13z m75
-46 c3 -6 -1 -7 -9 -4 -18 7 -21 14 -7 14 6 0 13 -4 16 -10z m375 -36 c0 -8
-19 -13 -24 -6 -3 5 1 9 9 9 8 0 15 -2 15 -3z m-80 -80 c0 -8 -19 -13 -24 -6
-3 5 1 9 9 9 8 0 15 -2 15 -3z m261 -41 c13 -16 12 -17 -3 -4 -17 13 -22 21
-14 21 2 0 10 -8 17 -17z m70 -10 c13 -16 12 -17 -3 -4 -10 7 -18 15 -18 17 0
8 8 3 21 -13z m-194 -18 c0 -8 -4 -12 -9 -9 -5 3 -6 10 -3 15 9 13 12 11 12
-6z m-482 -4 c3 -5 2 -12 -3 -15 -5 -3 -9 1 -9 9 0 17 3 19 12 6z m1285 -11
c0 -5 -5 -10 -11 -10 -5 0 -7 5 -4 10 3 6 8 10 11 10 2 0 4 -4 4 -10z m-845
-9 c3 -5 2 -12 -3 -15 -5 -3 -9 1 -9 9 0 17 3 19 12 6z m890 -31 c-3 -5 -12
-10 -18 -10 -7 0 -6 4 3 10 19 12 23 12 15 0z m-1088 -25 c0 -8 -4 -12 -9 -9
-5 3 -6 10 -3 15 9 13 12 11 12 -6z m120 0 c0 -8 -4 -12 -9 -9 -5 3 -6 10 -3
15 9 13 12 11 12 -6z m-400 -30 c0 -8 -4 -12 -9 -9 -5 3 -6 10 -3 15 9 13 12
11 12 -6z m358 6 c3 -5 2 -12 -3 -15 -5 -3 -9 1 -9 9 0 17 3 19 12 6z m681 -6
c-1 -8 -5 -17 -8 -21 -5 -4 -4 16 1 34 3 9 9 -1 7 -13z m239 -25 c3 -5 1 -10
-4 -10 -6 0 -11 5 -11 10 0 6 2 10 4 10 3 0 8 -4 11 -10z m85 -2 c0 -4 -4 -8
-9 -8 -6 0 -12 4 -15 8 -3 5 1 9 9 9 8 0 15 -4 15 -9z m-843 -23 c0 -8 -4 -12
-9 -9 -5 3 -6 10 -3 15 9 13 12 11 12 -6z m1038 -14 c3 -5 2 -12 -3 -15 -5 -3
-9 1 -9 9 0 17 3 19 12 6z m-1080 -10 c3 -5 2 -12 -3 -15 -5 -3 -9 1 -9 9 0
17 3 19 12 6z m799 -29 c3 -5 -1 -9 -9 -9 -8 0 -12 4 -9 9 3 4 7 8 9 8 2 0 6
-4 9 -8z m81 -1 c-9 -8 -36 -10 -30 -2 2 4 11 8 20 8 8 0 13 -3 10 -6z m85 -1
c0 -5 -5 -10 -11 -10 -5 0 -7 5 -4 10 3 6 8 10 11 10 2 0 4 -4 4 -10z m-923
-25 c0 -8 -4 -12 -9 -9 -5 3 -6 10 -3 15 9 13 12 11 12 -6z m200 -30 c0 -8 -4
-12 -9 -9 -5 3 -6 10 -3 15 9 13 12 11 12 -6z m-722 -24 c3 -5 2 -12 -3 -15
-5 -3 -9 1 -9 9 0 17 3 19 12 6z m1991 -10 c10 8 9 2 -2 -19 -10 -20 -20 -29
-29 -25 -8 3 -15 7 -15 10 0 3 7 3 15 -1 18 -7 19 -2 4 27 -9 18 -9 20 2 10 9
-9 16 -10 25 -2z m-96 -26 c-15 -18 1 -20 19 -2 11 10 13 10 7 0 -4 -7 -3 -13
3 -13 5 0 9 -9 8 -19 0 -11 -4 -18 -8 -15 -4 2 -11 -1 -14 -7 -4 -5 -14 -8
-22 -4 -9 3 -24 -2 -34 -11 -25 -23 -24 -13 2 17 17 19 22 21 29 9 8 -13 11
-13 26 1 11 11 12 19 5 23 -6 4 -11 2 -11 -5 0 -9 -4 -8 -15 1 -11 10 -19 8
-39 -8 -14 -11 -22 -22 -18 -26 3 -4 -2 -4 -12 0 -18 7 -18 7 0 17 28 16 44
34 36 41 -3 4 1 4 10 1 9 -4 19 -2 23 4 3 6 9 11 12 11 3 0 0 -7 -7 -15z m-86
-34 c-10 -10 -21 -16 -24 -14 -3 3 4 11 14 19 28 20 33 17 10 -5z m-1229 -19
c-3 -3 -11 0 -18 7 -9 10 -8 11 6 5 10 -3 15 -9 12 -12z m60 8 c3 -5 1 -10 -4
-10 -6 0 -11 5 -11 10 0 6 2 10 4 10 3 0 8 -4 11 -10z m495 6 c0 -2 -8 -10
-17 -17 -16 -13 -17 -12 -4 4 13 16 21 21 21 13z m-1339 -33 c13 -16 12 -17
-3 -4 -10 7 -18 15 -18 17 0 8 8 3 21 -13z m640 -6 c-10 -9 -11 -8 -5 6 3 10
9 15 12 12 3 -3 0 -11 -7 -18z m400 0 c-10 -9 -11 -8 -5 6 3 10 9 15 12 12 3
-3 0 -11 -7 -18z m907 -12 c-3 -3 -9 2 -12 12 -6 14 -5 15 5 6 7 -7 10 -15 7
-18z m42 -2 c0 -9 3 -14 6 -10 4 3 15 -4 25 -16 25 -30 24 -6 -2 27 -15 19
-16 24 -5 20 8 -3 18 -15 22 -26 6 -20 6 -20 21 1 17 25 33 27 33 5 0 -11 -5
-14 -16 -10 -12 5 -15 2 -10 -9 3 -10 2 -13 -5 -10 -6 4 -10 1 -8 -6 4 -34 -3
-35 -34 -6 -32 30 -58 75 -37 62 6 -3 10 -13 10 -22z m-1676 9 c3 -5 -1 -9 -9
-9 -8 0 -12 4 -9 9 3 4 7 8 9 8 2 0 6 -4 9 -8z m271 -10 c-3 -3 -11 0 -18 7
-9 10 -8 11 6 5 10 -3 15 -9 12 -12z m400 0 c-3 -3 -11 0 -18 7 -9 10 -8 11 6
5 10 -3 15 -9 12 -12z m-262 -7 c-3 -9 -8 -14 -10 -11 -3 3 -2 9 2 15 9 16 15
13 8 -4z m1181 -14 c-2 -3 -12 3 -22 13 -16 17 -16 18 5 5 12 -7 20 -15 17
-18z m-574 5 c0 -2 -8 -10 -17 -17 -16 -13 -17 -12 -4 4 13 16 21 21 21 13z
m-535 -16 c3 -6 -1 -7 -9 -4 -18 7 -21 14 -7 14 6 0 13 -4 16 -10z m59 2 c2
-4 -4 -8 -14 -8 -10 0 -16 4 -14 8 3 4 9 8 14 8 5 0 11 -4 14 -8z m56 4 c0 -2
-7 -7 -16 -10 -8 -3 -12 -2 -9 4 6 10 25 14 25 6z m590 0 c0 -2 -8 -10 -17
-17 -16 -13 -17 -12 -4 4 13 16 21 21 21 13z m490 -7 c12 -8 9 -9 -10 -4 -24
6 -24 5 -6 -9 11 -9 16 -16 10 -16 -5 0 -1 -5 9 -11 22 -13 38 -2 17 11 -10 6
-11 10 -3 10 7 0 17 -10 24 -21 6 -12 7 -19 2 -16 -5 3 -20 -15 -32 -41 -13
-25 -31 -52 -42 -60 -21 -14 -27 -38 -6 -26 9 6 9 5 0 -8 -7 -8 -9 -19 -5 -23
4 -5 -11 4 -33 20 -24 17 -41 37 -42 49 -1 20 -1 20 9 -1 6 -13 15 -23 20 -23
12 0 10 7 -8 38 l-16 27 21 -24 c13 -15 19 -31 16 -42 -9 -28 9 -23 25 6 7 14
18 25 24 25 6 0 0 7 -12 16 -12 8 -26 13 -31 9 -5 -3 -13 0 -17 6 -4 7 -3 9 4
5 6 -3 13 -2 17 3 3 6 15 1 26 -10 11 -11 24 -18 27 -14 4 4 -2 13 -12 20 -11
8 -20 28 -21 47 -1 21 -6 32 -14 30 -7 -1 -9 2 -6 8 5 8 13 6 26 -6 10 -9 19
-12 19 -6 0 6 -5 14 -10 17 -11 7 -4 25 8 25 4 0 14 -5 22 -11z m-1380 -19 c0
-5 -5 -10 -11 -10 -5 0 -7 5 -4 10 3 6 8 10 11 10 2 0 4 -4 4 -10z m-640 -16
c0 -8 -19 -13 -24 -6 -3 5 1 9 9 9 8 0 15 -2 15 -3z m585 -4 c3 -6 -1 -7 -9
-4 -18 7 -21 14 -7 14 6 0 13 -4 16 -10z m190 -8 c-3 -3 -11 0 -18 7 -9 10 -8
11 6 5 10 -3 15 -9 12 -12z m80 0 c-3 -3 -11 0 -18 7 -9 10 -8 11 6 5 10 -3
15 -9 12 -12z m50 8 c-3 -5 -12 -10 -18 -10 -7 0 -6 4 3 10 19 12 23 12 15 0z
m80 0 c3 -6 -1 -7 -9 -4 -18 7 -21 14 -7 14 6 0 13 -4 16 -10z m975 -24 c0 -6
-5 -3 -11 7 -6 9 -15 14 -21 11 -7 -4 -8 -2 -4 5 9 14 36 -3 36 -23z m-1447 9
c-3 -9 -8 -14 -10 -11 -3 3 -2 9 2 15 9 16 15 13 8 -4z m604 -20 c0 -8 -4 -15
-9 -15 -10 0 -11 14 -1 23 9 10 10 9 10 -8z m403 11 c0 -2 -8 -10 -17 -17 -16
-13 -17 -12 -4 4 13 16 21 21 21 13z m-460 -16 c0 -5 -4 -10 -10 -10 -5 0 -10
5 -10 10 0 6 5 10 10 10 6 0 10 -4 10 -10z m126 -2 c3 -4 -1 -5 -10 -4 -8 1
-18 5 -22 8 -3 4 1 5 10 4 8 -1 18 -5 22 -8z m759 2 c3 -5 2 -10 -4 -10 -5 0
-13 5 -16 10 -3 6 -2 10 4 10 5 0 13 -4 16 -10z m-1394 -33 c-10 -9 -11 -8 -5
6 3 10 9 15 12 12 3 -3 0 -11 -7 -18z m114 -7 c3 -6 -1 -7 -9 -4 -18 7 -21 14
-7 14 6 0 13 -4 16 -10z m195 6 c0 -2 -7 -7 -16 -10 -8 -3 -12 -2 -9 4 6 10
25 14 25 6z m45 -6 c3 -6 -1 -7 -9 -4 -18 7 -21 14 -7 14 6 0 13 -4 16 -10z
m80 0 c-3 -5 -12 -10 -18 -10 -7 0 -6 4 3 10 19 12 23 12 15 0z m-472 -15 c-3
-9 -8 -14 -10 -11 -3 3 -2 9 2 15 9 16 15 13 8 -4z m1343 -21 c1 -9 0 -13 -4
-10 -3 4 -7 14 -8 22 -1 9 0 13 4 10 3 -4 7 -14 8 -22z m114 16 c0 -5 -2 -10
-4 -10 -3 0 -8 5 -11 10 -3 6 -1 10 4 10 6 0 11 -4 11 -10z m-1416 -30 c-6 -6
-10 -3 -10 10 0 13 4 16 10 10 7 -7 7 -13 0 -20z m80 4 c3 -8 2 -12 -4 -9 -6
3 -10 10 -10 16 0 14 7 11 14 -7z m246 2 c-7 -7 -13 -7 -20 0 -6 6 -3 10 10
10 13 0 16 -4 10 -10z m55 -4 c-3 -3 -11 0 -18 7 -9 10 -8 11 6 5 10 -3 15 -9
12 -12z m435 14 c0 -2 -8 -10 -17 -17 -16 -13 -17 -12 -4 4 13 16 21 21 21 13z
m-856 -32 c3 -8 2 -12 -4 -9 -6 3 -10 10 -10 16 0 14 7 11 14 -7z m157 -7
c-10 -9 -11 -8 -5 6 3 10 9 15 12 12 3 -3 0 -11 -7 -18z m1251 -31 c-11 -6
-22 -15 -24 -21 -2 -5 -9 -9 -15 -9 -15 2 -17 -12 -3 -21 5 -3 21 6 36 20 29
29 42 35 43 20 1 -5 -4 -10 -11 -10 -6 0 -13 -6 -16 -14 -3 -8 0 -11 6 -7 6 3
9 -1 8 -11 -2 -10 -7 -16 -12 -14 -5 1 -8 7 -6 12 2 11 -1 11 -23 2 -15 -5
-15 -8 6 -24 26 -19 22 -31 -12 -33 -12 0 -24 -6 -26 -12 -2 -7 6 -10 20 -9
14 2 24 -2 24 -11 0 -8 -6 -10 -16 -5 -9 5 -22 6 -30 3 -10 -3 -12 1 -8 17 3
14 -1 24 -11 31 -10 5 -12 10 -5 10 6 0 15 -5 19 -11 4 -8 9 -7 15 2 12 19 11
32 -1 24 -6 -4 -17 -1 -25 5 -11 10 -15 10 -15 1 0 -7 -5 -9 -11 -5 -8 4 -7 9
2 15 8 4 18 4 23 -1 16 -16 30 -11 16 5 -14 17 -5 36 14 29 8 -3 12 5 12 26 0
16 -3 30 -8 30 -4 0 -8 5 -8 11 0 6 14 0 31 -12 30 -21 31 -22 11 -33z m-902
30 c0 -2 -7 -7 -16 -10 -8 -3 -12 -2 -9 4 6 10 25 14 25 6z m859 -30 c-3 -3
-11 5 -18 17 -13 21 -12 21 5 5 10 -10 16 -20 13 -22z m-1321 -1 c-3 -3 -9 2
-12 12 -6 14 -5 15 5 6 7 -7 10 -15 7 -18z m75 10 c-3 -9 -8 -14 -10 -11 -3 3
-2 9 2 15 9 16 15 13 8 -4z m120 0 c-3 -9 -8 -14 -10 -11 -3 3 -2 9 2 15 9 16
15 13 8 -4z m325 -10 c-3 -3 -9 2 -12 12 -6 14 -5 15 5 6 7 -7 10 -15 7 -18z
m-1328 -15 c15 8 20 8 16 1 -10 -15 7 -14 23 2 11 10 11 8 0 -10 -9 -16 -17
-19 -25 -12 -9 7 -19 7 -34 -1 -12 -6 -26 -9 -33 -6 -7 2 -4 5 5 5 12 1 16 7
12 19 -5 13 -4 14 4 3 8 -10 14 -11 32 -1z m945 0 c3 -5 1 -10 -4 -10 -6 0
-11 5 -11 10 0 6 2 10 4 10 3 0 8 -4 11 -10z m185 6 c0 -2 -7 -7 -16 -10 -8
-3 -12 -2 -9 4 6 10 25 14 25 6z m144 -4 c3 -5 -1 -9 -9 -9 -8 0 -12 4 -9 9 3
4 7 8 9 8 2 0 6 -4 9 -8z m-1357 -8 c-8 -9 -47 -13 -51 -6 -2 4 9 8 25 8 17 1
28 0 26 -2z m158 -21 c6 -17 7 -17 21 1 15 21 18 18 8 -8 -8 -22 -27 -20 -42
4 -7 11 -8 20 -3 20 5 0 12 -8 16 -17z m-60 -23 c0 -7 -6 -14 -13 -16 -7 -1
-8 0 -2 3 5 2 10 9 10 14 0 6 -4 8 -9 4 -5 -3 -12 -1 -15 4 -4 5 2 8 11 7 10
-2 18 -9 18 -16z m32 13 c-4 -3 0 -11 8 -17 11 -8 12 -15 4 -26 -9 -12 -10
-12 -5 4 5 13 2 17 -8 13 -9 -4 -13 0 -11 11 5 23 4 22 12 22 3 0 3 -3 0 -7z
m80 -12 c2 -21 -23 -48 -34 -37 -3 3 -1 6 6 6 7 0 9 5 5 12 -5 7 -3 8 6 3 10
-6 12 -4 7 7 -3 9 -3 19 0 22 9 8 9 8 10 -13z m578 1 c-3 -3 -11 0 -18 7 -9
10 -8 11 6 5 10 -3 15 -9 12 -12z m50 8 c-3 -5 -12 -10 -18 -10 -7 0 -6 4 3
10 19 12 23 12 15 0z m270 -8 c-3 -3 -11 0 -18 7 -9 10 -8 11 6 5 10 -3 15 -9
12 -12z m-850 -14 c-28 -15 -28 -15 -20 -28 5 -8 11 -5 21 7 11 13 14 14 12 3
-6 -30 -33 -39 -42 -13 -7 17 17 43 38 43 6 0 2 -6 -9 -12z m50 -18 c3 -5 1
-10 -4 -10 -6 0 -11 5 -11 10 0 6 2 10 4 10 3 0 8 -4 11 -10z m-130 -28 c-3
-3 -11 0 -18 7 -9 10 -8 11 6 5 10 -3 15 -9 12 -12z m2005 10 c0 -4 -9 -8 -19
-8 -11 0 -17 4 -15 8 3 4 12 8 20 8 8 0 14 -4 14 -8z m-1895 -14 c-11 -6 -23
-16 -27 -22 -5 -8 -8 -7 -8 1 0 12 28 32 45 32 6 0 1 -5 -10 -11z m28 -11
c-17 -23 -43 -32 -43 -15 0 4 6 8 14 8 7 0 19 7 26 15 20 24 23 17 3 -8z m-83
-12 c0 -2 -5 -7 -12 -11 -7 -4 -8 -3 -4 4 7 11 -6 17 -27 13 -5 -1 -6 3 -2 9
6 9 45 -3 45 -15z m640 21 c0 -2 -7 -7 -16 -10 -8 -3 -12 -2 -9 4 6 10 25 14
25 6z m205 -6 c3 -6 -1 -7 -9 -4 -18 7 -21 14 -7 14 6 0 13 -4 16 -10z m-147
-25 c-3 -3 -9 2 -12 12 -6 14 -5 15 5 6 7 -7 10 -15 7 -18z m75 10 c-3 -9 -8
-14 -10 -11 -3 3 -2 9 2 15 9 16 15 13 8 -4z m-677 -11 c-9 -8 -16 -20 -16
-26 0 -6 -3 -9 -6 -6 -8 9 14 48 27 48 6 0 3 -7 -5 -16z m1910 -7 c5 -4 0 -5
-11 -1 -20 7 -20 7 -1 -15 16 -17 17 -21 4 -16 -18 7 -19 -9 -3 -35 5 -9 0 -8
-13 4 -17 15 -19 22 -11 33 16 19 8 24 -14 9 -16 -13 -16 -15 4 -40 15 -19 16
-24 5 -20 -9 3 -16 1 -16 -5 0 -6 7 -11 16 -11 10 0 4 -10 -18 -30 -29 -27
-33 -28 -42 -13 -6 11 -5 18 2 21 7 2 9 9 6 14 -4 7 -2 8 4 4 6 -3 16 2 21 13
14 26 14 28 -4 28 -10 0 -14 -6 -10 -16 3 -8 3 -12 -2 -8 -4 5 -8 23 -9 40 -1
18 1 26 3 19 3 -6 9 -10 14 -6 5 3 5 12 0 23 -9 15 -5 17 29 17 21 -1 42 -5
46 -9z m-1898 -17 c-7 -10 -14 -18 -15 -16 -6 6 9 36 18 36 5 0 4 -9 -3 -20z
m52 9 c0 -9 -31 -21 -38 -14 -3 3 0 5 7 5 7 0 10 4 7 8 -3 5 1 9 9 9 8 0 15
-4 15 -8z m234 3 c3 -5 -1 -9 -9 -9 -8 0 -12 4 -9 9 3 4 7 8 9 8 2 0 6 -4 9
-8z m211 -2 c-3 -5 -12 -10 -18 -10 -7 0 -6 4 3 10 19 12 23 12 15 0z m220 0
c-3 -5 -12 -10 -18 -10 -7 0 -6 4 3 10 19 12 23 12 15 0z m50 -8 c-3 -3 -11 0
-18 7 -9 10 -8 11 6 5 10 -3 15 -9 12 -12z m270 8 c-3 -5 -12 -10 -18 -10 -7
0 -6 4 3 10 19 12 23 12 15 0z m150 -8 c-3 -3 -11 0 -18 7 -9 10 -8 11 6 5 10
-3 15 -9 12 -12z m145 12 c0 -8 -19 -13 -24 -6 -3 5 1 9 9 9 8 0 15 -2 15 -3z
m-1389 -37 c-10 -9 -11 -8 -5 6 3 10 9 15 12 12 3 -3 0 -11 -7 -18z m143 2
c-3 -5 -15 -7 -27 -3 -19 6 -20 5 -8 -9 7 -9 18 -14 25 -10 6 3 8 3 4 -2 -4
-4 0 -14 10 -21 19 -15 36 -18 28 -6 -2 4 4 8 14 9 11 1 22 -2 25 -7 2 -4 -2
-7 -10 -6 -7 0 -13 -3 -12 -9 1 -5 9 -10 18 -9 10 0 15 -5 12 -13 -4 -10 -11
-10 -33 2 -22 11 -30 12 -33 2 -2 -6 -3 -4 -2 5 2 10 -11 27 -31 40 -37 25
-39 44 -5 41 15 -2 20 1 15 9 -4 7 -3 8 5 4 6 -4 9 -12 5 -17z m-95 -33 c-3
-3 -11 5 -18 17 -13 21 -12 21 5 5 10 -10 16 -20 13 -22z m118 19 c0 -8 -4
-15 -9 -15 -10 0 -11 14 -1 23 9 10 10 9 10 -8z m1437 7 c3 -5 -1 -9 -9 -9 -8
0 -12 4 -9 9 3 4 7 8 9 8 2 0 6 -4 9 -8z m216 2 c0 -8 -19 -13 -24 -6 -3 5 1
9 9 9 8 0 15 -2 15 -3z m-1177 -19 c-3 -9 -8 -14 -10 -11 -3 3 -2 9 2 15 9 16
15 13 8 -4z m-558 -15 c-3 -5 -12 -10 -18 -10 -7 0 -6 4 3 10 19 12 23 12 15
0z m25 -10 c0 -5 -5 -10 -11 -10 -5 0 -7 5 -4 10 3 6 8 10 11 10 2 0 4 -4 4
-10z m295 0 c3 -5 1 -10 -4 -10 -6 0 -11 5 -11 10 0 6 2 10 4 10 3 0 8 -4 11
-10z m310 0 c3 -6 -1 -7 -9 -4 -18 7 -21 14 -7 14 6 0 13 -4 16 -10z m59 2 c2
-4 -4 -8 -14 -8 -10 0 -16 4 -14 8 3 4 9 8 14 8 5 0 11 -4 14 -8z m56 4 c0 -2
-7 -7 -16 -10 -8 -3 -12 -2 -9 4 6 10 25 14 25 6z m264 -4 c2 -4 -4 -8 -14 -8
-10 0 -16 4 -14 8 3 4 9 8 14 8 5 0 11 -4 14 -8z m160 0 c2 -4 -4 -8 -14 -8
-10 0 -16 4 -14 8 3 4 9 8 14 8 5 0 11 -4 14 -8z m588 -24 c-8 -8 -9 -4 -5 13
4 13 8 18 11 10 2 -7 -1 -18 -6 -23z m-1712 2 c-8 -5 -19 -10 -25 -10 -5 0 -3
5 5 10 8 5 20 10 25 10 6 0 3 -5 -5 -10z m535 -28 c-3 -3 -11 0 -18 7 -9 10
-8 11 6 5 10 -3 15 -9 12 -12z m80 0 c-3 -3 -11 0 -18 7 -9 10 -8 11 6 5 10
-3 15 -9 12 -12z m50 8 c-3 -5 -12 -10 -18 -10 -7 0 -6 4 3 10 19 12 23 12 15
0z m-605 -21 c0 -6 -4 -7 -10 -4 -5 3 -10 11 -10 16 0 6 5 7 10 4 6 -3 10 -11
10 -16z m50 -4 c-8 -9 -8 -15 0 -20 5 -3 10 -2 10 3 0 5 7 9 16 9 13 0 12 -3
-4 -16 -11 -9 -22 -23 -26 -31 -3 -9 -5 -6 -3 7 1 12 -7 28 -18 37 l-20 15 20
-2 c12 -1 19 3 17 11 -1 8 2 11 8 7 8 -5 8 -11 0 -20z m-95 -6 c-4 -5 -12 -9
-18 -8 -9 0 -8 2 1 6 6 2 9 10 6 15 -4 7 -2 8 5 4 6 -4 9 -12 6 -17z m1729
-17 c10 -2 15 1 12 7 -7 11 12 26 21 17 10 -9 -19 -37 -33 -32 -14 5 -28 -21
-14 -29 4 -3 10 0 12 7 3 7 12 9 23 4 16 -6 17 -9 5 -16 -8 -5 -18 -6 -24 -3
-5 4 -7 -1 -3 -10 3 -9 2 -19 -3 -22 -6 -4 -10 -12 -10 -18 1 -7 10 -1 21 12
11 13 22 22 24 19 3 -3 -4 -13 -15 -23 -23 -21 -28 -44 -5 -25 9 7 15 8 15 2
0 -5 -7 -12 -15 -16 -16 -6 -16 -26 0 -38 6 -5 4 -8 -5 -9 -10 0 -9 -3 5 -10
l20 -9 -20 3 c-11 2 -19 9 -17 16 1 7 -2 11 -8 9 -19 -6 -14 -22 9 -34 19 -10
20 -12 6 -18 -9 -3 -24 -2 -33 4 -11 6 -12 9 -4 10 8 0 10 5 5 13 -4 6 -8 17
-8 22 -1 6 -7 9 -15 7 -8 -2 -11 0 -7 5 5 4 13 8 18 8 5 0 9 3 9 8 0 4 6 15
13 24 10 14 9 16 -7 10 -14 -6 -16 -5 -8 5 15 19 15 30 0 40 -9 7 -8 8 5 4 12
-4 17 -2 14 6 -2 7 -14 12 -26 12 -12 -1 -19 1 -16 5 4 3 12 6 18 6 7 0 11 13
10 30 -2 18 0 24 5 15 4 -8 15 -16 26 -18z m-1504 8 c0 -5 -5 -10 -11 -10 -5
0 -7 5 -4 10 3 6 8 10 11 10 2 0 4 -4 4 -10z m-150 -16 c0 -2 -7 -4 -15 -4 -8
0 -15 4 -15 10 0 5 7 7 15 4 8 -4 15 -8 15 -10z m67 -9 c0 -8 -4 -15 -9 -15
-10 0 -11 14 -1 23 9 10 10 9 10 -8z m-97 -17 c0 -4 -4 -8 -9 -8 -6 0 -12 4
-15 8 -3 5 1 9 9 9 8 0 15 -4 15 -9z m62 -20 c-8 -8 -9 -4 -5 13 4 13 8 18 11
10 2 -7 -1 -18 -6 -23z m418 28 c0 -2 -7 -7 -16 -10 -8 -3 -12 -2 -9 4 6 10
25 14 25 6z m160 0 c0 -2 -7 -7 -16 -10 -8 -3 -12 -2 -9 4 6 10 25 14 25 6z
m50 -2 c0 -8 -19 -13 -24 -6 -3 5 1 9 9 9 8 0 15 -2 15 -3z m126 -19 c-1 -8
-5 -17 -8 -21 -5 -4 -4 16 1 34 3 9 9 -1 7 -13z m320 -11 c1 -9 0 -13 -4 -10
-3 4 -7 14 -8 22 -1 9 0 13 4 10 3 -4 7 -14 8 -22z m201 11 c0 -8 -4 -12 -9
-9 -5 3 -6 10 -3 15 9 13 12 11 12 -6z m-1241 -11 c-4 -9 -1 -23 5 -30 8 -10
7 -19 -5 -36 -9 -12 -16 -18 -16 -12 0 5 5 15 12 22 14 14 -8 45 -26 36 -6 -3
-3 1 6 9 10 8 15 17 11 20 -3 4 -1 7 6 7 8 0 11 -6 7 -16z m-46 -29 c0 -5 -5
-3 -10 5 -5 8 -10 20 -10 25 0 6 5 3 10 -5 5 -8 10 -19 10 -25z m90 0 c5 3 10
1 10 -4 0 -6 -6 -11 -14 -11 -14 0 -27 22 -25 43 0 7 4 2 10 -11 5 -13 13 -20
19 -17z m474 -11 c3 -8 2 -12 -4 -9 -6 3 -10 10 -10 16 0 14 7 11 14 -7z m321
7 c3 -5 2 -12 -3 -15 -5 -3 -9 1 -9 9 0 17 3 19 12 6z m-860 -11 c-3 -5 -12
-10 -18 -10 -7 0 -6 4 3 10 19 12 23 12 15 0z m385 -10 c0 -5 -2 -10 -4 -10
-3 0 -8 5 -11 10 -3 6 -1 10 4 10 6 0 11 -4 11 -10z m1040 0 c0 -5 -5 -10 -11
-10 -5 0 -7 5 -4 10 3 6 8 10 11 10 2 0 4 -4 4 -10z m-1323 -12 c6 -1 9 -7 6
-14 -4 -11 -8 -10 -20 2 -11 10 -19 12 -27 4 -7 -5 -16 -7 -19 -3 -4 3 -7 0
-7 -7 0 -7 -3 -10 -6 -7 -13 12 17 36 39 30 12 -2 27 -5 34 -5z m361 -13 c-3
-3 -9 2 -12 12 -6 14 -5 15 5 6 7 -7 10 -15 7 -18z m319 10 c0 -8 -4 -12 -9
-9 -5 3 -6 10 -3 15 9 13 12 11 12 -6z m-640 -17 c2 -17 0 -19 -7 -8 -5 8 -6
18 -4 22 8 12 10 10 11 -14z m1163 -9 c0 -5 -4 -9 -8 -9 -5 0 -9 7 -9 15 0 8
4 12 9 9 4 -3 8 -9 8 -15z m-1220 2 c0 -5 9 -13 20 -16 11 -4 17 -11 14 -17
-5 -8 -1 -9 10 -5 9 4 15 3 11 -2 -3 -5 1 -12 7 -15 7 -3 2 -3 -12 1 -22 5
-23 4 -11 -10 7 -9 17 -15 20 -12 8 4 11 -11 12 -53 1 -19 3 -21 17 -10 12 10
14 10 8 1 -4 -7 -3 -13 2 -13 9 0 12 -15 13 -58 1 -19 3 -21 17 -10 9 8 13 8
9 2 -4 -7 0 -14 8 -18 8 -3 15 -11 14 -18 0 -10 -2 -10 -6 0 -2 6 -9 12 -14
12 -6 0 -7 -5 -3 -12 4 -7 3 -8 -4 -4 -7 4 -12 2 -12 -3 0 -6 7 -11 15 -11 21
0 19 -17 -4 -30 -22 -11 -38 -13 -28 -3 4 3 1 13 -5 22 -10 13 -10 14 2 4 8
-7 21 -13 29 -13 10 0 7 6 -9 17 -14 10 -28 17 -31 16 -3 -1 -6 5 -6 12 0 11
4 12 14 3 19 -16 24 -6 7 16 -11 16 -16 17 -29 6 -8 -7 -18 -10 -22 -6 -3 3
-1 6 7 6 10 0 10 4 -1 17 -12 14 -12 16 1 8 19 -12 50 -14 50 -3 0 4 -4 8 -10
8 -5 0 -9 3 -9 8 3 19 -2 33 -11 27 -5 -3 -6 -13 -3 -22 4 -11 3 -14 -6 -9 -7
5 -10 14 -7 22 3 7 -5 21 -17 30 l-22 16 23 -7 c13 -4 22 -2 22 4 0 6 -5 11
-11 11 -5 0 -8 4 -5 9 4 5 -8 21 -25 35 -17 14 -26 26 -20 26 6 0 11 5 11 11
0 5 -4 7 -10 4 -5 -3 -10 -1 -10 5 0 6 -4 9 -8 6 -5 -3 -9 1 -9 9 0 8 4 15 9
15 4 0 8 -4 8 -9z m497 -16 c0 -8 -4 -15 -9 -15 -10 0 -11 14 -1 23 9 10 10 9
10 -8z m-86 -18 c-10 -9 -11 -8 -5 6 3 10 9 15 12 12 3 -3 0 -11 -7 -18z
m-451 -7 c0 -5 -2 -10 -4 -10 -3 0 -8 5 -11 10 -3 6 -1 10 4 10 6 0 11 -4 11
-10z m1380 6 c0 -3 -4 -8 -10 -11 -5 -3 -10 -1 -10 4 0 6 5 11 10 11 6 0 10
-2 10 -4z m-1343 -52 c-4 -16 -5 -15 -6 3 -1 17 -6 21 -18 17 -15 -5 -16 -4
-3 5 19 13 33 -1 27 -25z m41 -20 c-4 -3 -12 5 -18 18 -12 22 -12 22 6 6 10
-10 15 -20 12 -24z m1102 32 c0 -2 -7 -7 -16 -10 -8 -3 -12 -2 -9 4 6 10 25
14 25 6z m375 -6 c10 17 24 11 22 -9 -1 -15 -4 -17 -14 -9 -9 7 -13 7 -13 -1
0 -6 10 -16 23 -21 19 -8 20 -9 3 -9 -20 -1 -20 -1 0 -17 10 -8 13 -13 7 -9
-16 8 -17 -7 -1 -23 9 -9 9 -12 -1 -12 -11 0 -11 -3 -1 -15 7 -9 10 -18 7 -22
-4 -3 -2 -12 5 -20 6 -7 8 -16 4 -20 -3 -3 -6 -1 -6 5 0 9 -6 9 -24 1 -21 -10
-24 -20 -17 -62 3 -21 18 6 16 28 -2 14 1 25 6 25 5 0 9 -5 9 -11 0 -5 6 -7
13 -3 10 6 10 4 0 -7 -7 -7 -13 -17 -13 -22 0 -4 6 -5 13 -1 9 6 9 5 0 -8 -7
-8 -9 -19 -5 -24 4 -4 -1 -2 -10 5 -10 7 -18 10 -18 7 0 -4 -9 -2 -20 4 -11 6
-17 16 -14 25 5 11 1 14 -12 9 -15 -5 -14 -2 4 10 12 10 20 22 16 27 -3 5 -2
9 3 8 22 -4 44 2 38 11 -3 5 -13 7 -23 4 -14 -5 -14 -4 -2 4 8 6 18 8 23 5 5
-3 8 0 5 7 -2 8 -14 14 -26 15 -12 1 -25 5 -29 10 -5 4 2 4 14 1 29 -9 37 8
21 41 -9 19 -21 28 -36 27 -13 -1 -20 1 -17 5 4 3 12 6 18 6 5 0 12 6 15 14 3
8 0 11 -5 8 -5 -3 -10 0 -10 8 0 11 4 12 13 4 8 -7 14 -7 19 1z m-617 -45 c-3
-3 -9 2 -12 12 -6 14 -5 15 5 6 7 -7 10 -15 7 -18z m-878 5 c0 -5 -2 -10 -4
-10 -3 0 -8 5 -11 10 -3 6 -1 10 4 10 6 0 11 -4 11 -10z m105 0 c3 -6 -1 -7
-9 -4 -18 7 -21 14 -7 14 6 0 13 -4 16 -10z m175 6 c0 -3 -4 -8 -10 -11 -5 -3
-10 -1 -10 4 0 6 5 11 10 11 6 0 10 -2 10 -4z m235 -6 c3 -5 1 -10 -4 -10 -6
0 -11 5 -11 10 0 6 2 10 4 10 3 0 8 -4 11 -10z m85 6 c0 -3 -4 -8 -10 -11 -5
-3 -10 -1 -10 4 0 6 5 11 10 11 6 0 10 -2 10 -4z m435 -6 c3 -5 1 -10 -4 -10
-6 0 -11 5 -11 10 0 6 2 10 4 10 3 0 8 -4 11 -10z m-920 -50 c1 -10 -2 -17 -6
-14 -4 2 -7 13 -6 24 2 23 10 17 12 -10z m1385 -13 c0 -16 -18 3 -23 25 -6 22
-5 22 8 4 8 -11 15 -24 15 -29z m-1470 23 c0 -5 -2 -10 -4 -10 -3 0 -8 5 -11
10 -3 6 -1 10 4 10 6 0 11 -4 11 -10z m746 -22 c3 -4 -1 -5 -10 -4 -8 1 -18 5
-22 8 -3 4 1 5 10 4 8 -1 18 -5 22 -8z m-623 -23 c4 -8 3 -16 -1 -19 -4 -3 -9
4 -9 15 -2 23 3 25 10 4z m362 5 c3 -5 1 -10 -4 -10 -6 0 -11 5 -11 10 0 6 2
10 4 10 3 0 8 -4 11 -10z m618 -15 c-6 -17 -19 -19 -28 -5 -4 6 -1 9 7 8 7 -2
12 3 10 10 -1 8 2 11 7 7 6 -3 8 -12 4 -20z m187 15 c0 -5 -2 -10 -4 -10 -3 0
-8 5 -11 10 -3 6 -1 10 4 10 6 0 11 -4 11 -10z m-346 -29 c-2 -3 -12 3 -22 13
-16 17 -16 18 5 5 12 -7 20 -15 17 -18z m481 20 c3 -5 2 -12 -3 -15 -5 -3 -9
1 -9 9 0 17 3 19 12 6z m179 1 c2 -4 -4 -8 -14 -8 -10 0 -16 4 -14 8 3 4 9 8
14 8 5 0 11 -4 14 -8z m-934 -12 c0 -5 -2 -10 -4 -10 -3 0 -8 5 -11 10 -3 6
-1 10 4 10 6 0 11 -4 11 -10z m37 -12 c2 -17 0 -19 -7 -8 -5 8 -6 18 -4 22 8
12 10 10 11 -14z m179 4 c-10 -2 -22 0 -28 6 -6 6 0 7 19 4 21 -5 23 -7 9 -10z
m94 -17 c0 -5 -5 -3 -10 5 -5 8 -10 20 -10 25 0 6 5 3 10 -5 5 -8 10 -19 10
-25z m24 19 c3 -8 2 -12 -4 -9 -6 3 -10 10 -10 16 0 14 7 11 14 -7z m26 6 c0
-5 -2 -10 -4 -10 -3 0 -8 5 -11 10 -3 6 -1 10 4 10 6 0 11 -4 11 -10z m23 -7
c-5 -12 -3 -14 7 -8 9 6 11 4 5 -4 -5 -9 -11 -9 -17 -3 -6 6 -7 15 -4 21 11
17 16 13 9 -6z m121 3 c-3 -8 -12 -12 -20 -9 -9 3 -14 0 -12 -7 2 -7 -4 -15
-12 -17 -12 -4 -12 -3 -2 5 8 5 13 13 12 18 -1 6 13 16 37 23 1 1 0 -5 -3 -13z
m-409 -6 c-3 -5 -1 -18 5 -29 9 -17 7 -19 -11 -16 -12 3 -24 7 -28 11 -3 4 2
4 13 0 14 -5 17 -3 12 10 -6 15 0 34 10 34 3 0 2 -4 -1 -10z m80 0 c3 -5 1
-10 -4 -10 -6 0 -11 5 -11 10 0 6 2 10 4 10 3 0 8 -4 11 -10z m351 -6 c-9 -8
-16 -20 -16 -26 0 -6 -3 -9 -6 -6 -8 9 14 48 27 48 6 0 3 -7 -5 -16z m32 -6
c-2 -11 -11 -22 -21 -24 -9 -1 -15 2 -11 7 3 5 10 7 15 4 5 -4 9 3 9 14 0 12
3 21 6 21 3 0 4 -10 2 -22z m-613 3 c-9 -8 -36 -10 -30 -2 2 4 11 8 20 8 8 0
13 -3 10 -6z m125 -1 c0 -5 -5 -10 -11 -10 -5 0 -7 5 -4 10 3 6 8 10 11 10 2
0 4 -4 4 -10z m57 3 c-4 -3 -1 -13 6 -22 11 -14 10 -14 -5 -2 -21 15 -23 31
-6 31 6 0 8 -3 5 -7z m138 -11 c-3 -3 -11 0 -18 7 -9 10 -8 11 6 5 10 -3 15
-9 12 -12z m393 -9 l0 -24 -16 22 c-8 12 -17 17 -21 11 -4 -6 -10 -5 -17 2 -9
10 -4 13 21 13 28 0 33 -4 33 -24z m42 15 c0 -4 -5 -8 -10 -8 -15 0 -8 -32 10
-50 9 -8 11 -12 5 -8 -7 4 -15 5 -18 1 -7 -7 -8 -5 -12 43 -1 20 3 31 11 31 8
0 14 -4 14 -9z m25 -14 c-17 -18 -31 -18 -16 -1 6 8 8 17 4 21 -4 4 0 4 10 1
14 -6 14 -9 2 -21z m-744 -3 c-16 -12 -20 -20 -12 -25 6 -4 9 -12 5 -17 -3 -5
-9 -7 -14 -4 -5 3 -11 1 -15 -5 -3 -5 -11 -10 -17 -10 -6 0 -1 9 11 19 12 11
18 22 12 25 -5 4 -14 -2 -20 -11 -9 -16 -10 -16 -8 4 0 12 4 20 8 17 4 -2 10
0 14 6 4 6 10 8 14 6 4 -3 13 -1 21 5 26 15 26 9 1 -10z m29 -10 c-6 -12 -7
-21 -1 -21 5 0 11 7 15 15 3 8 10 15 16 15 6 0 2 -10 -10 -22 -20 -21 -21 -21
-38 -4 -9 11 -12 16 -5 12 7 -4 14 2 18 15 4 11 9 18 12 16 2 -3 0 -15 -7 -26z
m148 4 c-3 -3 -9 2 -12 12 -6 14 -5 15 5 6 7 -7 10 -15 7 -18z m37 15 c-3 -5
-12 -10 -18 -10 -7 0 -6 4 3 10 19 12 23 12 15 0z m-350 -10 c-3 -5 -12 -10
-18 -10 -7 0 -6 4 3 10 19 12 23 12 15 0z m747 -12 c-7 -7 -12 -8 -12 -2 0 14
12 26 19 19 2 -3 -1 -11 -7 -17z m-723 -19 c-8 -5 -20 -7 -26 -4 -16 6 -17 -7
-1 -23 15 -15 32 -16 23 -2 -6 9 8 15 29 11 5 -1 6 4 3 12 -3 8 -1 20 4 28 6
9 8 3 5 -19 -4 -34 -16 -57 -16 -31 -1 9 -5 7 -13 -6 -7 -11 -19 -21 -27 -23
-8 -2 -12 0 -8 4 10 9 -10 34 -28 34 -8 0 -14 -5 -14 -11 0 -5 4 -8 9 -4 16 9
24 -15 10 -31 -6 -8 -14 -12 -17 -9 -3 3 -11 0 -19 -7 -11 -8 -12 -7 -7 6 3 9
13 15 22 14 8 -2 17 2 19 8 6 17 -36 11 -47 -6 -9 -13 -10 -13 -11 0 -1 8 -1
18 0 23 0 4 -3 7 -7 7 -19 0 -21 -15 -7 -37 9 -14 11 -23 5 -23 -6 0 -8 -5 -4
-12 4 -6 3 -8 -4 -4 -5 3 -12 2 -14 -3 -1 -5 -9 -2 -17 6 -11 12 -10 14 4 11
10 -2 20 3 23 11 3 8 0 11 -7 7 -7 -5 -9 -1 -5 11 5 17 5 17 -9 1 -18 -23 -43
-23 -51 -2 -6 15 -4 15 10 3 14 -11 18 -11 28 1 27 35 45 43 63 29 15 -12 16
-12 10 4 -4 11 -3 16 3 12 5 -3 20 0 32 7 13 7 29 11 37 9 8 -1 10 2 5 10 -4
8 -3 10 4 5 7 -4 12 -1 13 6 0 10 2 10 6 -1 3 -7 -1 -17 -8 -22z m866 12 c-3
-6 -11 -11 -16 -11 -5 0 -4 6 3 14 14 16 24 13 13 -3z m-95 5 c0 -3 -4 -8 -10
-11 -5 -3 -10 -1 -10 4 0 6 5 11 10 11 6 0 10 -2 10 -4z m290 -11 c11 -13 10
-14 -4 -9 -9 3 -16 10 -16 15 0 13 6 11 20 -6z m-1485 -15 c-3 -5 -1 -10 4
-10 6 0 11 -5 11 -11 0 -5 -4 -7 -10 -4 -5 3 -10 2 -10 -3 0 -17 13 -22 29
-10 9 7 13 8 9 4 -4 -5 -2 -16 5 -24 8 -11 8 -14 0 -9 -6 4 -14 3 -18 -2 -3
-5 2 -14 11 -19 9 -5 16 -13 17 -18 1 -5 8 -8 15 -6 8 2 11 -1 7 -7 -3 -6 -13
-11 -21 -11 -8 0 -12 -4 -9 -10 4 -6 18 -4 37 6 30 15 32 15 45 -2 7 -10 13
-23 13 -28 0 -6 -6 -2 -12 9 -6 11 -12 21 -13 23 -6 7 -34 -11 -29 -19 3 -5
10 -7 15 -3 6 3 13 -3 16 -15 7 -26 15 -26 37 -2 13 14 14 20 5 23 -9 3 -7 7
5 11 10 4 15 3 11 -3 -3 -6 -2 -10 4 -10 15 0 23 18 10 26 -8 4 -7 9 2 15 7 4
10 12 5 16 -4 4 -16 -3 -27 -16 -11 -13 -21 -22 -23 -20 -7 7 18 35 42 48 12
7 20 17 16 23 -4 7 -2 8 5 4 9 -6 9 -11 -1 -24 -11 -13 -10 -15 4 -9 10 3 24
0 32 -8 7 -8 17 -11 22 -7 5 4 3 -1 -5 -10 -7 -9 -19 -14 -27 -11 -9 3 -14 0
-12 -8 2 -7 -3 -13 -10 -14 -7 0 -17 -7 -22 -15 -5 -8 -10 -11 -10 -6 0 5 -11
-1 -24 -13 -25 -24 -46 -21 -46 5 0 8 -4 13 -9 9 -5 -3 -12 -1 -16 4 -3 6 -28
8 -57 6 -28 -1 -47 0 -42 4 15 10 17 44 3 35 -7 -4 -10 -3 -5 4 3 5 0 13 -6
16 -9 4 -8 5 2 5 30 -2 41 1 36 10 -4 5 -17 8 -31 6 -14 -1 -23 0 -20 3 2 3 0
11 -7 19 -6 7 -8 16 -4 20 3 3 6 1 6 -6 0 -7 5 -9 10 -6 6 4 8 11 4 16 -3 6 2
17 12 24 23 17 27 18 19 5z m215 -24 c-7 -7 -13 -7 -20 0 -6 6 -3 10 10 10 13
0 16 -4 10 -10z m1295 -24 c-3 -3 -11 0 -18 7 -9 10 -8 11 6 5 10 -3 15 -9 12
-12z m-1440 -32 c3 -5 1 -10 -4 -10 -6 0 -11 5 -11 10 0 6 2 10 4 10 3 0 8 -4
11 -10z m1400 0 c3 -5 1 -10 -4 -10 -6 0 -11 5 -11 10 0 6 2 10 4 10 3 0 8 -4
11 -10z m-1330 -20 c-3 -5 -12 -10 -18 -10 -7 0 -6 4 3 10 19 12 23 12 15 0z
m-125 -74 c0 -3 -4 -8 -10 -11 -5 -3 -10 -1 -10 4 0 6 5 11 10 11 6 0 10 -2
10 -4z m19 -13 c-12 -15 -12 -16 4 -10 9 3 17 2 17 -3 0 -11 -23 -14 -33 -4
-8 8 3 34 15 34 6 0 4 -8 -3 -17z m41 2 c0 -8 -2 -15 -4 -15 -2 0 -6 7 -10 15
-3 8 -1 15 4 15 6 0 10 -7 10 -15z m6 -37 c-9 -12 -16 -19 -16 -15 0 11 24 47
28 42 2 -2 -3 -14 -12 -27z m-29 -14 c-3 -3 -12 -4 -19 -1 -8 3 -5 6 6 6 11 1
17 -2 13 -5z"/>
<path d="M4395 3319 c1 -11 8 -26 16 -35 14 -13 17 -12 27 10 12 26 7 34 -26
41 -13 2 -18 -2 -17 -16z m32 -14 c0 -8 -4 -12 -9 -9 -4 3 -8 9 -8 15 0 5 4 9
8 9 5 0 9 -7 9 -15z"/>
<path d="M4315 3170 c3 -5 8 -10 11 -10 2 0 4 5 4 10 0 6 -5 10 -11 10 -5 0
-7 -4 -4 -10z"/>
<path d="M4305 3060 c4 -6 11 -8 16 -5 14 9 11 15 -7 15 -8 0 -12 -5 -9 -10z"/>
<path d="M4250 2980 c0 -5 5 -10 10 -10 6 0 10 5 10 10 0 6 -4 10 -10 10 -5 0
-10 -4 -10 -10z"/>
<path d="M4235 2870 c-10 -11 -13 -20 -8 -20 13 0 38 29 31 35 -3 3 -13 -4
-23 -15z"/>
<path d="M4205 2660 c-3 -6 1 -7 9 -4 18 7 21 14 7 14 -6 0 -13 -4 -16 -10z"/>
<path d="M2845 2310 c-3 -5 -3 -10 2 -11 4 0 16 -2 25 -4 10 -2 21 2 25 7 3 6
1 8 -5 4 -6 -3 -13 -2 -17 4 -8 13 -22 13 -30 0z"/>
<path d="M2890 2262 c0 -7 -4 -11 -8 -8 -4 2 -8 -4 -8 -14 0 -10 4 -16 8 -14
4 3 8 -1 8 -8 0 -8 5 -6 11 5 7 11 7 23 0 35 -6 10 -11 12 -11 4z"/>
<path d="M3080 2255 c-10 -13 -11 -18 -1 -28 10 -9 12 -9 9 3 -2 9 4 14 15 14
14 -2 15 1 6 12 -14 17 -14 17 -29 -1z"/>
<path d="M3589 4743 c-13 -16 -12 -17 4 -4 16 13 21 21 13 21 -2 0 -10 -8 -17
-17z"/>
<path d="M1859 3293 c-13 -16 -12 -17 4 -4 9 7 17 15 17 17 0 8 -8 3 -21 -13z"/>
<path d="M1810 3260 c-8 -5 -12 -12 -9 -15 4 -3 12 1 19 10 14 17 11 19 -10 5z"/>
</g>
</svg>
