<?xml version="1.0" standalone="no"?>
<!DOCTYPE svg PUBLIC "-//W3C//DTD SVG 20010904//EN"
 "http://www.w3.org/TR/2001/REC-SVG-20010904/DTD/svg10.dtd">
<svg version="1.0" xmlns="http://www.w3.org/2000/svg"
 width="512.000000pt" height="512.000000pt" viewBox="0 0 512.000000 512.000000"
 preserveAspectRatio="xMidYMid meet">
<metadata>
Created by potrace 1.14, written by Peter Selinger 2001-2017
</metadata>
<g transform="translate(0.000000,512.000000) scale(0.100000,-0.100000)"
fill="#000000" stroke="none">
<path d="M0 2560 l0 -2560 2560 0 2560 0 0 2560 0 2560 -2560 0 -2560 0 0
-2560z m3325 1306 c391 -262 711 -480 713 -485 2 -7 -690 -662 -708 -669 -4
-1 -144 121 -311 273 -167 151 -306 275 -309 275 -11 0 -735 -690 -735 -700 0
-10 725 -700 735 -700 3 0 142 124 309 276 167 151 307 274 311 272 18 -6 711
-661 708 -669 -4 -11 -1420 -962 -1434 -962 -17 -1 -1905 1774 -1901 1787 6
19 1891 1785 1902 1781 6 -1 330 -217 720 -479z"/>
</g>
</svg>
