<svg xmlns="http://www.w3.org/2000/svg" xmlns:xlink="http://www.w3.org/1999/xlink"><symbol id="icon-phone" viewBox="0 0 16 16">
    <path d="M3.9 6.567c1.643 2.663 2.739 3.729 5.477 5.327l2.191-2.13c1.12.277 2.532.659 3.665.654.378-.003.754.365.764.716l-.025 3.324c-.002.368-.38.737-.766.76C5.766 15.232.309 9.925.002.725-.03.371.35.002.728 0H4.47c.414-.015.79.351.88.575-.096 1.246.448 2.767.74 3.862L3.9 6.567Z"/>
</symbol><symbol id="icon-site" viewBox="0 0 26 26">
    <path d="M21.64 10.42a8.86 8.86 0 0 0-6-6C14.8 4.12 13.9 4 13 4c-.9 0-1.8.12-2.58.36a8.86 8.86 0 0 0-6 6C4.12 11.2 4 12.1 4 13c0 .9.12 1.8.36 2.58a8.86 8.86 0 0 0 6 6c.84.3 1.74.42 2.64.42.9 0 1.8-.12 2.58-.36a8.86 8.86 0 0 0 6-6c.3-.84.42-1.74.42-2.64 0-.9-.12-1.8-.36-2.58ZM16.6 12.4h-3v-3c.96 0 1.92.12 2.7.24.18.84.24 1.8.3 2.76Zm-4.2 0h-3c0-.96.12-1.92.24-2.7.84-.12 1.74-.24 2.7-.24v2.94h.06Zm-4.2 0h-3c0-.42.12-.84.18-1.26.78-.48 1.74-.9 3-1.2-.06.78-.18 1.62-.18 2.46Zm-3 1.2h3c0 .84.12 1.68.18 2.46-1.2-.3-2.22-.72-3-1.2L5.2 13.6Zm4.2 0h3v3c-.96 0-1.92-.12-2.7-.24-.18-.9-.24-1.8-.3-2.76Zm4.2 0h3c0 .96-.12 1.86-.24 2.7-.84.12-1.74.24-2.7.24V13.6h-.06Zm4.2 0h3l-.18 1.26c-.78.48-1.74.9-3 1.2.06-.78.18-1.62.18-2.46Zm3-1.2h-3c0-.84-.12-1.68-.18-2.46 1.2.3 2.22.72 3 1.2l.18 1.26Zm-.84-2.94c-.78-.36-1.62-.6-2.58-.84-.24-.96-.48-1.8-.84-2.58a8.53 8.53 0 0 1 3.42 3.42Zm-3.9-1.08c-.78-.06-1.62-.18-2.46-.18v-3c.42 0 .84.12 1.26.18.48.78.9 1.8 1.2 3ZM12.4 5.2v3c-.84 0-1.68.12-2.46.18.3-1.2.72-2.22 1.2-3l1.26-.18Zm-2.94.84c-.36.78-.6 1.62-.84 2.58-.96.18-1.8.48-2.58.84a8.53 8.53 0 0 1 3.42-3.42Zm-3.42 10.5c.78.36 1.62.6 2.58.84.24.96.48 1.8.84 2.58a8.53 8.53 0 0 1-3.42-3.42Zm3.9 1.02c.78.12 1.62.18 2.46.18v3c-.42 0-.84-.12-1.26-.18-.48-.72-.9-1.74-1.2-3Zm3.66 3.24v-3c.84 0 1.68-.12 2.46-.18-.3 1.2-.72 2.22-1.2 3l-1.26.18Zm2.94-.84c.36-.78.6-1.62.84-2.58.96-.24 1.8-.48 2.58-.84a8.53 8.53 0 0 1-3.42 3.42Z"/>
</symbol><symbol id="icon-twitter" viewBox="0 0 72 72">
    <path d="M67.812 16.141a26.246 26.246 0 0 1-7.519 2.06 13.134 13.134 0 0 0 5.756-7.244 26.127 26.127 0 0 1-8.313 3.176A13.075 13.075 0 0 0 48.182 10c-7.229 0-13.092 5.861-13.092 13.093 0 1.026.118 2.021.338 2.981-10.885-.548-20.528-5.757-26.987-13.679a13.048 13.048 0 0 0-1.771 6.581c0 4.542 2.312 8.551 5.824 10.898a13.048 13.048 0 0 1-5.93-1.638c-.002.055-.002.11-.002.162 0 6.345 4.513 11.638 10.504 12.84a13.177 13.177 0 0 1-3.449.457c-.846 0-1.667-.078-2.465-.231 1.667 5.2 6.499 8.986 12.23 9.09a26.276 26.276 0 0 1-16.26 5.606A26.21 26.21 0 0 1 4 55.976a37.036 37.036 0 0 0 20.067 5.882c24.083 0 37.251-19.949 37.251-37.249 0-.566-.014-1.134-.039-1.694a26.597 26.597 0 0 0 6.533-6.774z"/>
</symbol><symbol id="icon-vk" viewBox="0 0 26 26">
    <path fill-rule="evenodd" clip-rule="evenodd" d="M1.828 1.828C0 3.655 0 6.597 0 12.48v1.04c0 5.883 0 8.825 1.828 10.652C3.655 26 6.597 26 12.48 26h1.04c5.883 0 8.825 0 10.652-1.828C26 22.345 26 19.403 26 13.52v-1.04c0-5.883 0-8.825-1.828-10.652C22.345 0 19.403 0 13.52 0h-1.04C6.597 0 3.655 0 1.828 1.828Zm2.56 6.08c.14 6.76 3.52 10.823 9.446 10.823h.336v-3.868c2.178.217 3.824 1.81 4.485 3.868h3.077c-.845-3.077-3.066-4.778-4.453-5.428 1.387-.801 3.337-2.751 3.803-5.395h-2.795c-.607 2.145-2.405 4.095-4.117 4.28v-4.28h-2.795v7.497c-1.733-.433-3.922-2.535-4.02-7.497H4.389Z"/>
</symbol></svg>