<svg xmlns="http://www.w3.org/2000/svg" xmlns:xlink="http://www.w3.org/1999/xlink"><defs>
        <clipPath id="a">
            <path transform="rotate(-90 8 8)" d="M0 0h16v16H0z"/>
        </clipPath>
    </defs><symbol id="icon-arrow" viewBox="0 0 16 16">
    <g clip-path="url(#a)">
        <path d="m10.09 2.214-1.48 1.52a.266.266 0 0 0 0 .373l2.509 2.56H.267A.267.267 0 0 0 0 6.932v2.133c0 .148.12.267.267.267h10.852l-2.51 2.56a.266.266 0 0 0 0 .372l1.48 1.52a.265.265 0 0 0 .383 0l5.452-5.6a.266.266 0 0 0 0-.371l-5.452-5.6a.266.266 0 0 0-.382 0Z"/>
    </g>
    
</symbol><symbol id="icon-instagram" viewBox="0 0 24 24">
    <path d="M16.5 0h-9A7.5 7.5 0 0 0 0 7.5v9A7.5 7.5 0 0 0 7.5 24h9a7.5 7.5 0 0 0 7.5-7.5v-9A7.5 7.5 0 0 0 16.5 0Zm5.25 16.5a5.256 5.256 0 0 1-5.25 5.25h-9a5.256 5.256 0 0 1-5.25-5.25v-9A5.256 5.256 0 0 1 7.5 2.25h9a5.256 5.256 0 0 1 5.25 5.25v9Z"/>
    <path d="M12 6a6 6 0 1 0 0 12 6 6 0 0 0 0-12Zm0 9.75A3.755 3.755 0 0 1 8.25 12 3.754 3.754 0 0 1 12 8.25 3.754 3.754 0 0 1 15.75 12 3.755 3.755 0 0 1 12 15.75Z"/>
    <path d="M18.45 6.35a.8.8 0 1 0 0-1.6.8.8 0 0 0 0 1.6Z"/>
</symbol><symbol id="icon-twitter" viewBox="0 0 72 72">
    <path d="M67.812 16.141a26.246 26.246 0 0 1-7.519 2.06 13.134 13.134 0 0 0 5.756-7.244 26.127 26.127 0 0 1-8.313 3.176A13.075 13.075 0 0 0 48.182 10c-7.229 0-13.092 5.861-13.092 13.093 0 1.026.118 2.021.338 2.981-10.885-.548-20.528-5.757-26.987-13.679a13.048 13.048 0 0 0-1.771 6.581c0 4.542 2.312 8.551 5.824 10.898a13.048 13.048 0 0 1-5.93-1.638c-.002.055-.002.11-.002.162 0 6.345 4.513 11.638 10.504 12.84a13.177 13.177 0 0 1-3.449.457c-.846 0-1.667-.078-2.465-.231 1.667 5.2 6.499 8.986 12.23 9.09a26.276 26.276 0 0 1-16.26 5.606A26.21 26.21 0 0 1 4 55.976a37.036 37.036 0 0 0 20.067 5.882c24.083 0 37.251-19.949 37.251-37.249 0-.566-.014-1.134-.039-1.694a26.597 26.597 0 0 0 6.533-6.774z"/>
</symbol></svg>