<svg viewBox="0 0 139 36" fill="none" xmlns="http://www.w3.org/2000/svg">
  <path d="M20.6682 16.6016C20.6833 15.4337 20.9929 14.2885 21.5684 13.2727C22.1439 12.2568 22.9666 11.4033 23.9598 10.7916C23.3288 9.88879 22.4964 9.14583 21.5287 8.62171C20.561 8.09759 19.4846 7.80675 18.3851 7.77229C16.0396 7.52564 13.7658 9.17837 12.5705 9.17837C11.3522 9.17837 9.51197 7.79678 7.53035 7.83762C6.24858 7.87911 4.9994 8.25252 3.90451 8.92148C2.80963 9.59044 1.90638 10.5321 1.28277 11.6548C-1.41856 16.3403 0.59639 23.2264 3.18404 27.0138C4.47869 28.8684 5.99177 30.9401 7.9716 30.8666C9.90899 30.7861 10.6326 29.6289 12.9712 29.6289C15.288 29.6289 15.9669 30.8666 17.9869 30.8199C20.0658 30.7861 21.3756 28.9571 22.6249 27.0849C23.5551 25.7634 24.2708 24.3029 24.7457 22.7575C23.5379 22.2457 22.5072 21.3891 21.7821 20.2944C21.0571 19.1997 20.6697 17.9154 20.6682 16.6016Z" fill="white"/>
  <path d="M16.853 5.28147C17.9865 3.91824 18.5449 2.16604 18.4097 0.396973C16.678 0.579193 15.0783 1.40837 13.9295 2.7193C13.3678 3.35972 12.9376 4.10477 12.6635 4.91185C12.3894 5.71894 12.2768 6.57223 12.332 7.42296C13.1982 7.43189 14.0551 7.24381 14.8382 6.87286C15.6213 6.50192 16.3102 5.9578 16.853 5.28147Z" fill="white"/>
  <path d="M45.1577 26.1718H38.5463L36.9585 30.8686H34.1582L40.4204 13.4918H43.3299L49.5921 30.8686H46.744L45.1577 26.1718ZM39.231 24.0045H44.4716L41.8882 16.382H41.8159L39.231 24.0045Z" fill="white"/>
  <path d="M63.1161 24.5346C63.1161 28.4715 61.0128 31.001 57.8387 31.001C57.0347 31.0431 56.235 30.8575 55.5314 30.4655C54.8277 30.0735 54.2484 29.4909 53.8599 28.7844H53.7998V35.0595H51.2041V18.1993H53.7167V20.3065H53.7644C54.1708 19.6034 54.7599 19.0238 55.4689 18.6294C56.1779 18.235 56.9804 18.0406 57.791 18.0668C61.0005 18.0668 63.1161 20.6085 63.1161 24.5346ZM60.4481 24.5346C60.4481 21.9696 59.125 20.2833 57.1062 20.2833C55.123 20.2833 53.7889 22.0051 53.7889 24.5346C53.7889 27.0872 55.123 28.7968 57.1062 28.7968C59.125 28.7968 60.4481 27.1228 60.4481 24.5346Z" fill="white"/>
  <path d="M77.0351 24.5345C77.0351 28.4715 74.9318 31.0009 71.7577 31.0009C70.9537 31.0431 70.154 30.8575 69.4503 30.4655C68.7466 30.0735 68.1674 29.4909 67.7789 28.7844H67.7188V35.0595H65.123V18.1993H67.6356V20.3065H67.6833C68.0897 19.6034 68.6788 19.0238 69.3878 18.6294C70.0968 18.235 70.8993 18.0406 71.7099 18.0668C74.9195 18.0668 77.0351 20.6085 77.0351 24.5345ZM74.3671 24.5345C74.3671 21.9696 73.044 20.2833 71.0252 20.2833C69.0419 20.2833 67.7079 22.0051 67.7079 24.5345C67.7079 27.0872 69.0419 28.7967 71.0252 28.7967C73.044 28.7967 74.3671 27.1227 74.3671 24.5345H74.3671Z" fill="white"/>
  <path d="M86.2343 26.0268C86.4266 27.75 88.0976 28.8814 90.3809 28.8814C92.5688 28.8814 94.1429 27.7499 94.1429 26.1962C94.1429 24.8474 93.1935 24.0398 90.9456 23.4864L88.6977 22.9439C85.5128 22.1731 84.0341 20.6809 84.0341 18.2594C84.0341 15.2613 86.6422 13.2019 90.3455 13.2019C94.0106 13.2019 96.5231 15.2613 96.6077 18.2594H93.9874C93.8305 16.5253 92.3997 15.4785 90.3086 15.4785C88.2176 15.4785 86.7867 16.5376 86.7867 18.079C86.7867 19.3075 87.7006 20.0304 89.9362 20.5838L91.8472 21.0539C95.4059 21.8971 96.8846 23.3292 96.8846 25.8709C96.8846 29.1219 94.2997 31.158 90.1886 31.158C86.342 31.158 83.7449 29.1697 83.5771 26.0267L86.2343 26.0268Z" fill="white"/>
  <path d="M102.486 15.2012V18.1993H104.891V20.2587H102.486V27.243C102.486 28.328 102.967 28.8336 104.024 28.8336C104.31 28.8286 104.595 28.8085 104.878 28.7734V30.8205C104.403 30.9095 103.92 30.9498 103.436 30.9408C100.876 30.9408 99.8777 29.9774 99.8777 27.5203V20.2587H98.0391V18.1993H99.8777V15.2012H102.486Z" fill="white"/>
  <path d="M106.284 24.5344C106.284 20.5483 108.628 18.0435 112.282 18.0435C115.948 18.0435 118.281 20.5482 118.281 24.5344C118.281 28.5315 115.961 31.0254 112.282 31.0254C108.604 31.0254 106.284 28.5315 106.284 24.5344ZM115.636 24.5344C115.636 21.8 114.385 20.1862 112.282 20.1862C110.178 20.1862 108.929 21.8123 108.929 24.5344C108.929 27.2798 110.178 28.8814 112.282 28.8814C114.385 28.8814 115.636 27.2798 115.636 24.5344H115.636Z" fill="white"/>
  <path d="M120.42 18.1992H122.896V20.3556H122.956C123.123 19.6821 123.517 19.0869 124.071 18.6701C124.625 18.2533 125.305 18.0402 125.997 18.0667C126.297 18.0656 126.595 18.0982 126.887 18.1637V20.5961C126.509 20.4805 126.115 20.4274 125.72 20.439C125.343 20.4236 124.967 20.4902 124.618 20.6342C124.27 20.7782 123.956 20.9961 123.699 21.273C123.442 21.5499 123.248 21.8793 123.13 22.2384C123.012 22.5976 122.973 22.9781 123.016 23.3537V30.8683H120.42L120.42 18.1992Z" fill="white"/>
  <path d="M138.856 27.1472C138.506 29.4471 136.271 31.0254 133.41 31.0254C129.732 31.0254 127.448 28.5561 127.448 24.5946C127.448 20.6207 129.744 18.0435 133.301 18.0435C136.8 18.0435 139 20.4513 139 24.2926V25.1835H130.069V25.3407C130.027 25.8069 130.086 26.2766 130.239 26.7186C130.393 27.1606 130.639 27.5647 130.961 27.9041C131.283 28.2435 131.673 28.5104 132.106 28.6872C132.538 28.8639 133.003 28.9464 133.47 28.9292C134.084 28.9868 134.699 28.8444 135.226 28.5234C135.752 28.2023 136.16 27.7197 136.391 27.1472L138.856 27.1472ZM130.081 23.3661H136.403C136.426 22.9468 136.363 22.5273 136.217 22.1338C136.07 21.7403 135.845 21.3813 135.553 21.0794C135.262 20.7775 134.912 20.5391 134.524 20.3793C134.137 20.2195 133.72 20.1416 133.301 20.1506C132.879 20.1481 132.46 20.2295 132.068 20.39C131.677 20.5506 131.322 20.7872 131.022 21.0861C130.723 21.3851 130.486 21.7404 130.324 22.1318C130.162 22.5231 130.08 22.9426 130.081 23.3661V23.3661Z" fill="white"/>
  <path d="M38.9059 0.411574C39.4501 0.37245 39.9962 0.454814 40.5048 0.652724C41.0133 0.850634 41.4717 1.15916 41.8469 1.55604C42.222 1.95292 42.5046 2.42827 42.6741 2.9478C42.8437 3.46732 42.8961 4.01808 42.8275 4.56034C42.8275 7.22779 41.3884 8.7611 38.9059 8.7611H35.8955V0.411574H38.9059ZM37.19 7.58029H38.7613C39.1502 7.60358 39.5393 7.5397 39.9004 7.39332C40.2616 7.24693 40.5856 7.02171 40.8488 6.73406C41.1121 6.4464 41.3081 6.10356 41.4224 5.73047C41.5367 5.35739 41.5666 4.96346 41.5098 4.57735C41.5625 4.19277 41.5296 3.80128 41.4135 3.43093C41.2974 3.06058 41.101 2.72054 40.8383 2.43518C40.5756 2.14981 40.2532 1.92619 39.8941 1.78033C39.535 1.63447 39.1482 1.56999 38.7613 1.5915H37.19V7.58029Z" fill="white"/>
  <path d="M44.2904 5.6076C44.2509 5.19352 44.2981 4.77572 44.4292 4.38102C44.5603 3.98631 44.7723 3.62341 45.0515 3.31558C45.3308 3.00776 45.6712 2.7618 46.0509 2.5935C46.4306 2.4252 46.8412 2.33826 47.2565 2.33826C47.6717 2.33826 48.0823 2.4252 48.462 2.5935C48.8417 2.7618 49.1821 3.00776 49.4614 3.31558C49.7407 3.62341 49.9526 3.98631 50.0837 4.38102C50.2148 4.77572 50.2621 5.19352 50.2225 5.6076C50.2628 6.02211 50.2161 6.44048 50.0854 6.83582C49.9546 7.23117 49.7428 7.59474 49.4635 7.90317C49.1841 8.2116 48.8435 8.45807 48.4634 8.62673C48.0833 8.7954 47.6722 8.88253 47.2565 8.88253C46.8408 8.88253 46.4296 8.7954 46.0496 8.62673C45.6695 8.45807 45.3288 8.2116 45.0495 7.90317C44.7701 7.59474 44.5583 7.23117 44.4276 6.83582C44.2968 6.44048 44.2501 6.02211 44.2904 5.6076ZM48.9458 5.6076C48.9458 4.24176 48.3333 3.44303 47.2585 3.44303C46.1796 3.44303 45.5726 4.24177 45.5726 5.60761C45.5726 6.98439 46.1796 7.77697 47.2585 7.77697C48.3334 7.77695 48.9458 6.97891 48.9458 5.6076H48.9458Z" fill="white"/>
  <path d="M58.1074 8.76064H56.8198L55.5199 4.11992H55.4217L54.1272 8.76064H52.8518L51.1182 2.45959H52.3772L53.5038 7.26766H53.5966L54.8897 2.45959H56.0805L57.3736 7.26766H57.4718L58.593 2.45959H59.8343L58.1074 8.76064Z" fill="white"/>
  <path d="M61.292 2.45962H62.4869V3.46059H62.5796C62.737 3.10108 63.0024 2.79971 63.3388 2.59848C63.6753 2.39724 64.066 2.30618 64.4565 2.33799C64.7626 2.31494 65.0698 2.36117 65.3556 2.47325C65.6414 2.58533 65.8983 2.76039 66.1074 2.98546C66.3165 3.21053 66.4723 3.47985 66.5634 3.77345C66.6545 4.06706 66.6784 4.37743 66.6335 4.68157V8.76059H65.3923V4.99385C65.3923 3.98126 64.953 3.47768 64.035 3.47768C63.8273 3.46799 63.6199 3.50341 63.427 3.58154C63.2342 3.65966 63.0605 3.77864 62.9179 3.9303C62.7752 4.08197 62.667 4.26274 62.6006 4.46022C62.5342 4.65771 62.5112 4.86724 62.5332 5.07446V8.76066H61.292L61.292 2.45962Z" fill="white"/>
  <path d="M68.6113 0H69.8526V8.76078H68.6113V0Z" fill="white"/>
  <path d="M71.5784 5.60772C71.5389 5.1936 71.5863 4.77579 71.7174 4.38107C71.8485 3.98635 72.0605 3.62343 72.3398 3.3156C72.6191 3.00777 72.9595 2.76181 73.3392 2.5935C73.719 2.4252 74.1296 2.33826 74.5449 2.33826C74.9601 2.33826 75.3708 2.4252 75.7505 2.5935C76.1302 2.76181 76.4707 3.00777 76.75 3.3156C77.0293 3.62343 77.2412 3.98635 77.3723 4.38107C77.5035 4.77579 77.5508 5.1936 77.5113 5.60772C77.5515 6.02224 77.5047 6.44062 77.374 6.83596C77.2432 7.2313 77.0313 7.59486 76.752 7.90328C76.4726 8.21171 76.1319 8.45816 75.7518 8.62682C75.3717 8.79548 74.9606 8.88261 74.5449 8.88261C74.1291 8.88261 73.718 8.79548 73.3379 8.62682C72.9578 8.45816 72.6171 8.21171 72.3378 7.90328C72.0584 7.59486 71.8465 7.2313 71.7157 6.83596C71.585 6.44062 71.5382 6.02224 71.5784 5.60772ZM76.2338 5.60772C76.2338 4.24188 75.6214 3.44315 74.5466 3.44315C73.4676 3.44315 72.8607 4.24188 72.8607 5.60773C72.8607 6.98451 73.4677 7.77708 74.5466 7.77708C75.6214 7.77707 76.2339 6.97902 76.2339 5.60772H76.2338Z" fill="white"/>
  <path d="M78.8174 6.97896C78.8174 5.84474 79.6604 5.19087 81.1567 5.09794L82.8604 4.99956V4.45568C82.8604 3.79018 82.4211 3.41439 81.5727 3.41439C80.8798 3.41439 80.3997 3.66925 80.2619 4.11474H79.0602C79.187 3.03245 80.2032 2.33826 81.63 2.33826C83.2068 2.33826 84.0962 3.12468 84.0962 4.45568V8.76091H82.9013V7.87541H82.8031C82.6037 8.19304 82.3238 8.45199 81.9919 8.6258C81.66 8.79961 81.288 8.88206 80.9139 8.86473C80.6499 8.89224 80.383 8.86402 80.1305 8.78188C79.878 8.69975 79.6455 8.56551 79.448 8.38784C79.2505 8.21017 79.0923 7.99301 78.9837 7.75034C78.8751 7.50768 78.8184 7.24491 78.8174 6.97896ZM82.8604 6.44055V5.91376L81.3245 6.01215C80.4583 6.07022 80.0655 6.36539 80.0655 6.92088C80.0655 7.48798 80.5565 7.818 81.2317 7.818C81.4296 7.83806 81.6294 7.81805 81.8194 7.75915C82.0094 7.70025 82.1856 7.60367 82.3375 7.47516C82.4895 7.34664 82.6141 7.18882 82.7039 7.01108C82.7937 6.83334 82.8469 6.63931 82.8604 6.44055Z" fill="white"/>
  <path d="M85.7285 5.60756C85.7285 3.61653 86.7502 2.35523 88.3393 2.35523C88.7323 2.33708 89.1224 2.4314 89.464 2.62716C89.8055 2.82291 90.0844 3.11202 90.268 3.46069H90.3607V0H91.602V8.76079H90.4126V7.76527H90.3144C90.1166 8.11159 89.828 8.3971 89.4798 8.59088C89.1317 8.78466 88.7373 8.87933 88.3393 8.86463C86.7393 8.8647 85.7285 7.60337 85.7285 5.60756ZM87.0107 5.60756C87.0107 6.94402 87.6396 7.74822 88.6912 7.74822C89.7374 7.74822 90.384 6.93242 90.384 5.61303C90.384 4.29979 89.7306 3.47236 88.6912 3.47236C87.6463 3.47236 87.0107 4.28202 87.0107 5.60756H87.0107Z" fill="white"/>
  <path d="M96.7367 5.6076C96.6971 5.19352 96.7444 4.77572 96.8755 4.38102C97.0066 3.98631 97.2185 3.62341 97.4978 3.31558C97.7771 3.00776 98.1175 2.7618 98.4972 2.5935C98.8769 2.4252 99.2875 2.33826 99.7028 2.33826C100.118 2.33826 100.529 2.4252 100.908 2.5935C101.288 2.7618 101.628 3.00776 101.908 3.31558C102.187 3.62341 102.399 3.98631 102.53 4.38102C102.661 4.77572 102.708 5.19352 102.669 5.6076C102.709 6.02211 102.662 6.44048 102.532 6.83582C102.401 7.23117 102.189 7.59474 101.91 7.90317C101.63 8.2116 101.29 8.45807 100.91 8.62673C100.53 8.7954 100.118 8.88253 99.7028 8.88253C99.287 8.88253 98.8759 8.7954 98.4958 8.62673C98.1157 8.45807 97.7751 8.2116 97.4957 7.90317C97.2164 7.59474 97.0046 7.23117 96.8738 6.83582C96.7431 6.44048 96.6964 6.02211 96.7367 5.6076ZM101.392 5.6076C101.392 4.24176 100.78 3.44303 99.7048 3.44303C98.6259 3.44303 98.0189 4.24177 98.0189 5.60761C98.0189 6.98439 98.6259 7.77697 99.7048 7.77697C100.78 7.77695 101.392 6.97891 101.392 5.6076Z" fill="white"/>
  <path d="M104.335 2.45962H105.53V3.46059H105.623C105.78 3.10108 106.045 2.79971 106.382 2.59848C106.718 2.39724 107.109 2.30618 107.5 2.33799C107.806 2.31494 108.113 2.36117 108.399 2.47325C108.684 2.58533 108.941 2.76039 109.15 2.98546C109.359 3.21053 109.515 3.47985 109.606 3.77345C109.697 4.06706 109.721 4.37743 109.676 4.68157V8.76059H108.435V4.99385C108.435 3.98126 107.996 3.47768 107.078 3.47768C106.87 3.46799 106.663 3.50341 106.47 3.58154C106.277 3.65966 106.103 3.77864 105.961 3.9303C105.818 4.08197 105.71 4.26274 105.644 4.46022C105.577 4.65771 105.554 4.86724 105.576 5.07446V8.76066H104.335V2.45962Z" fill="white"/>
  <path d="M116.69 0.890991V2.48846H118.053V3.5359H116.69V6.77593C116.69 7.43597 116.962 7.72498 117.58 7.72498C117.738 7.72447 117.896 7.71489 118.053 7.69628V8.7321C117.83 8.77205 117.604 8.79331 117.378 8.79564C115.997 8.79564 115.448 8.30916 115.448 7.09432V3.53585H114.449V2.4884H115.448V0.890991H116.69Z" fill="white"/>
  <path d="M119.748 0H120.978V3.47234H121.077C121.242 3.10947 121.514 2.80639 121.857 2.6044C122.201 2.40241 122.598 2.31134 122.994 2.3436C123.299 2.327 123.603 2.37792 123.886 2.49272C124.168 2.60753 124.422 2.78338 124.629 3.00775C124.836 3.23211 124.991 3.49945 125.083 3.7907C125.174 4.08195 125.201 4.38992 125.16 4.69265V8.7608H123.918V4.99942C123.918 3.99298 123.45 3.48326 122.573 3.48326C122.36 3.46573 122.145 3.49511 121.944 3.56935C121.743 3.64359 121.561 3.76089 121.41 3.91305C121.26 4.06521 121.144 4.24855 121.071 4.45024C120.998 4.65194 120.97 4.86712 120.989 5.08072V8.76077H119.748L119.748 0Z" fill="white"/>
  <path d="M132.398 7.0597C132.229 7.63558 131.864 8.13371 131.365 8.46696C130.867 8.80021 130.268 8.94735 129.672 8.88264C129.258 8.8936 128.846 8.81409 128.466 8.64962C128.085 8.48516 127.745 8.2397 127.468 7.93025C127.192 7.62081 126.986 7.25481 126.865 6.85765C126.744 6.46049 126.71 6.04169 126.767 5.63032C126.712 5.21768 126.746 4.79798 126.867 4.39963C126.987 4.00128 127.192 3.63359 127.467 3.32144C127.742 3.00929 128.081 2.75997 128.46 2.59036C128.84 2.42075 129.251 2.33481 129.667 2.33836C131.417 2.33836 132.473 3.53618 132.473 5.51482V5.94874H128.031V6.01842C128.012 6.24965 128.041 6.4824 128.117 6.70175C128.192 6.92109 128.313 7.12219 128.47 7.29214C128.628 7.4621 128.82 7.59716 129.032 7.68867C129.245 7.78018 129.475 7.82612 129.707 7.82355C130.003 7.85926 130.304 7.80569 130.571 7.66967C130.837 7.53365 131.057 7.32131 131.203 7.05966L132.398 7.0597ZM128.031 5.02905H131.208C131.224 4.81757 131.195 4.60515 131.124 4.40545C131.053 4.20574 130.941 4.02315 130.795 3.86943C130.649 3.7157 130.473 3.59423 130.277 3.51283C130.082 3.43142 129.872 3.39188 129.66 3.39674C129.445 3.39404 129.232 3.43442 129.034 3.5155C128.835 3.59658 128.654 3.71673 128.502 3.86885C128.35 4.02098 128.231 4.202 128.15 4.40126C128.069 4.60052 128.029 4.81397 128.031 5.02905H128.031Z" fill="white"/>
</svg>
