<svg viewBox="0 0 211 28" fill="none" xmlns="http://www.w3.org/2000/svg">
  <g clip-path="url(#clip0_848_3059)">
    <path d="M8.1846 12.6615C8.10826 12.5597 8.00744 12.4797 7.8919 12.4291C7.77634 12.3787 7.64996 12.3594 7.52498 12.3733C7.4 12.3871 7.28062 12.4336 7.17841 12.5082C7.0762 12.5828 6.9946 12.6831 6.94148 12.7992L0.642457 25.638C0.585075 25.7549 0.557981 25.885 0.563749 26.0157C0.569519 26.1463 0.607959 26.2734 0.67542 26.3847C0.74288 26.496 0.837123 26.5878 0.949201 26.6515C1.06128 26.7152 1.18747 26.7487 1.31579 26.7487H10.0869C10.2274 26.752 10.3658 26.7137 10.4853 26.6383C10.6048 26.5631 10.7003 26.454 10.7602 26.3244C12.6523 22.3388 11.5056 16.2787 8.1846 12.6615Z" fill="black"/>
    <path d="M12.8048 0.984134C11.2352 3.44605 10.3206 6.28168 10.1506 9.21273C9.98053 12.1438 10.561 15.0696 11.8349 17.7028L16.0636 26.3244C16.1261 26.4519 16.2222 26.5591 16.3411 26.634C16.4601 26.7089 16.5971 26.7487 16.7369 26.7487H25.5065C25.6347 26.7487 25.7609 26.7152 25.873 26.6515C25.9851 26.5878 26.0793 26.4959 26.1468 26.3847C26.2142 26.2734 26.2527 26.1464 26.2584 26.0157C26.2642 25.885 26.2371 25.7549 26.1798 25.6379C26.1798 25.6379 14.3818 1.58103 14.0853 0.979317C14.0266 0.856837 13.9353 0.753683 13.8219 0.681686C13.7084 0.60969 13.5772 0.571768 13.4436 0.572271C13.3098 0.572773 13.179 0.611681 13.066 0.68453C12.9531 0.757377 12.8625 0.861217 12.8048 0.984134Z" fill="black"/>
    <path d="M115.667 11.2785C115.667 14.4577 117.114 16.9818 122.773 18.096C126.149 18.8186 126.856 19.3741 126.856 20.5214C126.856 21.6357 126.146 22.3571 123.769 22.3571C120.895 22.3043 118.078 21.5274 115.57 20.0955V25.2737C117.275 26.1259 119.524 27.0765 123.705 27.0765C129.621 27.0765 131.968 24.3869 131.968 20.3902L115.667 11.2785ZM131.968 20.3902C131.968 16.6209 130.006 14.8506 124.476 13.6384C121.422 12.95 120.683 12.262 120.683 11.2785C120.683 10.0341 121.775 9.50869 123.801 9.50869C126.245 9.50869 128.656 10.2625 130.938 11.3114V6.36204C128.75 5.34645 126.367 4.84257 123.961 4.88725C118.496 4.88725 115.667 7.31258 115.667 11.2785" fill="black"/>
    <path d="M191.67 5.21509V26.7491H196.171V10.3283L198.068 14.6872L204.434 26.7491H210.093V5.21509H205.591V19.1124L203.887 15.0806L198.775 5.21509H191.67Z" fill="black"/>
    <path d="M163.041 5.21509H158.122V26.7491H163.041V5.21509Z" fill="black"/>
    <path d="M152.445 20.3902C152.445 16.6209 150.484 14.8506 144.953 13.6384C141.9 12.95 141.16 12.262 141.16 11.2785C141.16 10.0341 142.252 9.50869 144.278 9.50869C146.722 9.50869 149.133 10.2625 151.416 11.3114V6.36204C149.227 5.34645 146.843 4.84257 144.439 4.88725C138.973 4.88725 136.144 7.31258 136.144 11.2785C136.144 14.4577 137.591 16.9818 143.249 18.096C146.626 18.8186 147.333 19.3741 147.333 20.5214C147.333 21.6357 146.624 22.3571 144.246 22.3571C141.372 22.3043 138.555 21.5274 136.048 20.0955V25.2737C137.751 26.1259 140.002 27.0765 144.182 27.0765C150.098 27.0765 152.445 24.3869 152.445 20.3902Z" fill="black"/>
    <path d="M77.4521 5.21509V26.7491H87.5633L89.1553 22.0948H82.4034V5.21509H77.4521Z" fill="black"/>
    <path d="M57.4751 5.21509V9.86904H62.9409V26.7491H67.8922V9.86904H73.7439V5.21509H57.4751Z" fill="black"/>
    <path d="M50.2969 5.21509H43.808L36.4419 26.7491H42.0672L43.1115 23.1224C45.6833 23.8923 48.418 23.8923 50.9899 23.1224L52.0341 26.7491H57.6606L50.2969 5.21509ZM47.0523 19.2392C46.1359 19.2391 45.2243 19.1055 44.3451 18.8422L47.0523 9.44476L49.7594 18.8454C48.88 19.1076 47.9684 19.2401 47.0523 19.2392Z" fill="black"/>
    <path d="M104.995 5.21509H98.5063L91.1401 26.7491H96.7666L97.8109 23.1224C100.383 23.8923 103.117 23.8923 105.689 23.1224L106.734 26.7491H112.36L104.995 5.21509ZM101.751 19.2392C100.834 19.2391 99.9225 19.1055 99.0434 18.8422L101.751 9.44476L104.458 18.8454C103.578 19.1076 102.667 19.2401 101.751 19.2392Z" fill="black"/>
    <path d="M180.768 5.21509H174.28L166.914 26.7491H172.539L173.584 23.1224C176.155 23.8923 178.89 23.8923 181.462 23.1224L182.506 26.7491H188.133L180.768 5.21509ZM177.521 19.2392C176.606 19.2391 175.694 19.1055 174.814 18.8422L177.521 9.44476L180.229 18.8454C179.35 19.1076 178.438 19.2401 177.521 19.2392Z" fill="black"/>
  </g>
  <defs>
    <clipPath id="clip0_848_3059">
      <rect width="211" height="28" fill="white" transform="translate(0 0.000976562)"/>
    </clipPath>
  </defs>
</svg>
