<svg viewBox="0 0 90 34" fill="none" xmlns="http://www.w3.org/2000/svg">
  <path d="M21.806 12.466L20.714 12.298V11.598H22.548C22.8373 11.598 23.2527 11.5793 23.794 11.542C24.3353 11.5047 24.7413 11.486 25.012 11.486C26.748 11.486 28.036 11.9247 28.876 12.802C29.7253 13.67 30.15 14.8927 30.15 16.47C30.15 17.5713 29.9307 18.5513 29.492 19.41C29.0627 20.2593 28.456 20.922 27.672 21.398C26.888 21.874 25.9873 22.112 24.97 22.112C24.746 22.112 24.3633 22.0933 23.822 22.056C23.262 22.0187 22.842 22 22.562 22H20.644V21.314L21.806 21.174V12.466ZM23.29 21.216C23.6167 21.2907 24.0367 21.328 24.55 21.328H24.97C25.67 21.3187 26.286 21.1413 26.818 20.796C27.3593 20.4507 27.7793 19.9373 28.078 19.256C28.3767 18.5653 28.526 17.73 28.526 16.75C28.526 15.2753 28.204 14.1553 27.56 13.39C26.9253 12.6247 25.964 12.242 24.676 12.242C24.4053 12.242 24.0833 12.2607 23.71 12.298C23.5513 12.326 23.4113 12.34 23.29 12.34V21.216ZM31.2394 18.094C31.2394 17.254 31.412 16.526 31.7574 15.91C32.1027 15.294 32.5554 14.8273 33.1154 14.51C33.6847 14.1833 34.2914 14.02 34.9354 14.02C36.1114 14.02 36.9934 14.3933 37.5814 15.14C38.1787 15.8867 38.4774 16.8667 38.4774 18.08C38.4774 18.9293 38.3047 19.662 37.9594 20.278C37.614 20.894 37.1567 21.3607 36.5874 21.678C36.0274 21.9953 35.4254 22.154 34.7814 22.154C33.6054 22.154 32.7187 21.7807 32.1214 21.034C31.5334 20.2873 31.2394 19.3073 31.2394 18.094ZM34.8654 21.356C35.5094 21.356 36.004 21.09 36.3494 20.558C36.6947 20.026 36.8674 19.2373 36.8674 18.192C36.8674 17.156 36.7087 16.3347 36.3914 15.728C36.074 15.1213 35.5654 14.818 34.8654 14.818C34.2214 14.818 33.722 15.084 33.3674 15.616C33.022 16.148 32.8494 16.9367 32.8494 17.982C32.8494 19.018 33.0127 19.8393 33.3394 20.446C33.666 21.0527 34.1747 21.356 34.8654 21.356ZM40.597 15.308L39.589 15.056V14.3L41.591 14.048H41.633L41.927 14.3V14.888L41.913 15.224C42.249 14.9253 42.6923 14.6547 43.243 14.412C43.7936 14.1693 44.321 14.048 44.825 14.048C45.413 14.048 45.8656 14.16 46.183 14.384C46.5096 14.608 46.7383 14.9533 46.869 15.42C46.9996 15.8773 47.065 16.498 47.065 17.282V21.202L48.045 21.3V22H44.727V21.314L45.595 21.202V17.268C45.595 16.7173 45.5576 16.288 45.483 15.98C45.4083 15.6627 45.2683 15.4293 45.063 15.28C44.8576 15.1213 44.559 15.042 44.167 15.042C43.831 15.042 43.4716 15.126 43.089 15.294C42.7063 15.462 42.3656 15.658 42.067 15.882V21.188L43.019 21.314V22H39.715V21.314L40.597 21.188V15.308ZM49.0538 19.9C49.0538 19.0227 49.4925 18.3787 50.3698 17.968C51.2472 17.548 52.3578 17.324 53.7018 17.296V16.904C53.7018 16.4653 53.6552 16.12 53.5618 15.868C53.4685 15.616 53.3052 15.434 53.0718 15.322C52.8478 15.2007 52.5258 15.14 52.1058 15.14C51.6298 15.14 51.2005 15.21 50.8178 15.35C50.4445 15.4807 50.0712 15.644 49.6978 15.84L49.3478 15.112C49.4692 15.0093 49.6932 14.874 50.0198 14.706C50.3465 14.538 50.7245 14.3887 51.1538 14.258C51.5832 14.1273 52.0125 14.062 52.4418 14.062C53.1045 14.062 53.6272 14.1553 54.0098 14.342C54.4018 14.5193 54.6818 14.8087 54.8498 15.21C55.0178 15.6113 55.1018 16.148 55.1018 16.82V21.314H55.9278V21.93C55.7412 21.9767 55.5032 22.0233 55.2138 22.07C54.9338 22.1167 54.6865 22.14 54.4718 22.14C54.2105 22.14 54.0332 22.098 53.9398 22.014C53.8465 21.9393 53.7998 21.7667 53.7998 21.496V21.034C53.5198 21.314 53.1745 21.5707 52.7638 21.804C52.3625 22.0373 51.9052 22.154 51.3918 22.154C50.7198 22.154 50.1598 21.9627 49.7118 21.58C49.2732 21.188 49.0538 20.628 49.0538 19.9ZM51.9938 21.202C52.2365 21.202 52.5165 21.1273 52.8338 20.978C53.1512 20.8287 53.4405 20.6513 53.7018 20.446V18.038C52.6845 18.038 51.9145 18.1967 51.3918 18.514C50.8785 18.822 50.6218 19.228 50.6218 19.732C50.6218 20.236 50.7432 20.6093 50.9858 20.852C51.2378 21.0853 51.5738 21.202 51.9938 21.202ZM59.2955 22.14C58.7635 22.14 58.3668 22.0187 58.1055 21.776C57.8442 21.5333 57.7135 21.118 57.7135 20.53V15.154H56.7055V14.524C56.7522 14.5147 56.8828 14.482 57.0975 14.426C57.3122 14.37 57.4568 14.3187 57.5315 14.272C57.6808 14.188 57.7975 14.02 57.8815 13.768C57.9562 13.5907 58.0448 13.306 58.1475 12.914C58.2502 12.522 58.3108 12.2887 58.3295 12.214H59.1555L59.1835 14.23H61.5215V15.154H59.1835V19.452C59.1835 19.984 59.1975 20.3573 59.2255 20.572C59.2628 20.7867 59.3328 20.9267 59.4355 20.992C59.5475 21.0573 59.7342 21.09 59.9955 21.09C60.2475 21.09 60.5228 21.0573 60.8215 20.992C61.1295 20.9267 61.3675 20.8567 61.5355 20.782L61.7455 21.412C61.5215 21.58 61.1575 21.7433 60.6535 21.902C60.1588 22.0607 59.7062 22.14 59.2955 22.14ZM66.0467 22.154C64.9173 22.154 64.054 21.7853 63.4567 21.048C62.8687 20.3107 62.5747 19.326 62.5747 18.094C62.5747 17.282 62.7287 16.568 63.0367 15.952C63.3447 15.336 63.774 14.86 64.3247 14.524C64.8847 14.188 65.5193 14.02 66.2287 14.02C67.0967 14.02 67.7687 14.2627 68.2447 14.748C68.73 15.224 68.9867 15.91 69.0147 16.806C69.0147 17.3753 68.982 17.8093 68.9167 18.108H64.1007C64.1193 19.032 64.334 19.7787 64.7447 20.348C65.1553 20.908 65.7387 21.188 66.4947 21.188C66.868 21.188 67.2553 21.1227 67.6567 20.992C68.0673 20.852 68.3847 20.6887 68.6087 20.502L68.8747 21.118C68.604 21.398 68.2027 21.6407 67.6707 21.846C67.1387 22.0513 66.5973 22.154 66.0467 22.154ZM67.4747 17.366C67.5027 17.17 67.5167 16.9693 67.5167 16.764C67.5073 16.1573 67.3767 15.6813 67.1247 15.336C66.882 14.9813 66.4947 14.804 65.9627 14.804C65.4213 14.804 64.9873 15 64.6607 15.392C64.3433 15.784 64.1613 16.442 64.1147 17.366H67.4747Z" fill="#FCFCFC"/>
  <rect x="1" y="1" width="88" height="32" rx="16" stroke="url(#paint0_linear_579_2)" stroke-width="2"/>
  <defs>
    <linearGradient id="paint0_linear_579_2" x1="3.38262" y1="31.1386" x2="54.9527" y2="-38.8428" gradientUnits="userSpaceOnUse">
      <stop stop-color="#F6C54B"/>
      <stop offset="0.25" stop-color="#F8D565"/>
      <stop offset="0.520833" stop-color="#B8CFA5"/>
      <stop offset="0.770833" stop-color="#439DD1"/>
      <stop offset="1" stop-color="#1179E7"/>
    </linearGradient>
  </defs>
</svg>
