<svg viewBox="0 0 551 99" fill="none" xmlns="http://www.w3.org/2000/svg">
  <path d="M545.273 18.9314C535.139 3.13167 512.744 -5.23173 495.847 5.91275C489.365 10.2053 482.863 14.4978 476.381 18.7702C470.401 14.8203 464.421 10.8502 458.441 6.90024C448.407 0.249826 431.992 -0.0121599 421.978 6.90024C416.279 10.83 410.58 14.78 404.881 18.7098C398.219 14.4374 391.536 10.165 384.874 5.91275C374.519 -0.717506 358.746 -0.919034 348.411 5.91275L329.126 18.6493C323.086 14.5583 317.046 10.4874 310.985 6.39642C300.791 -0.475674 284.737 -0.213687 274.523 6.39642C268.101 10.568 261.66 14.7195 255.238 18.8911C249.198 14.9009 243.157 10.8905 237.117 6.90024C227.083 0.249826 210.668 -0.0121599 200.654 6.90024C194.955 10.83 189.256 14.78 183.557 18.7098C176.895 14.4374 170.212 10.165 163.55 5.91275C153.195 -0.717506 137.422 -0.919034 127.087 5.91275C120.605 10.2053 114.103 14.4978 107.622 18.7702C101.642 14.8203 95.6614 10.8502 89.6813 6.90024C79.6476 0.269979 63.2324 -0.0121599 53.2187 6.92039C41.6799 14.9009 30.1411 22.8814 18.6023 30.8619C3.0701 41.5831 -5.45857 63.1667 5.63874 80.478C15.5922 95.9956 38.4089 105.004 55.0649 93.4967C60.6637 89.6273 66.2626 85.758 71.8413 81.8887C77.681 85.758 83.5407 89.6273 89.3803 93.4967C99.5746 100.248 115.629 100.248 125.843 93.4967C132.425 89.1437 139.027 84.7907 145.609 80.4377C152.412 84.7907 159.215 89.1437 166.038 93.4967C176.212 100.006 192.367 100.49 202.501 93.4967C208.099 89.6273 213.698 85.758 219.277 81.8887C225.117 85.758 230.976 89.6273 236.816 93.4967C247.09 100.308 262.984 100.167 273.279 93.4967C279.64 89.3653 286.001 85.2542 292.383 81.1229C298.483 85.2542 304.584 89.3653 310.704 93.4967C320.818 100.328 337.033 100.187 347.167 93.4967C353.749 89.1437 360.351 84.7907 366.933 80.4377C373.736 84.7907 380.539 89.1437 387.362 93.4967C397.536 100.006 413.691 100.49 423.825 93.4967C429.424 89.6273 435.022 85.758 440.601 81.8887C446.441 85.758 452.3 89.6273 458.14 93.4967C468.334 100.248 484.388 100.248 494.603 93.4967C507.165 85.1937 519.747 76.8706 532.309 68.5677C548.062 58.1487 556.23 36.0008 545.273 18.9314Z" fill="currentColor"/>
</svg>
