<svg width="739" height="87" viewBox="0 0 739 87" fill="none" xmlns="http://www.w3.org/2000/svg">
  <path d="M476.548 16.6918C467.682 2.86824 448.088 -4.4491 433.304 5.30148C427.633 9.05713 421.944 12.8128 416.273 16.5508C411.041 13.0949 405.809 9.62136 400.577 6.16545C391.798 0.346844 377.436 0.117626 368.675 6.16545C363.689 9.60372 358.702 13.0596 353.716 16.4979C347.887 12.7599 342.04 9.02186 336.211 5.30148C327.151 -0.499499 313.351 -0.67582 304.309 5.30148L287.436 16.445C282.151 12.8657 276.867 9.30398 271.564 5.72465C262.645 -0.287913 248.599 -0.058695 239.662 5.72465C234.044 9.37451 228.408 13.0067 222.789 16.6566C217.505 13.1654 212.22 9.65662 206.935 6.16545C198.156 0.346844 183.794 0.117626 175.033 6.16545C170.047 9.60372 165.06 13.0596 160.074 16.4979C154.245 12.7599 148.398 9.02186 142.569 5.30148C133.509 -0.499499 119.709 -0.67582 110.667 5.30148C104.996 9.05713 99.3074 12.8128 93.6364 16.5508C88.4042 13.0949 83.1721 9.62136 77.9399 6.16545C69.1612 0.364477 54.7991 0.117626 46.0379 6.18309C35.9423 13.1654 25.8468 20.1477 15.7512 27.1301C2.16167 36.5104 -5.30028 55.3944 4.40903 70.5404C13.1176 84.1172 33.0805 91.9988 47.6532 81.9308C52.5518 78.5454 57.4503 75.1601 62.3313 71.7747C67.4405 75.1601 72.5673 78.5454 77.6766 81.9308C86.5958 87.8376 100.642 87.8376 109.579 81.9308C115.337 78.1223 121.114 74.3137 126.873 70.5052C132.825 74.3137 138.777 78.1223 144.746 81.9308C153.648 87.626 167.782 88.0492 176.648 81.9308C181.547 78.5454 186.445 75.1601 191.326 71.7747C196.436 75.1601 201.562 78.5454 206.672 81.9308C215.661 87.8905 229.567 87.767 238.574 81.9308C244.139 78.3162 249.705 74.7192 255.288 71.1047C260.626 74.7192 265.963 78.3162 271.318 81.9308C280.167 87.9081 294.354 87.7847 303.22 81.9308C308.979 78.1223 314.756 74.3137 320.515 70.5052C326.467 74.3137 332.419 78.1223 338.388 81.9308C347.29 87.626 361.424 88.0492 370.29 81.9308C375.189 78.5454 380.087 75.1601 384.968 71.7747C390.078 75.1601 395.204 78.5454 400.314 81.9308C409.233 87.8376 423.279 87.8376 432.216 81.9308C443.207 74.6664 454.215 67.3843 465.206 60.1198C478.989 51.004 486.135 31.6263 476.548 16.6918Z" fill="currentColor"/>
  <path d="M734.127 16.6916C725.26 2.868 705.666 -4.44934 690.883 5.30123C685.211 9.05688 679.523 12.8125 673.852 16.5505C668.62 13.0946 663.387 9.62111 658.155 6.16521C649.377 0.3466 635.014 0.117382 626.253 6.16521C621.267 9.60348 616.281 13.0594 611.294 16.4977C605.465 12.7596 599.619 9.02162 593.789 5.30123C584.73 -0.499743 570.93 -0.676065 561.887 5.30123L545.015 16.4448C539.73 12.8654 534.445 9.30373 529.143 5.72441C520.223 -0.288157 506.177 -0.0589392 497.241 5.72441C491.622 9.37426 485.986 13.0065 480.368 16.6563C475.083 13.1652 469.798 9.65637 464.513 6.16521C455.735 0.3466 441.373 0.117382 432.611 6.16521C427.625 9.60348 422.639 13.0594 417.652 16.4977C411.823 12.7596 405.977 9.02162 400.148 5.30123C391.088 -0.499743 377.288 -0.676065 368.246 5.30123C362.574 9.05688 356.886 12.8125 351.215 16.5505C345.983 13.0946 340.75 9.62111 335.518 6.16521C326.74 0.364232 312.377 0.117382 303.616 6.18284C293.521 13.1652 283.425 20.1475 273.33 27.1298C259.74 36.5101 252.278 55.3942 261.987 70.5402C270.696 84.1169 290.659 91.9985 305.232 81.9306C310.13 78.5452 315.029 75.1598 319.91 71.7744C325.019 75.1598 330.146 78.5452 335.255 81.9306C344.174 87.8373 358.22 87.8373 367.157 81.9306C372.916 78.122 378.692 74.3135 384.451 70.5049C390.403 74.3135 396.355 78.122 402.325 81.9306C411.226 87.6257 425.36 88.0489 434.227 81.9306C439.125 78.5452 444.024 75.1598 448.905 71.7744C454.014 75.1598 459.141 78.5452 464.25 81.9306C473.24 87.8902 487.145 87.7668 496.152 81.9306C501.718 78.316 507.284 74.719 512.867 71.1044C518.204 74.719 523.542 78.316 528.897 81.9306C537.746 87.9079 551.932 87.7844 560.799 81.9306C566.558 78.122 572.334 74.3135 578.093 70.5049C584.045 74.3135 589.997 78.122 595.967 81.9306C604.868 87.6257 619.002 88.0489 627.869 81.9306C632.767 78.5452 637.666 75.1598 642.547 71.7744C647.656 75.1598 652.783 78.5452 657.892 81.9306C666.811 87.8373 680.857 87.8373 689.794 81.9306C700.785 74.6661 711.794 67.384 722.785 60.1196C736.567 51.0038 743.713 31.626 734.127 16.6916Z" fill="currentColor"/>
</svg>
