<svg width="48" height="48" viewBox="0 0 48 48" fill="none" xmlns="http://www.w3.org/2000/svg">
  <path fill-rule="evenodd" clip-rule="evenodd" d="M6 8C4.89543 8 4 8.89543 4 10V38C4 39.1046 4.89543 40 6 40H42C43.1046 40 44 39.1046 44 38V10C44 8.89543 43.1046 8 42 8H6ZM11.3016 16.4815C10.463 15.7627 9.20038 15.8598 8.48153 16.6984C7.76268 17.5371 7.8598 18.7997 8.69845 19.5185L22.6983 31.5185C23.4473 32.1605 24.5525 32.1605 25.3015 31.5185L39.3015 19.5185C40.1402 18.7997 40.2373 17.5371 39.5184 16.6985C38.7996 15.8598 37.537 15.7627 36.6983 16.4815L23.9999 27.3659L11.3016 16.4815Z" fill="#3BBBE9"/>
</svg>
