<?xml version="1.0" encoding="utf-8"?>
<!-- Generator: Adobe Illustrator 24.3.0, SVG Export Plug-In . SVG Version: 6.00 Build 0)  -->
<svg version="1.1" xmlns="http://www.w3.org/2000/svg" xmlns:xlink="http://www.w3.org/1999/xlink" x="0px" y="0px"
	 viewBox="0 0 14 15" style="enable-background:new 0 0 14 15;"  width="30" height="30" xml:space="preserve">
<g>
	<path d="M7.4,6.1C7.3,6,7.2,6,7.1,6c-0.2,0-0.4,0-0.5,0.1C6.4,6.2,6.3,6.3,6.2,6.5C6.1,6.6,6,6.8,5.9,7.1
		C5.9,7.3,5.8,7.5,5.8,7.8c0,0.2,0,0.4,0,0.6c0,0.2,0.1,0.3,0.1,0.4C6,8.9,6,9,6.1,9.1c0.1,0.1,0.2,0.1,0.3,0.1c0.1,0,0.1,0,0.2,0
		c0.1,0,0.1-0.1,0.2-0.2C6.9,8.9,7,8.8,7.1,8.6c0-0.1,0.1-0.2,0.1-0.3L7.4,6.1z"/>
	<path d="M12.3,2C11.4,1,9.9,1,6.9,1H6.4C3.4,1,1.9,1,0.9,2S0,4.4,0,7.4v0.5c0,3,0,4.5,0.9,5.4c0.9,0.9,2.4,0.9,5.4,0.9
		h0.5c3,0,4.5,0,5.4-0.9c0.9-0.9,0.9-2.4,0.9-5.4V7.4C13.3,4.4,13.3,2.9,12.3,2z M10.6,8.3c-0.1,0.3-0.2,0.6-0.4,0.9
		c-0.2,0.3-0.4,0.5-0.7,0.7c-0.3,0.2-0.6,0.2-1,0.2c-0.2,0-0.4,0-0.6-0.1C7.8,9.9,7.6,9.8,7.5,9.7C7.4,9.6,7.4,9.5,7.3,9.4
		C7.3,9.5,7.2,9.6,7.1,9.7C6.9,9.8,6.8,9.9,6.6,10c-0.2,0.1-0.4,0.1-0.6,0.1c-0.2,0-0.5-0.1-0.7-0.2C5.2,9.8,5,9.7,4.9,9.5
		C4.7,9.3,4.7,9,4.6,8.8c-0.1-0.3-0.1-0.6,0-0.9c0-0.3,0.1-0.6,0.2-0.9C4.9,6.6,5,6.4,5.1,6.1c0.1-0.2,0.3-0.4,0.5-0.6
		S6,5.3,6.3,5.2C6.5,5.1,6.7,5.1,7,5.1c0.4,0,0.7,0.1,0.9,0.2c0.2,0.1,0.4,0.2,0.6,0.4L8.3,8.5c0,0.1,0,0.3,0,0.3
		C8.3,9,8.4,9,8.4,9.1c0,0,0.1,0.1,0.2,0.1c0.1,0,0.1,0,0.2,0c0.1,0,0.3,0,0.4-0.1C9.3,9,9.4,8.9,9.5,8.7c0.1-0.2,0.2-0.4,0.2-0.6
		c0.1-0.2,0.1-0.5,0.1-0.8c0-0.4,0-0.8-0.1-1.2c-0.1-0.4-0.2-0.7-0.3-1C9.2,4.9,9.1,4.7,8.8,4.5C8.6,4.3,8.3,4.1,8,4
		C7.6,3.9,7.3,3.8,6.8,3.8C6.4,3.8,6.1,3.9,5.7,4C5.4,4.1,5.1,4.3,4.8,4.6C4.5,4.8,4.3,5.1,4.1,5.4C3.9,5.7,3.8,6.1,3.7,6.5
		C3.6,6.9,3.5,7.3,3.5,7.7c0,0.5,0,0.9,0.1,1.3c0.1,0.4,0.2,0.7,0.4,1c0.2,0.3,0.4,0.5,0.6,0.7c0.2,0.2,0.5,0.3,0.9,0.4
		c0.3,0.1,0.7,0.1,1.1,0.1c0.3,0,0.6,0,0.9-0.1c0.3-0.1,0.6-0.1,0.8-0.2l0.2,0.8c-0.2,0.1-0.5,0.3-0.9,0.3c-0.3,0.1-0.7,0.1-1,0.1
		c-0.5,0-1-0.1-1.5-0.2c-0.4-0.1-0.8-0.3-1.2-0.6C3.5,11.3,3.2,11,3,10.6c-0.2-0.4-0.4-0.8-0.5-1.3c-0.1-0.5-0.1-1-0.1-1.6
		c0-0.5,0.1-1.1,0.3-1.5C2.8,5.7,3,5.3,3.2,4.9c0.3-0.4,0.6-0.7,0.9-1c0.4-0.3,0.8-0.5,1.2-0.7C5.8,3,6.3,3,6.9,3
		c0.5,0,1,0.1,1.4,0.2c0.4,0.1,0.8,0.3,1.1,0.6C9.7,4,10,4.3,10.2,4.6c0.2,0.4,0.4,0.7,0.5,1.2c0.1,0.4,0.1,0.9,0.1,1.4
		C10.8,7.6,10.7,8,10.6,8.3z"/>
</g>
</svg>
