<svg xmlns="http://www.w3.org/2000/svg" viewBox="0 0 17 17" fill="none">
  <path d="M14.1681 0H2.83314C1.26855 0 0 1.26855 0 2.83314V14.1669C0 15.7315 1.26855 17 2.83314 17H8.48752V10.6192H6.80048V8.32107H8.48752V6.35821C8.48752 4.81621 9.48381 3.40024 11.7808 3.40024C12.7105 3.40024 13.3988 3.4894 13.3988 3.4894L13.3441 5.63536C13.3441 5.63536 12.6427 5.62823 11.8771 5.62823C11.0484 5.62823 10.9164 6.00986 10.9164 6.64354V8.32107H13.4095L13.3013 10.6192H10.9164V17H14.1669C15.7315 17 17 15.7315 17 14.1669V2.83314C17 1.26855 15.7315 0 14.1669 0H14.1681Z" fill="currentColor"/>
</svg>
