<svg viewBox="0 0 201 27" fill="none" xmlns="http://www.w3.org/2000/svg">
  <g clip-path="url(#clip0_848_3078)">
    <path d="M61.9588 13.6088H48.8483V9.7638H64.6983V4.43994H41.2168V24.158H48.8483V18.8342H61.9588V13.6088Z" fill="black"/>
    <path d="M103.64 17.5525L96.6927 4.43994H87.9854L99.2371 24.158H107.945L119.196 4.43994H110.587L103.64 17.5525Z" fill="black"/>
    <path d="M143.557 14.1018C145.515 13.1158 146.493 11.637 146.493 9.86238C146.493 6.60893 143.754 4.43994 138.47 4.43994H121.251V24.158H138.862C144.635 24.158 147.178 21.8905 147.178 18.5383C147.081 16.7637 146.004 15.0877 143.557 14.1018ZM128.687 9.17228H137.199C138.177 9.17228 138.862 9.7638 138.862 10.6512C138.862 11.5385 138.177 12.13 137.199 12.13H128.687V9.17228ZM137.786 19.4256H128.687V16.468H137.786C138.764 16.468 139.448 17.0596 139.448 17.9468C139.448 18.8342 138.764 19.4256 137.786 19.4256Z" fill="black"/>
    <path d="M158.33 16.468H171.344V12.13H158.33V9.7638H172.81V4.43994H150.699V24.158H173.105V18.8342H158.33V16.468Z" fill="black"/>
    <path d="M176.237 4.43994V9.7638H184.748V24.158H192.477V9.7638H200.99V4.43994H176.237Z" fill="black"/>
    <path d="M73.5045 4.43994L62.2529 24.158H70.3736L71.9391 21.2988H83.9733L85.5389 24.158H93.953L82.7014 4.43994H73.5045ZM74.5808 16.0736L77.9073 9.7638L81.2339 16.0736H74.5808Z" fill="black"/>
    <path d="M0.61377 12.1299L7.36472 24.1579H15.9746L9.22367 12.1299H0.61377Z" fill="black"/>
    <path d="M22.7255 12.1299L15.9746 24.1579H24.6822L31.4333 12.1299H22.7255Z" fill="black"/>
    <path d="M15.9751 0.200439L9.22412 12.1298H22.726L15.9751 0.200439Z" fill="black"/>
  </g>
  <defs>
    <clipPath id="clip0_848_3078">
      <rect width="201" height="27" fill="white" transform="translate(0 0.000976562)"/>
    </clipPath>
  </defs>
</svg>
