<svg viewBox="0 0 162 38" fill="none" xmlns="http://www.w3.org/2000/svg">
  <path d="M52.1461 6.49493C52.1461 7.57777 51.8006 8.44011 51.1086 9.08337C50.3227 9.84826 49.2983 10.231 48.039 10.231C46.833 10.231 45.8077 9.84322 44.9645 9.0667C44.1198 8.2907 43.6982 7.32845 43.6982 6.18035C43.6982 5.03172 44.1198 4.06999 44.9645 3.29348C45.8077 2.51747 46.833 2.12922 48.039 2.12922C48.6374 2.12922 49.2103 2.23778 49.7542 2.4544C50.2982 2.67154 50.7344 2.95976 51.0609 3.32075L50.3264 4.00279C49.7733 3.38938 49.0117 3.08293 48.039 3.08293C47.1595 3.08293 46.399 3.36973 45.7571 3.94372C45.1152 4.51835 44.7943 5.26346 44.7943 6.18035C44.7943 7.09723 45.1152 7.84234 45.7571 8.41697C46.399 8.99096 47.1595 9.27776 48.039 9.27776C48.972 9.27776 49.7499 8.98941 50.3727 8.41193C50.7769 8.03569 51.0107 7.51276 51.0733 6.84119H48.039V5.9097H52.0879C52.127 6.11223 52.1461 6.30662 52.1461 6.49493Z" fill="white"/>
  <path d="M52.1467 6.49544H52.0074C52.0063 7.55359 51.6734 8.37547 51.0108 8.9925L51.0092 8.99354L51.0087 8.99457C50.2477 9.73309 49.2695 10.1007 48.0396 10.1022C46.8658 10.1007 45.8833 9.72908 45.063 8.97583C44.2444 8.22102 43.8396 7.29962 43.8381 6.18085C43.8396 5.06157 44.2444 4.14068 45.063 3.38639C45.8833 2.63262 46.8658 2.26052 48.0396 2.25897C48.62 2.25897 49.1727 2.36404 49.6998 2.57355C50.2275 2.78461 50.6443 3.0612 50.9548 3.40461L51.0615 3.32125L50.963 3.22987L50.2286 3.91243L50.327 4.00329L50.4343 3.92057C49.8554 3.27679 49.0428 2.95225 48.0396 2.95419C47.1275 2.95315 46.3251 3.25559 45.6614 3.85142C44.9913 4.44919 44.6545 5.23618 44.6557 6.18085C44.6545 7.12552 44.9913 7.91251 45.6614 8.51028C46.3251 9.10611 47.1275 9.40855 48.0396 9.40752C49.0035 9.40907 49.825 9.10559 50.4717 8.50382C50.9037 8.10186 51.1485 7.54506 51.2127 6.85281L51.2257 6.71245H48.1789V6.03946H52.0885V5.91021L51.9513 5.93296C51.9895 6.12889 52.0074 6.31514 52.0074 6.49544H52.1467H52.286C52.286 6.29898 52.2663 6.0971 52.2255 5.88707L52.2049 5.78096H47.9003V6.8417V6.97094H51.0739V6.8417L50.9352 6.83058C50.8738 7.48095 50.6507 7.97067 50.2748 8.32106C49.6764 8.87437 48.9421 9.14747 48.0396 9.14902C47.1926 9.14799 46.4741 8.87734 45.8545 8.32455C45.241 7.7737 44.9357 7.07046 44.9342 6.18085C44.9357 5.29124 45.241 4.58801 45.8545 4.03715C46.4741 3.48436 47.1926 3.21372 48.0396 3.21268C48.9812 3.21475 49.6923 3.50349 50.2205 4.08665L50.3184 4.19471L51.1599 3.41263L51.2502 3.32888L51.168 3.2384C50.8258 2.85984 50.3701 2.55934 49.8097 2.33626C49.2483 2.11253 48.6559 2.00047 48.0396 2.00047C46.8016 1.99944 45.7332 2.40334 44.8666 3.2026C43.9968 4.00032 43.5585 5.00302 43.5596 6.18085C43.5585 7.35817 43.9968 8.36139 44.8672 9.15962C45.7332 9.95837 46.8016 10.3617 48.0396 10.3607C49.3288 10.3617 50.3983 9.96432 51.2099 9.17319L51.1092 9.08388L51.2077 9.17526C51.929 8.50627 52.2869 7.60257 52.286 6.49544H52.1467Z" fill="white"/>
  <path d="M58.5643 3.25582H54.7592V5.71462H58.1906V6.6465H54.7592V9.1053H58.5643V10.058H53.6865V2.30313H58.5643V3.25582Z" fill="white"/>
  <path d="M58.5649 3.25572V3.12647H54.6205V5.84377H58.052V6.51676L54.6205 6.51715V9.23445H58.4256V9.92864H53.8264V2.43228H58.4256V3.25572H58.5649V3.12647V3.25572H58.7041V2.30303V2.17378H53.5479V10.1871H58.7041V9.1052V8.97595H54.8991V6.77565H58.3305V5.71452V5.58527H54.8991V3.38496H58.7041V3.25572H58.5649Z" fill="white"/>
  <path d="M63.0926 10.058H62.0182V3.25582H59.6846V2.30313H65.4263V3.25582H63.0926V10.058Z" fill="white"/>
  <path d="M63.0922 10.0579V9.92864H62.1571V3.12647H59.8234V2.43228H65.2866V3.12647H62.953V10.0579H63.0922V9.92864V10.0579H63.2315V3.38496H65.5651V2.30303V2.17378H59.5449V3.25572V3.38496H61.8786V10.1871H63.0922H63.2315V10.0579H63.0922Z" fill="white"/>
  <path d="M69.5801 10.058V2.30313H70.6533V10.058H69.5801Z" fill="white"/>
  <path d="M69.5797 10.0579H69.7189V2.43228H70.5137V9.92864H69.5797V10.0579H69.7189H69.5797V10.1871H70.653H70.7922V2.17378H69.5797H69.4404V10.1871H69.5797V10.0579Z" fill="white"/>
  <path d="M75.4147 10.058H74.3404V3.25582H72.0068V2.30313H77.7484V3.25582H75.4147V10.058Z" fill="white"/>
  <path d="M75.4153 10.0579V9.92864H74.4802V3.12647H72.1467V2.43228H77.6097V3.12647H75.276V10.0579H75.4153V9.92864V10.0579H75.5546V3.38496H77.8882V2.30303V2.17378H71.8682V3.25572V3.38496H74.2017V10.1871H75.4153H75.5546V10.0579H75.4153Z" fill="white"/>
  <path d="M83.2853 8.40637C83.9037 8.98747 84.6604 9.27776 85.5553 9.27776C86.4501 9.27776 87.2073 8.98747 87.8247 8.40637C88.4437 7.82528 88.7539 7.08249 88.7539 6.18035C88.7539 5.2782 88.4437 4.53541 87.8247 3.95432C87.2073 3.37322 86.4501 3.08293 85.5553 3.08293C84.6604 3.08293 83.9037 3.37322 83.2853 3.95432C82.6678 4.53541 82.3578 5.2782 82.3578 6.18035C82.3578 7.08249 82.6678 7.82528 83.2853 8.40637ZM88.6189 9.05558C87.7975 9.8396 86.7759 10.231 85.5553 10.231C84.3334 10.231 83.3124 9.8396 82.4927 9.05558C81.6707 8.27247 81.2617 7.31384 81.2617 6.18035C81.2617 5.04685 81.6707 4.08809 82.4927 3.30511C83.3124 2.52096 84.3334 2.12922 85.5553 2.12922C86.7695 2.12922 87.7883 2.52303 88.6135 3.31015C89.4376 4.09727 89.85 5.05395 89.85 6.18035C89.85 7.31384 89.4386 8.27247 88.6189 9.05558Z" fill="white"/>
  <path d="M83.2849 8.40627L83.1858 8.49713C83.8273 9.10149 84.6274 9.40846 85.5549 9.40691C86.4818 9.40846 87.2831 9.10149 87.9234 8.49713C88.569 7.89225 88.8937 7.10966 88.8927 6.18024C88.8937 5.25082 88.569 4.46823 87.9234 3.86335C87.2831 3.25899 86.4818 2.95203 85.5549 2.95358C84.6274 2.95203 83.8273 3.25899 83.1858 3.86335C82.5418 4.46823 82.2165 5.25082 82.2182 6.18024C82.2165 7.10966 82.5418 7.89225 83.1858 8.49713L83.2849 8.40627L83.3839 8.31541C82.7932 7.75745 82.4978 7.05564 82.4967 6.18024C82.4978 5.30485 82.7932 4.60304 83.3839 4.04508C83.98 3.48724 84.6921 3.21363 85.5549 3.21207C86.417 3.21363 87.1307 3.48724 87.7253 4.04508C88.3172 4.60304 88.6125 5.30485 88.6137 6.18024C88.6125 7.05564 88.3172 7.75745 87.7253 8.31541C87.1307 8.87324 86.417 9.14686 85.5549 9.14841C84.6921 9.14686 83.98 8.87324 83.3839 8.31541L83.2849 8.40627ZM88.6185 9.05548L88.519 8.96565C87.7205 9.72498 86.744 10.1001 85.5549 10.1016C84.3652 10.1001 83.3887 9.72498 82.5918 8.96565L82.588 8.96165L82.5918 8.96565C81.795 8.20374 81.4017 7.28492 81.4006 6.18024C81.4017 5.07556 81.795 4.15674 82.5918 3.39483C83.3887 2.6355 84.3652 2.25991 85.5549 2.25836C86.7363 2.25991 87.7106 2.63705 88.5135 3.40039C89.3131 4.16579 89.7086 5.08319 89.7103 6.18024C89.7086 7.28492 89.3143 8.20374 88.519 8.96565L88.6185 9.05548L88.7187 9.14531C89.5628 8.34062 89.9898 7.34244 89.9888 6.18024C89.9898 5.02464 89.5612 4.02853 88.7131 3.22022C87.8646 2.4088 86.8016 1.99844 85.5549 1.99986C84.3016 1.99844 83.2354 2.40686 82.3922 3.21517V3.21466C81.5464 4.01987 81.121 5.01805 81.1221 6.18024C81.121 7.34244 81.5464 8.34062 82.3922 9.14583L82.396 9.14944L82.3922 9.14531C83.2354 9.95362 84.3016 10.3611 85.5549 10.3601C86.8076 10.3611 87.8738 9.95362 88.7187 9.14531L88.6185 9.05548Z" fill="white"/>
  <path d="M91.3564 10.058V2.30313H92.6631L96.7238 8.33589H96.77L96.7238 6.8414V2.30313H97.7982V10.058H96.6776L92.4291 3.73287H92.3829L92.4291 5.22787V10.058H91.3564Z" fill="white"/>
  <path d="M91.3561 10.0579H91.4953V2.43228H92.5854L96.6461 8.46504H96.7697H96.9127L96.8627 6.83936V2.43228H97.6585V9.92864H96.7545L92.506 3.60352H92.3825H92.2395L92.2895 5.22984V9.92864H91.3561V10.0579H91.4953H91.3561V10.1871H92.4287H92.568V5.22571L92.5218 3.72928L92.3825 3.73277V3.86202H92.4287V3.73277L92.3107 3.80153L96.5999 10.1871H97.7978H97.937V2.17378H96.7234H96.5842V6.84285L96.6304 8.33928L96.7697 8.33579V8.20654H96.7234V8.33579L96.8415 8.26716L92.7398 2.17378H91.3561H91.2168V10.1871H91.3561V10.0579Z" fill="white"/>
  <path d="M135.028 32.03H137.626V15.8725H135.028V32.03ZM158.433 21.6927L155.454 28.6978H155.365L152.273 21.6927H149.474L154.11 31.4836L151.467 36.9297H154.178L161.322 21.6927H158.433ZM143.696 30.1948C142.844 30.1948 141.658 29.7999 141.658 28.8225C141.658 27.5754 143.137 27.0973 144.412 27.0973C145.555 27.0973 146.092 27.326 146.786 27.6381C146.585 29.1346 145.196 30.1948 143.696 30.1948ZM144.01 21.3392C142.128 21.3392 140.18 22.1087 139.374 23.8132L141.68 24.7068C142.173 23.8132 143.091 23.5218 144.054 23.5218C145.398 23.5218 146.764 24.2706 146.786 25.6009V25.767C146.316 25.5176 145.309 25.1435 144.077 25.1435C141.591 25.1435 139.059 26.4112 139.059 28.7811C139.059 30.943 141.098 32.3359 143.382 32.3359C145.129 32.3359 146.092 31.6083 146.697 30.7562H146.786V32.0032H149.294V25.8084C149.294 22.9402 146.988 21.3392 144.01 21.3392ZM127.951 23.6596H124.255V18.1212H127.951C129.893 18.1212 130.996 19.614 130.996 20.8904C130.996 22.1425 129.893 23.6596 127.951 23.6596ZM127.884 15.8725H121.658V32.03H124.255V25.9084H127.884C130.764 25.9084 133.595 23.9732 133.595 20.8904C133.595 17.8077 130.764 15.8725 127.884 15.8725ZM93.9316 30.1977C92.1365 30.1977 90.6335 28.8028 90.6335 26.8868C90.6335 24.9507 92.1365 23.5345 93.9316 23.5345C95.7039 23.5345 97.0948 24.9507 97.0948 26.8868C97.0948 28.8028 95.7039 30.1977 93.9316 30.1977ZM96.9153 22.5975H96.8255C96.2425 21.9521 95.1202 21.3691 93.707 21.3691C90.7456 21.3691 88.0312 23.7843 88.0312 26.8868C88.0312 29.9686 90.7456 32.3632 93.707 32.3632C95.1202 32.3632 96.2425 31.78 96.8255 31.1141H96.9153V31.9052C96.9153 34.0086 95.7039 35.1329 93.7521 35.1329C92.1593 35.1329 91.1721 34.0706 90.7679 33.1755L88.5023 34.05C89.1529 35.5075 90.8805 37.2983 93.7521 37.2983C96.8032 37.2983 99.3832 35.6322 99.3832 31.572V21.7023H96.9153V22.5975ZM101.178 32.03H103.78V15.8719H101.178V32.03ZM107.617 26.6995C107.549 24.5755 109.389 23.493 110.713 23.493C111.745 23.493 112.62 23.9716 112.911 24.6594L107.617 26.6995ZM115.693 24.8673C115.2 23.6384 113.696 21.3691 110.623 21.3691C107.572 21.3691 105.037 23.5971 105.037 26.8661C105.037 29.9479 107.549 32.3632 110.914 32.3632C113.629 32.3632 115.2 30.8223 115.851 29.9271L113.831 28.6775C113.159 29.5939 112.238 30.1977 110.914 30.1977C109.591 30.1977 108.649 29.6354 108.043 28.5321L115.962 25.4918L115.693 24.8673ZM52.5986 23.0558V25.3878H58.611C58.4315 26.6995 57.9604 27.6573 57.2424 28.3237C56.3677 29.136 54.9991 30.0311 52.5986 30.0311C48.8967 30.0311 46.0028 27.2619 46.0028 23.8262C46.0028 20.3906 48.8967 17.6209 52.5986 17.6209C54.5954 17.6209 56.0533 18.3499 57.1303 19.2869L58.9026 17.6421C57.3996 16.3092 55.4027 15.2889 52.5986 15.2889C47.5281 15.2889 43.2656 19.1203 43.2656 23.8262C43.2656 28.5321 47.5281 32.3632 52.5986 32.3632C55.3358 32.3632 57.3996 31.5307 59.0147 29.9686C60.6749 28.4277 61.1912 26.2623 61.1912 24.5134C61.1912 23.9716 61.1465 23.4723 61.0562 23.0558H52.5986ZM68.0267 30.1977C66.2315 30.1977 64.6834 28.8235 64.6834 26.8661C64.6834 24.888 66.2315 23.5345 68.0267 23.5345C69.8212 23.5345 71.3693 24.888 71.3693 26.8661C71.3693 28.8235 69.8212 30.1977 68.0267 30.1977ZM68.0267 21.3691C64.7508 21.3691 62.081 23.6803 62.081 26.8661C62.081 30.0311 64.7508 32.3632 68.0267 32.3632C71.3019 32.3632 73.9717 30.0311 73.9717 26.8661C73.9717 23.6803 71.3019 21.3691 68.0267 21.3691ZM80.9959 30.1977C79.2015 30.1977 77.6532 28.8235 77.6532 26.8661C77.6532 24.888 79.2015 23.5345 80.9959 23.5345C82.7905 23.5345 84.3387 24.888 84.3387 26.8661C84.3387 28.8235 82.7905 30.1977 80.9959 30.1977ZM80.9959 21.3691C77.7202 21.3691 75.0509 23.6803 75.0509 26.8661C75.0509 30.0311 77.7202 32.3632 80.9959 32.3632C84.2713 32.3632 86.9411 30.0311 86.9411 26.8661C86.9411 23.6803 84.2713 21.3691 80.9959 21.3691Z" fill="white"/>
  <path fill-rule="evenodd" clip-rule="evenodd" d="M6.40627 4.19701L20.3529 18.5012L6.40627 32.8055C6.33902 32.7354 6.27604 32.6609 6.21786 32.5823C5.78125 31.9923 5.78125 30.9785 5.78125 28.9508V8.05178C5.78125 6.02408 5.78125 5.01023 6.21787 4.42022C6.27604 4.34159 6.33902 4.2671 6.40627 4.19701ZM8.12103 3.47131L21.5641 17.259L25.8059 12.9085L11.4139 4.92873C9.7446 4.0032 8.8373 3.50012 8.12103 3.47131ZM27.3782 13.7802L22.7753 18.5012L27.3782 23.2223L30.2603 21.6243H30.2604C32.0889 20.6104 33.0032 20.1035 33.3169 19.4454C33.6027 18.8459 33.6027 18.1567 33.3169 17.5571C33.0032 16.899 32.0889 16.392 30.2603 15.3782L27.3782 13.7802ZM25.8059 24.0941L21.5641 19.7435L8.12103 33.5312C8.83729 33.5024 9.7446 32.9993 11.4139 32.0737H11.4139L25.8059 24.0941Z" fill="white"/>
</svg>
