<svg width="30" height="29" viewBox="0 0 30 29" fill="none" xmlns="http://www.w3.org/2000/svg">
  <path d="M8.11287 28.7995C8.66817 28.7995 9.10158 28.5268 9.76524 27.8995L14.7494 23.3722H23.6343C27.7111 23.3859 30 21.0268 30 16.9768V6.39497C30 2.34497 27.7111 -0.000488281 23.6343 -0.000488281H6.36569C2.28894 -0.000488281 0 2.34497 0 6.39497V16.9768C0 21.0268 2.34312 23.3722 6.27088 23.3722H6.81264V27.3268C6.81264 28.2131 7.30023 28.7995 8.11287 28.7995ZM8.19413 13.7859C7.02935 13.7859 6.08126 12.845 6.08126 11.6722C6.08126 10.4995 7.02935 9.5586 8.19413 9.5586C9.35892 9.5586 10.2935 10.4995 10.2935 11.6722C10.2935 12.845 9.35892 13.7859 8.19413 13.7859ZM15.0068 13.7859C13.842 13.7859 12.9074 12.845 12.9074 11.6722C12.9074 10.4995 13.842 9.5586 15.0068 9.5586C16.1716 9.5586 17.1061 10.4995 17.1061 11.6722C17.1061 12.845 16.1716 13.7859 15.0068 13.7859ZM21.8194 13.7859C20.6682 13.7859 19.7201 12.845 19.7201 11.6722C19.7201 10.4995 20.6682 9.5586 21.8194 9.5586C22.9842 9.5586 23.9323 10.4995 23.9323 11.6722C23.9323 12.845 22.9842 13.7859 21.8194 13.7859Z" fill="#CE64C7"/>
</svg>
