<svg width="28" height="29" viewBox="0 0 28 29" fill="none" xmlns="http://www.w3.org/2000/svg">
  <path d="M1.40105 16.8281L11.1836 26.5985C13.0475 28.4624 14.9601 28.4746 16.7997 26.6228L26.6188 16.8038C28.4705 14.952 28.4583 13.0394 26.5944 11.1754L16.8241 1.4051C14.9601 -0.45882 13.0475 -0.471003 11.1958 1.38073L1.37668 11.1998C-0.475057 13.0515 -0.450692 14.9642 1.40105 16.8281ZM12.6455 20.0199C12.1704 20.0199 11.8049 19.8128 11.4638 19.3743L8.47907 15.7439C8.25978 15.4759 8.15014 15.1835 8.15014 14.8789C8.15014 14.2576 8.63744 13.746 9.25875 13.746C9.6364 13.746 9.94096 13.8921 10.2455 14.282L12.5967 17.2667L17.6403 9.20189C17.8961 8.7755 18.2372 8.5684 18.6271 8.5684C19.224 8.5684 19.7844 8.99478 19.7844 9.62827C19.7844 9.90847 19.6382 10.213 19.4677 10.481L13.7663 19.3743C13.4861 19.7885 13.0962 20.0199 12.6455 20.0199Z" fill="#674BDA"/>
</svg>
