<svg width="28" height="28" viewBox="0 0 28 28" fill="none" xmlns="http://www.w3.org/2000/svg">
  <path d="M4.91912 27.9995H23.0809C26.3203 27.9995 28 26.3198 28 23.1254V4.87364C28 1.66421 26.3203 -0.000488281 23.0809 -0.000488281H4.91912C1.6797 -0.000488281 0 1.66421 0 4.87364V23.1254C0 26.3348 1.6797 27.9995 4.91912 27.9995ZM5.0241 5.86346C5.0241 4.85864 5.624 4.25875 6.64381 4.25875H10.2582C11.278 4.25875 11.8779 4.85864 11.8779 5.86346V9.50781C11.8779 10.4976 11.278 11.1125 10.2582 11.1125H6.64381C5.624 11.1125 5.0241 10.4976 5.0241 9.50781V5.86346ZM5.89395 18.0263C5.32405 18.0263 4.90412 17.5914 4.90412 17.0365C4.90412 16.5116 5.32405 16.0916 5.89395 16.0916H20.7413C21.2962 16.0916 21.7161 16.5116 21.7161 17.0365C21.7161 17.5914 21.2962 18.0263 20.7413 18.0263H5.89395ZM5.89395 23.1554C5.32405 23.1554 4.90412 22.7505 4.90412 22.2105C4.90412 21.6556 5.32405 21.2207 5.89395 21.2207H16.947C17.5019 21.2207 17.9218 21.6556 17.9218 22.2105C17.9218 22.7505 17.5019 23.1554 16.947 23.1554H5.89395Z" fill="#61D5D1"/>
</svg>
