<svg width="192" height="59" viewBox="0 0 192 59" fill="none" xmlns="http://www.w3.org/2000/svg">
  <g clip-path="url(#clip0_63_1665)">
    <path d="M20.9923 6.32389C9.36601 6.32389 0 14.2722 0 27.6069V39.3885C0 41.7737 1.60451 43.2808 3.41914 43.6412C4.81353 52.3365 12.1548 59.0006 20.9923 59.0006C26.9583 59.0006 32.2367 55.9602 35.4775 51.3143C35.9741 51.4847 36.4771 51.5961 36.9929 51.5961C39.527 51.5961 41.9911 49.6041 41.9911 46.4916V27.6069C41.9847 14.2722 32.5423 6.32389 20.9923 6.32389ZM5.64762 40.011C5.3802 40.6663 4.9154 41.0005 4.25959 41.0005C4.22139 41.0005 3.61652 40.9939 3.16445 40.6139C2.87793 40.378 2.65508 40.0045 2.65508 39.3885V27.6069C2.65508 22.7448 4.06858 18.5839 6.57722 15.4386L12.4795 23.2363L5.87047 39.4672L5.64762 40.011ZM20.9923 56.2747C13.5046 56.2747 7.28397 50.6656 6.04875 43.3136C6.90194 42.9007 7.64053 42.1668 8.09259 41.0595L14.3642 25.6542L33.179 49.6827C33.2108 49.722 33.249 49.7483 33.2809 49.7876C30.5175 53.7061 26.0478 56.2747 20.9923 56.2747ZM39.336 46.485C39.336 48.2149 37.897 48.8636 36.9865 48.8636C36.9674 48.8636 36.9356 48.8571 36.9165 48.8571C36.4453 48.844 35.7895 48.6736 35.2419 47.9725L34.7135 47.2976L8.45551 13.4859C11.62 10.6683 15.9114 9.04979 20.9923 9.04979C26.0924 9.04979 30.7149 10.7928 34.0131 13.9577C37.4959 17.3061 39.336 22.024 39.336 27.6069V46.485ZM95.2901 6.55323C83.6574 6.55323 74.2977 14.5081 74.2977 27.8362V49.1651L80.3529 49.2044C82.9888 54.9838 88.6747 59.0006 95.2901 59.0006C101.829 59.0006 107.464 55.0756 110.138 49.401L116.289 49.4403V27.8362C116.282 14.5016 106.84 6.55323 95.2901 6.55323ZM95.2901 56.2747C90.2091 56.2747 85.7713 53.4374 83.3581 49.224C82.8679 48.3656 82.454 47.4483 82.142 46.485C81.6899 45.0762 81.4353 43.5757 81.4353 42.0096C81.4353 38.4974 82.6832 35.28 84.7398 32.79H105.847C107.903 35.28 109.151 38.4908 109.151 42.0096C109.151 43.6412 108.871 45.2007 108.381 46.662C108.056 47.6186 107.642 48.5295 107.133 49.3813C104.694 53.5029 100.307 56.2747 95.2901 56.2747ZM113.634 46.7013L111.151 46.6816C111.564 45.1942 111.8 43.6346 111.8 42.0096C111.8 38.6088 110.819 35.4504 109.145 32.79H111.055V30.0641H107.018H102.829H87.7451H83.5555H79.5952V32.79H81.4353C79.7607 35.4438 78.7802 38.6088 78.7802 42.0096C78.7802 43.556 78.9967 45.0435 79.3723 46.4654L76.9401 46.4523V27.8362C76.9401 16.736 84.3132 9.27913 95.2837 9.27913C100.384 9.27913 105.006 11.0221 108.304 14.1871C111.787 17.5355 113.627 22.2534 113.627 27.8362V46.7013H113.634ZM191.975 27.8952C191.975 22.7645 190.376 18.5249 187.817 15.2224C189.568 13.5711 190.587 11.2449 190.587 8.76803C190.587 3.93873 186.766 0.00714111 182.074 0.00714111C177.916 0.00714111 174.459 3.08688 173.714 7.14297C172.447 6.93328 171.16 6.82189 169.893 6.82189C159.184 6.82189 147.806 14.2067 147.812 27.8362C147.793 28.249 147.386 38.1304 151.817 52.4217L152.11 53.3653L157.669 53.3588C160.668 56.812 165.01 59.0071 169.855 59.0071C174.707 59.0071 179.062 56.8055 182.061 53.3391L187.626 53.3326L187.951 52.4807C192.484 40.6401 191.994 28.3473 191.975 27.8952ZM182.074 2.70683C185.321 2.70683 187.957 5.42618 187.957 8.76147C187.957 10.4848 187.244 12.0968 186.028 13.2369C183.315 10.57 179.909 8.70905 176.292 7.7065C176.783 4.8692 179.177 2.70683 182.074 2.70683ZM169.843 56.2943C162.272 56.2943 156.115 49.9579 156.115 42.1668C156.115 40.568 156.382 39.0019 156.892 37.5079C163.367 35.3849 168.735 30.418 171.434 23.9767C173.529 27.6462 176.528 30.7128 180.125 32.8293C182.341 35.4111 183.57 38.7136 183.57 42.1668C183.57 49.9579 177.413 56.2943 169.843 56.2943ZM185.811 50.6263H183.958C185.372 48.1363 186.2 45.2531 186.2 42.1668C186.2 39.5917 185.627 37.0951 184.557 34.8344C185.378 35.1097 186.212 35.3521 187.066 35.529L187.581 32.8752C179.183 31.1322 172.574 24.1209 171.135 15.4255L168.544 15.8776C168.811 17.5027 169.257 19.0688 169.83 20.5759C167.474 28.7077 160.515 34.7886 152.301 35.7911L152.613 38.4777C153.065 38.4253 153.505 38.3401 153.944 38.2615C153.651 39.5327 153.485 40.8367 153.485 42.1668C153.485 45.2597 154.313 48.156 155.739 50.646H154.027C150.06 37.3572 150.429 28.0459 150.436 27.8886C150.436 18.7608 157.121 9.51503 169.893 9.51503C179.323 9.51503 189.351 15.9563 189.351 27.9476C189.351 28.0721 189.81 39.572 185.811 50.6263Z" fill="url(#paint0_linear_63_1665)"/>
  </g>
  <defs>
    <linearGradient id="paint0_linear_63_1665" x1="0" y1="29.5007" x2="191.999" y2="29.5007" gradientUnits="userSpaceOnUse">
      <stop stop-color="#FF9715"/>
      <stop offset="0.1396" stop-color="#FF8E1A"/>
      <stop offset="0.3716" stop-color="#FF7428"/>
      <stop offset="0.6676" stop-color="#FF4B3F"/>
      <stop offset="0.9944" stop-color="#FF155D"/>
    </linearGradient>
    <clipPath id="clip0_63_1665">
      <rect width="192" height="59" fill="white"/>
    </clipPath>
  </defs>
</svg>
