<svg width="19" height="19" viewBox="0 0 19 19" fill="none" xmlns="http://www.w3.org/2000/svg">
  <path d="M9.14992 6.65107C7.49734 6.65107 6.1487 7.99973 6.1487 9.65234C6.1487 11.305 7.49734 12.6536 9.14992 12.6536C10.8025 12.6536 12.1511 11.305 12.1511 9.65234C12.1511 7.99973 10.8025 6.65107 9.14992 6.65107ZM18.1513 9.65234C18.1513 8.4095 18.1626 7.17792 18.0928 5.93733C18.023 4.49636 17.6943 3.2175 16.6406 2.16378C15.5847 1.10782 14.3081 0.78135 12.8671 0.711553C11.6243 0.641756 10.3927 0.653013 9.15217 0.653013C7.90936 0.653013 6.6778 0.641756 5.43724 0.711553C3.99629 0.78135 2.71745 1.11007 1.66376 2.16378C0.607812 3.21975 0.281348 4.49636 0.211552 5.93733C0.141756 7.18017 0.153013 8.41175 0.153013 9.65234C0.153013 10.8929 0.141756 12.1268 0.211552 13.3674C0.281348 14.8083 0.610064 16.0872 1.66376 17.1409C2.7197 18.1969 3.99629 18.5233 5.43724 18.5931C6.68005 18.6629 7.91161 18.6517 9.15217 18.6517C10.395 18.6517 11.6266 18.6629 12.8671 18.5931C14.3081 18.5233 15.5869 18.1946 16.6406 17.1409C17.6965 16.0849 18.023 14.8083 18.0928 13.3674C18.1648 12.1268 18.1513 10.8952 18.1513 9.65234V9.65234ZM9.14992 14.2702C6.5945 14.2702 4.53214 12.2078 4.53214 9.65234C4.53214 7.09687 6.5945 5.03447 9.14992 5.03447C11.7054 5.03447 13.7677 7.09687 13.7677 9.65234C13.7677 12.2078 11.7054 14.2702 9.14992 14.2702ZM13.9568 5.92382C13.3602 5.92382 12.8784 5.442 12.8784 4.84535C12.8784 4.24869 13.3602 3.76687 13.9568 3.76687C14.5535 3.76687 15.0353 4.24869 15.0353 4.84535C15.0355 4.98702 15.0077 5.12734 14.9536 5.25827C14.8994 5.3892 14.82 5.50816 14.7198 5.60834C14.6196 5.70852 14.5007 5.78796 14.3698 5.84209C14.2388 5.89623 14.0985 5.924 13.9568 5.92382V5.92382Z" fill="white"/>
</svg>
