<svg xmlns="http://www.w3.org/2000/svg" viewBox="0 0 17 17" fill="none">
  <path d="M14.1671 0H2.83294C1.26846 0 0 1.22081 0 2.72799V14.272C0 15.7781 1.26846 17 2.83294 17H14.1671C15.7315 17 17 15.7781 17 14.272V2.72799C17 1.22195 15.7315 0 14.1671 0ZM6.62406 12.1704H4.99182V6.85477H6.62406V12.1715V12.1704ZM6.7786 5.51872C6.72629 5.64537 6.64902 5.75946 6.55154 5.8553C6.3542 6.05154 6.08671 6.16107 5.80853 6.15993C5.53035 6.15993 5.26406 6.0504 5.06671 5.8553C4.96923 5.75832 4.89315 5.64423 4.83965 5.51758C4.78734 5.39094 4.76 5.25631 4.76 5.1194C4.76 4.84329 4.87056 4.57859 5.06671 4.38349C5.26406 4.18839 5.53035 4.07886 5.80853 4.07886C6.08671 4.07886 6.3542 4.18839 6.55035 4.38349C6.7465 4.57859 6.85706 4.84329 6.85706 5.1194C6.85706 5.25631 6.82972 5.39208 6.77741 5.51758L6.7786 5.51872ZM12.92 12.24H11.2878V9.6649C11.2878 8.76242 11.069 8.25242 10.5138 8.25242C9.7435 8.25242 9.42252 8.80121 9.42252 9.66376V12.24H7.79028V6.92322H9.30601V7.67852C9.52476 7.24497 10.0835 6.85477 10.9252 6.85477C12.5372 6.85477 12.92 7.71846 12.92 9.30436V12.2411V12.24Z" fill="currentColor"/>
</svg>
