<svg width="19" height="19" viewBox="0 0 19 19" fill="none" xmlns="http://www.w3.org/2000/svg">
  <rect x="0.152344" y="0.304688" width="18" height="18.6957" rx="3" fill="white"/>
  <path fill-rule="evenodd" clip-rule="evenodd" d="M8.40171 7.91846H10.0062V8.74855C10.2373 8.27114 10.83 7.84219 11.7203 7.84219C13.4272 7.84219 13.8324 8.79252 13.8324 10.5362V13.7654H12.1044V10.9332C12.1044 9.94029 11.8733 9.38031 11.2849 9.38031C10.4688 9.38031 10.1297 9.98381 10.1297 10.9328V13.7654H8.40171V7.91846V7.91846ZM5.43862 13.6891H7.16662V7.84219H5.43862V13.6891V13.6891ZM7.41416 5.93568C7.41422 6.08611 7.3855 6.23506 7.32965 6.37387C7.27381 6.51267 7.19196 6.63857 7.08886 6.74423C6.87995 6.95988 6.59716 7.08059 6.30262 7.07985C6.0086 7.07965 5.72647 6.95924 5.51725 6.74468C5.41452 6.63865 5.33295 6.51262 5.2772 6.3738C5.22146 6.23498 5.19263 6.08609 5.19238 5.93568C5.19238 5.63191 5.30902 5.34116 5.51768 5.12668C5.72672 4.91183 6.00897 4.79137 6.30305 4.7915C6.59768 4.7915 6.88021 4.9122 7.08886 5.12668C7.29709 5.34116 7.41416 5.63191 7.41416 5.93568Z" fill="black"/>
</svg>
