<svg viewBox="0 0 123 149" fill="none" xmlns="http://www.w3.org/2000/svg">
<rect width="123" height="149" fill="#131B1F"/>
<path d="M29 118.146H33.3627C36.2884 118.146 38.0301 119.946 38.0301 122.16C38.0301 124.392 36.2884 126.193 33.3627 126.193H31.2979V130.226H29L29 118.146ZM33.3627 124.014C34.7981 124.014 35.7139 123.24 35.7139 122.16C35.7139 121.079 34.7981 120.305 33.3627 120.305H31.2979V124.014H33.3627Z" fill="url(#paint0_linear_63_1827)"/>
<path d="M41.7676 120.45V123.006H45.2861V125.31H41.7676V127.921H48.1585V130.226H39.4697V118.146H48.1585V120.45H41.7676Z" fill="url(#paint1_linear_63_1827)"/>
<path d="M49.9805 118.146H54.3424C57.2688 118.146 59.0106 119.946 59.0106 122.16C59.0158 122.914 58.7965 123.653 58.3807 124.281C57.965 124.91 57.3717 125.4 56.6768 125.688L59.0106 130.226H56.6944L54.5938 126.175L54.0376 126.193H52.2784V130.226H49.9805L49.9805 118.146ZM54.3424 124.014C55.7793 124.014 56.6944 123.24 56.6944 122.16C56.6944 121.079 55.7793 120.305 54.3424 120.305H52.2784V124.014H54.3424Z" fill="url(#paint2_linear_63_1827)"/>
<path d="M60.5947 125.547V118.129H62.8926V125.547C62.8855 125.895 62.9475 126.24 63.0751 126.563C63.2027 126.886 63.3933 127.181 63.6357 127.429C63.8781 127.677 64.1675 127.874 64.4869 128.009C64.8063 128.143 65.1492 128.213 65.4957 128.213C65.8421 128.213 66.1851 128.143 66.5045 128.009C66.8238 127.874 67.1132 127.677 67.3556 127.429C67.598 127.181 67.7886 126.886 67.9162 126.563C68.0438 126.24 68.1059 125.895 68.0987 125.547V118.129H70.3966V125.547C70.3966 128.572 68.2061 130.374 65.4953 130.374C62.8027 130.374 60.5947 128.572 60.5947 125.547Z" fill="url(#paint3_linear_63_1827)"/>
<path d="M77.3707 123.438L81.392 130.226H78.9151L75.9528 125.221L74.5166 127.021V130.226H72.2188V118.146H74.5166V123.69L78.9509 118.146H81.5894L77.3707 123.438Z" fill="url(#paint4_linear_63_1827)"/>
<path d="M91.4458 127.31H86.6168L85.5037 130.226H83.0801L87.9631 118.146H90.117L95.0001 130.226H92.5589L91.4458 127.31ZM90.5658 125.005L89.0404 120.972L87.4961 125.005H90.5658Z" fill="url(#paint5_linear_63_1827)"/>
<path d="M62.1103 17C43.9461 17 29.3187 29.1043 29.3187 49.3974V67.3302C29.2871 68.872 29.8091 70.3738 30.7895 71.5618C31.7699 72.7497 33.1434 73.5447 34.6595 73.8017C35.5482 79.253 38.0315 84.3166 41.7942 88.3502C45.5569 92.3838 50.4295 95.2054 55.7937 96.4571C61.1579 97.7089 66.7719 97.3342 71.9235 95.3808C77.0751 93.4274 81.532 89.9832 84.7288 85.4853C85.4886 85.7521 86.2861 85.8955 87.091 85.9101C88.115 85.9227 89.1312 85.7306 90.0803 85.3451C91.0295 84.9596 91.8926 84.3884 92.6194 83.6649C93.3461 82.9413 93.9219 82.0799 94.3132 81.1308C94.7045 80.1817 94.9035 79.1639 94.8985 78.1369V49.3974C94.8985 29.1043 80.149 17 62.1103 17ZM38.1412 68.2743C37.9891 68.7257 37.6961 69.116 37.3056 69.3874C36.9151 69.6589 36.4478 69.797 35.973 69.7813C35.3548 69.7655 34.7564 69.5595 34.2588 69.1913C33.9892 68.9658 33.7763 68.6798 33.6373 68.3565C33.4984 68.0332 33.4372 67.6816 33.4588 67.3302V49.3974C33.4588 41.9992 35.6675 35.6647 39.5889 30.8802L48.8062 42.7495L38.4871 67.4463L38.1412 68.2743ZM62.1085 93.0301C56.5264 93.0207 51.1262 91.038 46.8573 87.4307C42.5883 83.8233 39.7238 78.8222 38.7673 73.3065C40.2238 72.608 41.3637 71.3841 41.9595 69.8793L51.7584 46.4272L81.14 83.004C81.1891 83.0649 81.2488 83.1031 81.2988 83.162C79.1077 86.2134 76.2253 88.6991 72.889 90.4147C69.5527 92.1304 65.8578 93.0268 62.1085 93.0301ZM90.7585 78.1369C90.7585 80.7748 88.509 81.7579 87.091 81.7579C87.0578 81.7579 87.0162 81.7492 86.9817 81.7482C86.4723 81.7351 85.9725 81.607 85.5193 81.3734C85.066 81.1398 84.6712 80.8067 84.364 80.399L83.5357 79.3678L42.5257 27.9049C47.4652 23.6119 54.1728 21.1523 62.1103 21.1523C70.0756 21.1523 77.2969 23.8059 82.444 28.6243C87.8833 33.7163 90.7585 40.8995 90.7585 49.3974V78.1369Z" fill="url(#paint6_linear_63_1827)"/>
<defs>
<linearGradient id="paint0_linear_63_1827" x1="36.5761" y1="130.225" x2="30.0549" y2="118.301" gradientUnits="userSpaceOnUse">
<stop stop-color="#FF9715"/>
<stop offset="0.1396" stop-color="#FF8E1A"/>
<stop offset="0.3716" stop-color="#FF7428"/>
<stop offset="0.6676" stop-color="#FF4B3F"/>
<stop offset="0.9944" stop-color="#FF155D"/>
</linearGradient>
<linearGradient id="paint1_linear_63_1827" x1="46.7594" y1="130.225" x2="40.1048" y2="118.517" gradientUnits="userSpaceOnUse">
<stop stop-color="#FF9715"/>
<stop offset="0.1396" stop-color="#FF8E1A"/>
<stop offset="0.3716" stop-color="#FF7428"/>
<stop offset="0.6676" stop-color="#FF4B3F"/>
<stop offset="0.9944" stop-color="#FF155D"/>
</linearGradient>
<linearGradient id="paint2_linear_63_1827" x1="57.5566" y1="130.225" x2="51.0354" y2="118.301" gradientUnits="userSpaceOnUse">
<stop stop-color="#FF9715"/>
<stop offset="0.1396" stop-color="#FF8E1A"/>
<stop offset="0.3716" stop-color="#FF7428"/>
<stop offset="0.6676" stop-color="#FF4B3F"/>
<stop offset="0.9944" stop-color="#FF155D"/>
</linearGradient>
<linearGradient id="paint3_linear_63_1827" x1="68.8183" y1="130.373" x2="62.4586" y2="117.919" gradientUnits="userSpaceOnUse">
<stop stop-color="#FF9715"/>
<stop offset="0.1396" stop-color="#FF8E1A"/>
<stop offset="0.3716" stop-color="#FF7428"/>
<stop offset="0.6676" stop-color="#FF4B3F"/>
<stop offset="0.9944" stop-color="#FF155D"/>
</linearGradient>
<linearGradient id="paint4_linear_63_1827" x1="80.0806" y1="130.225" x2="73.6914" y2="118.102" gradientUnits="userSpaceOnUse">
<stop stop-color="#FF9715"/>
<stop offset="0.1396" stop-color="#FF8E1A"/>
<stop offset="0.3716" stop-color="#FF7428"/>
<stop offset="0.6676" stop-color="#FF4B3F"/>
<stop offset="0.9944" stop-color="#FF155D"/>
</linearGradient>
<linearGradient id="paint5_linear_63_1827" x1="93.0808" y1="130.225" x2="87.6032" y2="117.004" gradientUnits="userSpaceOnUse">
<stop stop-color="#FF9715"/>
<stop offset="0.1396" stop-color="#FF8E1A"/>
<stop offset="0.3716" stop-color="#FF7428"/>
<stop offset="0.6676" stop-color="#FF4B3F"/>
<stop offset="0.9944" stop-color="#FF155D"/>
</linearGradient>
<linearGradient id="paint6_linear_63_1827" x1="84.3389" y1="97.1767" x2="43.2213" y2="14.9102" gradientUnits="userSpaceOnUse">
<stop stop-color="#FF9715"/>
<stop offset="0.1396" stop-color="#FF8E1A"/>
<stop offset="0.3716" stop-color="#FF7428"/>
<stop offset="0.6676" stop-color="#FF4B3F"/>
<stop offset="0.9944" stop-color="#FF155D"/>
</linearGradient>
</defs>
</svg>
