<svg viewBox="0 0 114 24" fill="none" xmlns="http://www.w3.org/2000/svg">
<path fill-rule="evenodd" clip-rule="evenodd" d="M32.0947 5.56282e-07V0.966016C32.0947 4.66 28.9927 7.65457 25.1663 7.65457H12.0844V6.68855C12.0844 2.99456 15.1863 -1.57221e-07 19.0128 0L32.0947 5.56282e-07ZM0 8.12638L0.896731 7.5592C4.07396 5.54959 8.33488 6.38431 10.4494 9.43058L11.5676 11.0416C12.7942 9.97917 14.4154 9.33287 16.1931 9.33287L24.6119 9.33287V10.2989C24.6119 13.9929 21.5099 16.9874 17.6835 16.9874H15.6947L19.2702 22.3382L18.3735 22.9054C15.1963 24.915 10.9353 24.0803 8.82085 21.034L0 8.12638Z" fill="url(#paint0_linear_151_7)"/>
<path d="M37.1411 9.33672H38.8512V18.4324H40.7586V7.68585H37.1411V9.33672Z" fill="white"/>
<path d="M45.969 18.4324H47.9586V13.9877H52.5462V12.3369H47.9586V9.33672H53.2039V7.68585H45.969V18.4324Z" fill="white"/>
<path d="M56.5398 14.3052C56.5398 17.4482 58.4966 18.6388 60.963 18.6388C63.4459 18.6388 65.4355 17.4482 65.4355 14.3052V7.68585H63.4459V14.3052C63.4459 16.4958 62.2455 17.0196 60.9794 17.0196C59.7298 17.0196 58.5294 16.4958 58.5294 14.3052V7.68585H56.5398V14.3052Z" fill="white"/>
<path d="M68.7714 9.33672H72.1258V18.4324H74.1154V9.33672H77.4697V7.68585H68.7714V9.33672Z" fill="white"/>
<path d="M80.8057 14.3052C80.8057 17.4482 82.7624 18.6388 85.2288 18.6388C87.7117 18.6388 89.7013 17.4482 89.7013 14.3052V7.68585H87.7117V14.3052C87.7117 16.4958 86.5114 17.0196 85.2453 17.0196C83.9956 17.0196 82.7953 16.4958 82.7953 14.3052V7.68585H80.8057V14.3052Z" fill="white"/>
<path d="M95.849 13.0353V9.33672H97.6248C99.2198 9.33672 100.354 9.86056 100.354 11.2574C100.354 12.5591 99.2034 13.0353 97.6248 13.0353H95.849ZM93.8594 18.4324H95.849V14.6862H97.6413H97.9537L100.157 18.4324H102.443L100.058 14.3687C101.588 13.8766 102.443 12.829 102.443 11.2574C102.443 8.92401 100.683 7.68585 97.6413 7.68585H93.8594V18.4324Z" fill="white"/>
<path d="M106.272 18.4324H114V16.7815H108.261V13.575H113.013V11.9241H108.261V9.33672H114V7.68585H106.272V18.4324Z" fill="white"/>
<defs>
<linearGradient id="paint0_linear_151_7" x1="1.20627" y1="21.9802" x2="36.7547" y2="-2.39027" gradientUnits="userSpaceOnUse">
<stop stop-color="#F6C54B"/>
<stop offset="0.25" stop-color="#F8D565"/>
<stop offset="0.520833" stop-color="#B8CFA5"/>
<stop offset="0.770833" stop-color="#439DD1"/>
<stop offset="1" stop-color="#1179E7"/>
</linearGradient>
</defs>
</svg>
