<svg viewBox="0 0 300 69" fill="none" xmlns="http://www.w3.org/2000/svg">
  <path d="M13.123 10.2533H0V0.825439H38.1719V10.2533H25.1224V42.8668H13.123V10.2533Z" fill="currentColor"/>
  <path d="M83.0413 33.7142V42.932H48.7761V0.825439H82.2041V10.0433H60.7094V17.1322H79.6192V26.0097H60.7094V33.7142H83.0413Z" fill="currentColor"/>
  <path d="M187.372 0.825439V42.8668H175.299V26.4876H158.827V42.8668H146.754V0.825439H158.827V16.6543H175.299V0.825439H187.372Z" fill="currentColor"/>
  <path d="M202.029 0.825439H214.102V42.8668H202.029V0.825439Z" fill="currentColor"/>
  <path d="M228.753 0.825439H240.825V42.8668H228.753V0.825439Z" fill="currentColor"/>
  <path d="M284.028 34.7497H266.021L262.673 42.9393H250.387L269.23 0.897949H281.09L300 42.9393H287.435L284.013 34.7497H284.028ZM280.54 25.9447L275.025 12.4546L269.51 25.9447H280.532H280.54Z" fill="currentColor"/>
  <path d="M93.5792 20.4704C93.5792 8.10995 102.825 0 116.895 0C123.512 0 129.805 1.32511 134.49 3.50466L128.006 31.1219C120.956 10.4922 114.083 5.55387 109.522 5.55387C106.695 5.55387 104.514 7.50894 104.514 12.107C104.514 26.7701 114.325 35.872 128.006 35.872C132.867 35.872 134.755 35.4955 134.755 35.4955C131.67 40.4411 127.242 43.6924 118.055 43.6924C103.287 43.6924 93.5866 34.0328 93.5866 20.4631L93.5792 20.4704Z" fill="currentColor"/>
  <path d="M193.445 55.4735L193.356 56.118H181.878L181.82 56.5525C181.35 59.5864 182.503 61.136 185.697 61.136C188.892 61.136 189.809 59.8833 190.074 58.8044L190.25 58.131H193.033C192.38 61.3967 190.191 63.7066 185.462 63.7066C180.373 63.7066 178.449 60.5278 179.044 56.118L179.161 55.2418C179.756 50.8393 182.297 47.6243 187.533 47.6243C192.475 47.6243 194.282 50.1659 193.452 55.4735H193.445ZM182.26 54.0471H190.779C191.043 51.3896 190.213 50.05 187.136 50.05C184.059 50.05 182.848 51.3896 182.253 54.0471H182.26Z" fill="currentColor"/>
  <path d="M195.486 58.3048H198.269L198.211 58.8044C197.976 60.7305 199.481 61.3098 201.824 61.3098C204.372 61.3098 205.701 60.6654 205.877 59.5285L205.936 59.152C206.112 57.9572 205.642 57.3417 204.041 57.0811L200.135 56.4656C197.469 56.0601 196.228 54.4236 196.551 52.2368L196.639 51.6503C197.05 48.9059 199.393 47.6243 203.27 47.6243C208.448 47.6243 209.571 49.9559 209.248 53.0188H206.465L206.524 52.4613C206.7 50.8538 205.958 50.0428 203.182 50.0428C200.546 50.0428 199.635 50.5714 199.393 51.8241L199.334 52.1716C199.158 53.1637 199.599 53.8371 200.964 54.0398L204.842 54.6263C207.889 55.1187 209.101 56.6973 208.749 58.971L208.661 59.5575C208.22 62.5046 205.701 63.6993 201.736 63.6993C197.77 63.6993 194.987 62.4177 195.493 58.3048H195.486Z" fill="currentColor"/>
  <path d="M217.473 63.6703H220.256V64.1048C220.256 65.3864 221.027 66.2626 223.774 66.2626C226.968 66.2626 228.327 64.952 228.775 62.2366L229.274 59.1447H229.127C228.062 61.2156 226.197 62.5262 223.355 62.5262C219.125 62.5262 217.554 59.4053 218.178 55.4662L218.325 54.5321C218.949 50.6799 221.49 47.6169 225.72 47.6169C228.562 47.6169 230.008 48.9276 230.427 50.9985H230.574L231.08 47.9355H233.893L231.616 62.0845C230.963 66.1684 228.745 68.7969 223.685 68.7969C219.221 68.7969 217.326 66.6102 217.473 63.6631V63.6703ZM221.145 55.3866C220.638 58.4495 221.585 59.9412 224.633 59.9412C227.974 59.9412 229.399 58.3916 229.81 55.7993L230.045 54.3728C230.574 51.223 229.538 50.231 226.197 50.231C223.149 50.231 221.732 51.7516 221.284 54.4597L221.137 55.3938L221.145 55.3866Z" fill="currentColor"/>
  <path d="M250.401 53.142L248.742 63.4098H245.959L247.435 54.1051C247.941 50.9552 246.898 50.2239 244.269 50.2239C241.787 50.2239 240.098 50.9552 239.592 54.1051L238.086 63.4098H235.303L237.785 47.9502H240.568L240.098 50.8683H240.245C241.398 48.9133 242.727 47.6316 245.9 47.6316C249.3 47.6316 250.989 49.3839 250.394 53.1493L250.401 53.142Z" fill="currentColor"/>
  <path d="M265.492 55.9658L265.581 55.3504C266.234 50.7958 268.893 47.6169 273.122 47.6169C275.964 47.6169 277.382 48.9565 277.771 51.2954H277.918L278.454 47.9428H281.266L278.784 63.4024H275.972L276.508 60.0498H276.361C275.267 62.3814 273.372 63.6993 270.53 63.6993C266.3 63.6993 264.846 60.4915 265.5 55.9658H265.492ZM277.088 56.4003L277.264 55.2055C277.83 51.643 277.059 50.2165 273.563 50.2165C270.369 50.2165 269.098 51.614 268.533 55.3214L268.445 55.9948C267.879 59.7022 268.621 61.1287 271.815 61.1287C275.304 61.1287 276.581 59.7022 277.081 56.4003H277.088Z" fill="currentColor"/>
  <path d="M175.306 42.8669L173.947 51.2955H173.801C173.419 48.9639 171.994 47.6171 169.152 47.6171C164.922 47.6171 162.256 50.7959 161.61 55.3505L161.522 55.966C160.868 60.4844 162.322 63.6994 166.552 63.6994C169.394 63.6994 171.289 62.3888 172.383 60.0499H172.53L171.994 63.4025H174.807L178.119 42.8669H175.306ZM173.301 55.2056L173.125 56.4004C172.618 59.6951 171.348 61.1288 167.86 61.1288C164.665 61.1288 163.923 59.7023 164.489 55.9949L164.577 55.3215C165.142 51.6141 166.413 50.2166 169.607 50.2166C173.096 50.2166 173.867 51.6431 173.308 55.2056H173.301Z" fill="currentColor"/>
  <path d="M211.084 63.4097H213.86L216.349 47.9429H213.566L211.084 63.4097Z" fill="currentColor"/>
  <path d="M214.08 42.8669L213.625 45.6113H217.003L217.451 42.8669H214.08Z" fill="currentColor"/>
  <path d="M293.427 47.6244C290.556 47.6244 288.691 48.964 287.597 51.3028H287.42L288.779 42.8743H285.996L282.684 63.4098H285.467L286.003 60.0572H286.179C286.561 62.3888 287.957 63.7067 290.828 63.7067C295.028 63.7067 297.635 60.4989 298.34 55.9733L298.458 55.3868C299.17 50.8322 297.628 47.6244 293.427 47.6244ZM295.528 55.3578L295.381 56.0022C294.815 59.7097 293.545 61.1361 290.351 61.1361C286.892 61.1361 286.091 59.7097 286.591 56.4077L286.767 55.213C287.362 51.6504 288.632 50.2239 292.091 50.2239C295.285 50.2239 296.086 51.6504 295.52 55.3578H295.528Z" fill="currentColor"/>
  <path d="M261.762 42.8669L258.45 63.4097H261.233L264.545 42.8669H261.762Z" fill="currentColor"/>
</svg>
