<svg viewBox="0 0 300 94" fill="none" xmlns="http://www.w3.org/2000/svg">
  <path d="M193.445 80.3831L193.356 81.0366H181.878L181.82 81.4772C181.35 84.5542 182.503 86.1257 185.697 86.1257C188.892 86.1257 189.809 84.8553 190.074 83.7611L190.25 83.0781H193.033C192.38 86.3901 190.191 88.7327 185.462 88.7327C180.373 88.7327 178.449 85.5089 179.044 81.0366L179.161 80.1481C179.756 75.6832 182.297 72.4226 187.533 72.4226C192.475 72.4226 194.282 75.0002 193.452 80.3831H193.445ZM182.26 78.9364H190.779C191.043 76.2413 190.213 74.8827 187.136 74.8827C184.059 74.8827 182.848 76.2413 182.253 78.9364H182.26Z" fill="currentColor"/>
  <path d="M195.486 83.2544H198.269L198.211 83.7611C197.976 85.7145 199.481 86.302 201.824 86.302C204.372 86.302 205.701 85.6484 205.877 84.4955L205.936 84.1136C206.112 82.9019 205.642 82.2777 204.041 82.0133L200.135 81.3891C197.469 80.9779 196.228 79.3182 196.551 77.1005L196.639 76.5056C197.05 73.7224 199.393 72.4226 203.27 72.4226C208.448 72.4226 209.571 74.7872 209.248 77.8936H206.465L206.524 77.3281C206.7 75.6978 205.958 74.8754 203.182 74.8754C200.546 74.8754 199.635 75.4114 199.393 76.6819L199.334 77.0344C199.158 78.0404 199.599 78.7234 200.964 78.929L204.842 79.5238C207.889 80.0232 209.101 81.6241 208.749 83.93L208.661 84.5248C208.22 87.5137 205.701 88.7254 201.736 88.7254C197.77 88.7254 194.987 87.4255 195.493 83.2544H195.486Z" fill="currentColor"/>
  <path d="M217.473 88.696H220.256V89.1366C220.256 90.4364 221.027 91.325 223.774 91.325C226.968 91.325 228.327 89.9958 228.775 87.242L229.274 84.1063H229.127C228.062 86.2065 226.197 87.5357 223.355 87.5357C219.125 87.5357 217.554 84.3706 218.178 80.3757L218.325 79.4284C218.949 75.5216 221.49 72.4153 225.72 72.4153C228.562 72.4153 230.008 73.7445 230.427 75.8447H230.574L231.08 72.7384H233.893L231.616 87.0878C230.963 91.2295 228.745 93.8953 223.685 93.8953C219.221 93.8953 217.326 91.6775 217.473 88.6887V88.696ZM221.145 80.2949C220.638 83.4013 221.585 84.9141 224.633 84.9141C227.974 84.9141 229.399 83.3425 229.81 80.7135L230.045 79.2668C230.574 76.0724 229.538 75.0663 226.197 75.0663C223.149 75.0663 221.732 76.6085 221.284 79.355L221.137 80.3023L221.145 80.2949Z" fill="currentColor"/>
  <path d="M250.401 78.0184L248.742 88.4316H245.959L247.435 78.9951C247.941 75.8006 246.898 75.0589 244.269 75.0589C241.787 75.0589 240.098 75.8006 239.592 78.9951L238.086 88.4316H235.303L237.785 72.7531H240.568L240.098 75.7125H240.245C241.398 73.7297 242.727 72.4299 245.9 72.4299C249.3 72.4299 250.989 74.2071 250.394 78.0257L250.401 78.0184Z" fill="currentColor"/>
  <path d="M265.492 80.8898L265.581 80.2656C266.234 75.6464 268.893 72.4226 273.122 72.4226C275.964 72.4226 277.382 73.7812 277.771 76.1531H277.918L278.454 72.7531H281.266L278.784 88.4316H275.972L276.508 85.0315H276.361C275.267 87.3962 273.372 88.7327 270.53 88.7327C266.3 88.7327 264.846 85.4795 265.5 80.8898H265.492ZM277.088 81.3304L277.264 80.1187C277.83 76.5056 277.059 75.059 273.563 75.059C270.369 75.059 269.098 76.4763 268.533 80.2362L268.445 80.9191C267.879 84.679 268.621 86.1257 271.815 86.1257C275.304 86.1257 276.581 84.679 277.081 81.3304H277.088Z" fill="currentColor"/>
  <path d="M175.306 67.605L173.947 76.1529H173.801C173.419 73.7883 171.994 72.4224 169.152 72.4224C164.922 72.4224 162.256 75.6462 161.61 80.2653L161.522 80.8895C160.868 85.4719 162.322 88.7325 166.552 88.7325C169.394 88.7325 171.289 87.4033 172.383 85.0313H172.53L171.994 88.4314H174.807L178.119 67.605H175.306ZM173.301 80.1184L173.125 81.3301C172.618 84.6715 171.348 86.1255 167.86 86.1255C164.665 86.1255 163.923 84.6788 164.489 80.9189L164.577 80.2359C165.142 76.476 166.413 75.0587 169.607 75.0587C173.096 75.0587 173.867 76.5054 173.308 80.1184H173.301Z" fill="currentColor"/>
  <path d="M211.084 88.4315H213.86L216.349 72.7529H213.566L211.084 88.4315Z" fill="currentColor"/>
  <path d="M214.08 67.605L213.625 70.3809H217.003L217.451 67.605H214.08Z" fill="currentColor"/>
  <path d="M293.428 72.4224C290.556 72.4224 288.691 73.7809 287.597 76.1529H287.42L288.779 67.605H285.996L282.684 88.4314H285.467L286.003 85.0313H286.179C286.561 87.3959 287.957 88.7325 290.828 88.7325C295.028 88.7325 297.635 85.4793 298.34 80.8895L298.458 80.2947C299.17 75.6756 297.628 72.4224 293.428 72.4224ZM295.528 80.2653L295.381 80.9189C294.815 84.6788 293.545 86.1255 290.351 86.1255C286.892 86.1255 286.091 84.6788 286.591 81.3301L286.767 80.1184C287.362 76.5054 288.632 75.0587 292.091 75.0587C295.285 75.0587 296.086 76.5054 295.52 80.2653H295.528Z" fill="currentColor"/>
  <path d="M261.762 67.605L258.45 88.4314H261.233L264.545 67.605H261.762Z" fill="currentColor"/>
  <path d="M13.123 34.5296H0V24.9683H38.1719V34.5296H25.1224V67.6051H13.123V34.5296Z" fill="currentColor"/>
  <path d="M83.0412 58.3228V67.6712H48.776V24.9683H82.204V34.3166H60.7093V41.506H79.619V50.5092H60.7093V58.3228H83.0412Z" fill="currentColor"/>
  <path d="M187.372 24.9683V67.6051H175.299V50.9939H158.827V67.6051H146.754V24.9683H158.827V41.0213H175.299V24.9683H187.372Z" fill="currentColor"/>
  <path d="M202.029 24.9683H214.102V67.6051H202.029V24.9683Z" fill="currentColor"/>
  <path d="M228.753 24.9683H240.825V67.6051H228.753V24.9683Z" fill="currentColor"/>
  <path d="M284.028 59.373H266.021L262.673 67.6786H250.387L269.23 25.0417H281.09L300 67.6786H287.435L284.013 59.373H284.028ZM280.539 50.4432L275.024 36.7621L269.509 50.4432H280.532H280.539Z" fill="currentColor"/>
  <path d="M118.141 56.2967L107.908 46.6318L118.141 36.9668L126.653 44.6561L136.591 35.3725L116.652 22.0308L90.3262 46.6318L116.652 71.2328L136.591 57.891L126.653 48.6075L118.141 56.2967Z" fill="currentColor"/>
</svg>
