<svg fill="none" viewBox="0 0 88 104" xmlns="http://www.w3.org/2000/svg">
  <mask id="h1" x="0" y="0" width="88" height="104" style="mask-type:alpha" maskUnits="userSpaceOnUse">
    <rect width="88" height="104" fill="#D9D9D9"/>
  </mask>
  <g mask="url(#h1)">
    <path d="m18.158 86.717h3.4163c2.291 0 3.6549 1.4185 3.6549 3.1627 0 1.7592-1.3639 3.1776-3.6549 3.1776h-1.6169v3.1776h-1.7994v-9.5179zm3.4163 4.6238c1.124 0 1.8412-0.6098 1.8412-1.4611s-0.7172-1.4612-1.8412-1.4612h-1.6169v2.9223h1.6169z" fill="url(#g1)"/>
    <path d="m28.155 88.533v2.0133h2.7552v1.8158h-2.7552v2.0573h5.0045v1.8157h-6.8039v-9.5179h6.8039v1.8158h-5.0045z" fill="url(#f1)"/>
    <path d="m34.588 86.717h3.4157c2.2916 0 3.6555 1.4185 3.6555 3.1627 0.0041 0.5943-0.1677 1.1763-0.4932 1.6716-0.3256 0.4953-0.7901 0.8813-1.3343 1.1086l1.8275 3.575h-1.8138l-1.6448-3.1915-0.4356 0.0139h-1.3776v3.1776h-1.7994v-9.5179zm3.4157 4.6238c1.1252 0 1.8417-0.6098 1.8417-1.4611s-0.7165-1.4612-1.8417-1.4612h-1.6163v2.9223h1.6163z" fill="url(#e1)"/>
    <path d="m42.9 92.549v-5.8448h1.7994v5.8448c-0.0056 0.2737 0.043 0.5458 0.1429 0.8003s0.2491 0.4863 0.439 0.6819c0.1898 0.1956 0.4164 0.3509 0.6665 0.457s0.5187 0.1607 0.79 0.1607 0.5398-0.0546 0.7899-0.1607 0.4767-0.2614 0.6665-0.457c0.1899-0.1956 0.3391-0.4274 0.439-0.6819 0.1-0.2545 0.1485-0.5266 0.1429-0.8003v-5.8448h1.7994v5.8448c0 2.3829-1.7152 3.8025-3.838 3.8025-2.1085 0-3.8375-1.4196-3.8375-3.8025z" fill="url(#d1)"/>
    <path d="m56.034 90.887 3.1489 5.348h-1.9396l-2.3197-3.9434-1.1246 1.4184v2.525h-1.7994v-9.5179h1.7994v4.3686l3.4723-4.3686h2.0662l-3.3035 4.1699z" fill="url(#c1)"/>
    <path d="m67.059 93.938h-3.7814l-0.8716 2.2974h-1.8979l3.8238-9.5179h1.6866l3.8238 9.5179h-1.9116l-0.8717-2.2974zm-0.6891-1.8158-1.1944-3.1777-1.2093 3.1777h2.4037z" fill="url(#b1)"/>
    <path d="m44.085 7.0271c-14.224 0-25.678 9.5367-25.678 25.525v14.129c-0.0247 1.2147 0.384 2.398 1.1517 3.334 0.7678 0.9359 1.8433 1.5622 3.0305 1.7647 0.6959 4.295 2.6405 8.2845 5.587 11.462 2.9464 3.178 6.762 5.4011 10.962 6.3873s8.5967 0.691 12.631-0.848c4.034-1.5391 7.5241-4.2527 10.027-7.7965 0.595 0.2102 1.2195 0.3232 1.8498 0.3347 0.8018 0.0099 1.5976-0.1414 2.3408-0.4452 0.7433-0.3037 1.4192-0.7537 1.9883-1.3238 0.569-0.57 1.0199-1.2488 1.3264-1.9965 0.3064-0.7478 0.4622-1.5497 0.4583-2.3588v-22.643c0-15.988-11.55-25.525-25.675-25.525zm-18.77 40.398c-0.1191 0.3557-0.3485 0.6632-0.6543 0.8771-0.3058 0.2138-0.6717 0.3226-1.0436 0.3103-0.484-0.0125-0.9526-0.1748-1.3422-0.4649-0.2112-0.1776-0.3779-0.403-0.4867-0.6577-0.1089-0.2547-0.1567-0.5317-0.1398-0.8086v-14.129c0-5.8289 1.7295-10.82 4.8002-14.589l7.2179 9.3516-8.0806 19.458-0.2709 0.6523zm18.768 19.505c-4.3712-0.0074-8.5999-1.5695-11.943-4.4117-3.3429-2.8421-5.586-6.7824-6.335-11.128 1.1405-0.5503 2.0332-1.5146 2.4997-2.7003l7.6732-18.477 23.008 28.818c0.0383 0.0481 0.0851 0.0781 0.1243 0.1246-1.7158 2.404-3.9729 4.3625-6.5855 5.7142-2.6125 1.3517-5.5059 2.058-8.4418 2.0606zm22.435-11.734c0 2.0783-1.7615 2.8528-2.8719 2.8528-0.026 0-0.0586-0.0067-0.0856-0.0075-0.3989-0.0104-0.7903-0.1113-1.1452-0.2954-0.3549-0.184-0.6641-0.4464-0.9047-0.7677l-0.6486-0.8124-32.114-40.547c3.868-3.3823 9.1204-5.3202 15.336-5.3202 6.2374 0 11.892 2.0907 15.923 5.887 4.2593 4.0119 6.5108 9.6714 6.5108 16.367v22.643z" fill="url(#a1)"/>
  </g>
  <defs>
    <linearGradient id="g1" x1="18.158" x2="25.229" y1="91.476" y2="91.476" gradientUnits="userSpaceOnUse">
      <stop stop-color="#3FFFC1" offset="0"/>
      <stop stop-color="#3CF5C8" offset=".21044"/>
      <stop stop-color="#35DCDD" offset=".56024"/>
      <stop stop-color="#2AB4FF" offset=".99438"/>
    </linearGradient>
    <linearGradient id="f1" x1="26.356" x2="33.159" y1="91.476" y2="91.476" gradientUnits="userSpaceOnUse">
      <stop stop-color="#3FFFC1" offset="0"/>
      <stop stop-color="#3CF5C8" offset=".21044"/>
      <stop stop-color="#35DCDD" offset=".56024"/>
      <stop stop-color="#2AB4FF" offset=".99438"/>
    </linearGradient>
    <linearGradient id="e1" x1="34.588" x2="41.659" y1="91.476" y2="91.476" gradientUnits="userSpaceOnUse">
      <stop stop-color="#3FFFC1" offset="0"/>
      <stop stop-color="#3CF5C8" offset=".21044"/>
      <stop stop-color="#35DCDD" offset=".56024"/>
      <stop stop-color="#2AB4FF" offset=".99438"/>
    </linearGradient>
    <linearGradient id="d1" x1="42.9" x2="50.576" y1="91.528" y2="91.528" gradientUnits="userSpaceOnUse">
      <stop stop-color="#3FFFC1" offset="0"/>
      <stop stop-color="#3CF5C8" offset=".21044"/>
      <stop stop-color="#35DCDD" offset=".56024"/>
      <stop stop-color="#2AB4FF" offset=".99438"/>
    </linearGradient>
    <linearGradient id="c1" x1="52" x2="59.338" y1="91.476" y2="91.476" gradientUnits="userSpaceOnUse">
      <stop stop-color="#3FFFC1" offset="0"/>
      <stop stop-color="#3CF5C8" offset=".21044"/>
      <stop stop-color="#35DCDD" offset=".56024"/>
      <stop stop-color="#2AB4FF" offset=".99438"/>
    </linearGradient>
    <linearGradient id="b1" x1="60.508" x2="69.842" y1="91.476" y2="91.476" gradientUnits="userSpaceOnUse">
      <stop stop-color="#3FFFC1" offset="0"/>
      <stop stop-color="#3CF5C8" offset=".21044"/>
      <stop stop-color="#35DCDD" offset=".56024"/>
      <stop stop-color="#2AB4FF" offset=".99438"/>
    </linearGradient>
    <linearGradient id="a1" x1="18.406" x2="69.761" y1="38.614" y2="38.614" gradientUnits="userSpaceOnUse">
      <stop stop-color="#3FFFC1" offset="0"/>
      <stop stop-color="#3CF5C8" offset=".21044"/>
      <stop stop-color="#35DCDD" offset=".56024"/>
      <stop stop-color="#2AB4FF" offset=".99438"/>
    </linearGradient>
  </defs>
</svg>
