<svg viewBox="0 0 179 215" fill="none" xmlns="http://www.w3.org/2000/svg">
  <path d="M89.5045 0C39.9254 0 0 32.4563 0 86.87V134.955C0 144.677 6.83201 150.841 14.5776 152.307C20.5222 187.809 51.8086 215 89.4997 215C101.582 214.99 113.487 212.139 124.225 206.684C134.964 201.229 144.226 193.327 151.242 183.635C153.316 184.351 155.492 184.735 157.689 184.775C168.491 184.775 179 176.643 179 163.932V86.87C179 32.4563 138.741 0 89.5045 0ZM24.0809 137.486C22.9404 140.168 20.9492 141.527 18.1627 141.527C16.4754 141.485 14.8421 140.932 13.484 139.945C12.2732 138.985 11.3004 137.448 11.3004 134.955V86.87C11.3004 67.0324 17.3289 50.0473 28.0323 37.2183L53.1911 69.0443L25.0251 135.266L24.0809 137.486ZM89.4997 203.866C57.5819 203.866 31.0539 180.964 25.79 150.979C29.7652 149.107 32.8768 145.825 34.5029 141.79L61.2491 78.9056L141.446 176.982C141.58 177.146 141.743 177.248 141.88 177.406C135.899 185.588 128.032 192.253 118.925 196.853C109.819 201.454 99.7333 203.857 89.4997 203.866ZM167.7 163.932C167.7 171.005 161.56 173.641 157.689 173.641C157.599 173.641 157.485 173.618 157.391 173.615C156.001 173.58 154.636 173.236 153.399 172.61C152.162 171.984 151.084 171.09 150.246 169.997L147.985 167.232L36.0485 29.2403C49.5308 17.7289 67.8391 11.1338 89.5045 11.1338C111.246 11.1338 130.956 18.2491 145.005 31.1692C159.852 44.8228 167.7 64.0838 167.7 86.87L167.7 163.932Z" fill="url(#paint0_linear_63_270)"/>
  <defs>
    <linearGradient id="paint0_linear_63_270" x1="1.1305e-05" y1="107.5" x2="179" y2="107.5" gradientUnits="userSpaceOnUse">
      <stop stop-color="#FF9715"/>
      <stop offset="0.13957" stop-color="#FF8E1A"/>
      <stop offset="0.37163" stop-color="#FF7428"/>
      <stop offset="0.66758" stop-color="#FF4B3F"/>
      <stop offset="0.99438" stop-color="#FF155D"/>
    </linearGradient>
  </defs>
</svg>
