<svg viewBox="0 0 184 243" fill="none" xmlns="http://www.w3.org/2000/svg">
  <path d="M183.121 119.96C183.092 119.422 180.4 87.475 161.113 61.6845C165.405 58.0437 168.757 53.3992 170.879 48.1524C173.001 42.9055 173.829 37.2143 173.293 31.5705C172.756 25.9266 170.871 20.5001 167.799 15.7597C164.727 11.0194 160.562 7.10792 155.663 4.36336C150.764 1.6188 145.279 0.123724 139.681 0.00735592C134.084 -0.109012 128.542 1.15682 123.536 3.69546C118.53 6.2341 114.21 9.96916 110.949 14.5778C107.687 19.1865 105.583 24.5302 104.819 30.1469C100.79 29.6782 96.7381 29.4377 92.6828 29.4263C6.36427 29.4263 0.512949 114.678 0.406653 119.982C0.156852 123.562 -3.74252 168.21 18.8828 214.995L20.3763 218.082H40.7109C47.0702 225.876 55.0513 232.151 64.0835 236.459C73.1158 240.766 82.9761 243 92.9598 243C102.943 243 112.804 240.766 121.836 236.459C130.868 232.151 138.849 225.876 145.209 218.082H165.172L166.713 215.186C189.418 172.545 183.296 121.865 183.121 119.96ZM138.954 11.0234C143.817 11.0005 148.567 12.5052 152.55 15.3304C156.533 18.1556 159.553 22.1622 161.194 26.7982C162.835 31.4341 163.016 36.4714 161.713 41.2159C160.409 45.9604 157.684 50.1788 153.915 53.2898C144.553 43.7112 132.119 35.8154 115.636 31.9706C116.338 26.2025 119.094 20.892 123.387 17.0354C127.68 13.1787 133.215 11.0411 138.954 11.0234V11.0234ZM92.9599 231.977C79.3956 231.978 66.2817 227.047 56.005 218.082C52.2733 214.849 48.9672 211.144 46.1679 207.058C41.1026 199.685 37.8249 191.207 36.6008 182.311C35.3768 173.415 36.241 164.352 39.123 155.857C51.4826 151.991 62.9042 145.542 72.6502 136.928C82.3961 128.314 90.2499 117.726 95.7043 105.847C96.6171 103.853 97.463 101.823 98.2421 99.7565C99.5383 102.071 100.999 104.274 102.479 106.461C110.974 118.991 122.345 129.247 135.616 136.346C144.029 145.959 149.01 158.155 149.76 170.978C150.51 183.8 146.985 196.507 139.752 207.058C136.952 211.144 133.646 214.849 129.915 218.082C119.638 227.047 106.524 231.978 92.9599 231.977ZM158.624 207.058H152.57C157.773 197.341 160.575 186.493 160.736 175.44C160.897 164.388 158.413 153.46 153.495 143.592C155.887 144.274 158.277 144.964 160.743 145.45V134.178C154.455 132.761 148.357 130.585 142.581 127.696C130.284 121.516 119.723 112.299 111.871 100.895C104.019 89.4917 99.1296 76.2692 97.6535 62.4475H86.6764C87.3515 69.9945 88.9404 77.4287 91.4072 84.5829C89.7019 92.2592 86.9088 99.6452 83.1147 106.511C74.8113 121.634 62.0283 133.734 46.5698 141.104C38.3566 144.955 29.5823 147.436 20.5868 148.449V159.565C22.7493 159.367 24.8879 159.087 27.0052 158.739C23.1614 175.087 25.4212 192.296 33.3498 207.058H27.2059C7.05725 163.201 11.2862 120.232 11.2862 120.232C11.2862 116.976 14.7937 40.4498 92.6828 40.4498C96.8195 40.4606 100.951 40.738 105.053 41.2804C109.117 41.817 113.135 42.6677 117.071 43.825C126.83 46.5821 135.835 51.5683 143.394 58.4005C146.412 61.1445 149.188 64.1497 151.69 67.382C154.771 71.2739 157.496 75.4417 159.831 79.8338C170.301 99.8461 172.236 120.307 172.262 120.732C172.305 121.211 178.044 167.957 158.624 207.058V207.058Z" fill="url(#paint0_linear_63_277)"/>
  <defs>
    <linearGradient id="paint0_linear_63_277" x1="9.63508e-06" y1="121.5" x2="184" y2="121.5" gradientUnits="userSpaceOnUse">
      <stop stop-color="#3FFFC1"/>
      <stop offset="0.21044" stop-color="#3CF6C9"/>
      <stop offset="0.56024" stop-color="#35DCDE"/>
      <stop offset="0.99438" stop-color="#2AB4FF"/>
    </linearGradient>
  </defs>
</svg>
