<svg viewBox="0 0 179 217" fill="none" xmlns="http://www.w3.org/2000/svg">
  <path d="M89.5048 0C39.9251 0 0 32.9004 0 88.0587V176.303L25.8141 176.47C31.4319 188.51 40.3557 198.71 51.5483 205.884C62.7409 213.058 75.7424 216.912 89.0415 216.999C102.341 217.085 115.391 213.399 126.676 206.37C137.96 199.341 147.016 189.258 152.789 177.292L179 177.461V88.0587C179 32.9004 138.741 0 89.5048 0ZM89.5 205.714C78.2263 205.727 67.1849 202.514 57.6825 196.455C48.1801 190.396 40.6145 181.746 35.8812 171.526C31.148 161.307 29.4451 149.948 30.9743 138.792C32.5034 127.637 37.2005 117.152 44.5097 108.58H134.49C141.766 117.163 146.434 127.643 147.945 138.787C149.456 149.931 147.747 161.274 143.02 171.481C138.292 181.687 130.743 190.332 121.261 196.397C111.779 202.462 100.76 205.694 89.5 205.714L89.5 205.714ZM167.7 166.102L157.115 166.033C159.907 156.405 160.588 146.289 159.111 136.374C157.635 126.459 154.035 116.979 148.558 108.58H156.713V97.2936H22.6042V108.58H30.4421C25.0414 116.847 21.465 126.169 19.9506 135.924C18.4363 145.679 19.0187 155.644 21.6592 165.157L11.3004 165.09V88.0587C11.3004 42.1386 42.7281 11.2862 89.5048 11.2862C111.246 11.2862 130.956 18.4989 145.005 31.5957C159.852 45.4362 167.7 64.9608 167.7 88.0587V166.102Z" fill="url(#paint0_linear_63_263)"/>
  <defs>
    <linearGradient id="paint0_linear_63_263" x1="0" y1="108.5" x2="179" y2="108.5" gradientUnits="userSpaceOnUse">
      <stop stop-color="#0300D4"/>
      <stop offset="0.61104" stop-color="#1C71EF"/>
      <stop offset="0.99438" stop-color="#2AB4FF"/>
    </linearGradient>
  </defs>
</svg>
