<svg viewBox="0 0 110 34" fill="none" xmlns="http://www.w3.org/2000/svg">
  <path d="M79.3524 4.12272C79.3524 2.24963 80.8641 0.730957 82.7293 0.730957C84.5944 0.730957 86.1061 2.24963 86.1061 4.12272C86.1061 5.99714 84.5944 7.51581 82.7293 7.51581C80.8641 7.51581 79.3524 5.99714 79.3524 4.12272ZM30.7274 14.3801C32.3143 16.1549 33.1918 18.4511 33.1918 20.8363V32.5976H28.0144V20.6894C28.0036 18.3486 26.0793 16.4378 23.7371 16.4378C23.6028 16.4378 23.4563 16.4486 23.3099 16.4608C21.2163 16.675 19.46 18.6653 19.46 20.8133V32.5976H14.2825V20.723C14.2718 18.3716 12.3582 16.4486 10.0161 16.4486C9.88171 16.4486 9.73525 16.4608 9.58877 16.4716C7.50596 16.6872 5.73893 18.6761 5.73893 20.8363V32.5976H0.674316V20.6894C0.674316 15.4878 4.89505 11.2593 10.0725 11.2593C12.6619 11.2593 15.1264 12.344 16.9056 14.2333C18.6833 12.3332 21.1599 11.2593 23.7707 11.2593C24.053 11.2593 24.3231 11.2701 24.6039 11.293C26.9675 11.4964 29.1404 12.5934 30.7274 14.3801ZM65.5078 32.6191H60.3303V1.24033H65.5078V32.6191ZM75.4126 32.6191H70.2351V1.24033H75.4126V32.6191ZM85.3187 32.6084H80.1413V11.8009H85.3187V32.6084ZM109.518 24.0596H93.7709C94.4697 26.5701 96.7433 28.334 99.377 28.334C101.437 28.334 103.294 27.2815 104.364 25.5068L104.577 25.1565L108.855 27.2707L108.607 27.6898C106.659 30.9805 103.091 33.0261 99.287 33.0261H99.275C96.3711 33.0261 93.6473 31.8725 91.5873 29.7812C89.5273 27.6898 88.4134 24.9301 88.447 22.0127C88.4806 19.1519 89.6067 16.4716 91.6102 14.4475C93.6137 12.4236 96.2931 11.293 99.1299 11.2593H99.2642C102 11.2593 104.565 12.3562 106.512 14.3344C108.449 16.3139 109.518 18.9147 109.518 21.673V24.0596ZM93.8502 19.7622H104.284C103.541 17.5455 101.425 15.985 99.0613 15.985C96.6976 15.985 94.5812 17.5455 93.8502 19.7622ZM57.5393 22.1596C57.5393 28.1534 52.6763 33.0382 46.7113 33.0382C40.745 33.0382 35.882 28.1534 35.882 22.1596C35.882 16.167 40.7342 11.2808 46.7113 11.2808C52.687 11.2808 57.5393 16.167 57.5393 22.1596ZM52.4062 22.1704C52.4062 19.0157 49.8516 16.4486 46.7113 16.4486C43.571 16.4486 41.0151 19.0157 41.0151 22.1704C41.0151 25.3263 43.571 27.8933 46.7113 27.8933C49.8516 27.8933 52.4062 25.3263 52.4062 22.1704Z" fill="black"/>
</svg>
