<svg viewBox="0 0 95 37" fill="none" xmlns="http://www.w3.org/2000/svg">
  <path fill-rule="evenodd" clip-rule="evenodd" d="M40.9707 33.9005V12.7558L46.0263 11.7362V34.9646L40.9707 33.9005ZM54.1902 21.184C54.1902 14.8716 57.8022 12.995 63.3604 11.6841L66.2743 11.1965V16.6472L63.3604 17.1991C60.8556 17.6928 59.2474 19.0252 59.2474 21.975V34.963L54.1902 33.9005V21.184ZM32.8068 20.425V34.963L27.751 33.9005V20.4234C27.751 18.119 26.1222 16.4785 23.7225 16.4785C21.3229 16.4785 19.694 18.119 19.694 20.425V34.963L14.6382 33.9005V20.4234C14.6382 18.119 13.0094 16.4785 10.6097 16.4785C8.16704 16.4785 6.53961 18.119 6.53961 20.425V34.963L1.48242 33.9005V12.7558L6.53961 11.7362V14.1296C7.95361 12.3572 10.0968 11.2471 12.538 11.2471C14.5241 11.2471 16.9549 12.3848 18.3289 14.4194C19.7058 12.5657 22.0076 11.3499 24.8326 11.31C28.3899 11.2609 32.8068 13.5531 32.8068 20.425ZM82.1307 35.4506C75.1082 35.4506 70.4112 30.5933 70.4112 23.3273C70.4112 16.0615 75.1082 11.2487 82.1307 11.2487C88.8954 11.2487 93.3775 16.063 93.3775 23.3273C93.3775 30.5933 88.8954 35.4521 82.1307 35.4521V35.4506ZM82.1307 30.5489C85.7932 30.5489 88.2076 27.6511 88.2076 23.3273C88.2076 19.0037 85.7932 16.152 82.1307 16.152C78.2103 16.152 75.5809 19.0037 75.5809 23.3273C75.5809 27.6511 78.2103 30.5489 82.1322 30.5489H82.1307ZM43.6059 8.11783C41.6954 8.11783 40.4192 6.7962 40.4192 4.81988C40.4192 2.84201 41.6954 1.53418 43.6059 1.53418C45.4453 1.53418 46.6652 2.84355 46.6652 4.81988C46.6652 6.7962 45.4453 8.1163 43.6059 8.1163V8.11783Z" fill="black"/>
</svg>
