<svg viewBox="0 0 66 46" fill="none" xmlns="http://www.w3.org/2000/svg">
  <path d="M58.2771 18.434C55.2629 18.434 53.1082 19.8336 52.02 21.9063C52.02 17.0101 53.7215 12.744 57.7609 12.744C60.3288 12.744 61.3483 14.2283 61.8916 16.6598L65.6322 15.909C64.7528 11.7091 62.0947 9.66936 57.7865 9.66936C52.3747 9.66936 48.3253 13.8407 48.3253 23.191C48.3253 31.492 51.7012 35.5943 57.5192 35.5943C62.3278 35.5943 65.9281 32.2986 65.9281 26.8671C65.9281 22.624 63.6747 18.434 58.2771 18.434ZM57.5293 32.5268C54.5451 32.5268 52.4805 29.7708 52.1215 26.1206C53.0281 23.003 55.0385 21.4512 57.4134 21.4512C60.4676 21.4512 62.1919 23.7149 62.1919 26.9345C62.1919 30.3896 60.2288 32.5268 57.5293 32.5268ZM37.633 27.3049C36.4219 28.5206 33.6923 30.7154 31.7877 32.0359H43.2136V35.3259H26.4001V32.3216C28.3489 30.925 32.3954 27.8919 34.9277 25.3484C37.3513 22.9153 38.9384 20.6919 38.9384 17.4278C38.9384 14.2167 37.1811 12.8818 34.8062 12.8818C32.3725 12.8818 30.4279 14.2942 30.4279 17.244C30.4279 17.887 30.4994 18.6019 30.6767 19.4244L26.8577 19.0526C26.6919 18.3982 26.6084 17.7256 26.6089 17.0502C26.6089 13.113 29.3599 9.66936 34.9319 9.66936C39.5289 9.66936 42.9291 12.0651 42.9291 17.3028C42.9291 22.0656 39.4646 25.4919 37.906 27.0335L37.633 27.3049ZM0.155273 0.0678711H20.532V3.35784H0.155273V0.0678711ZM16.7114 9.93634V27.3049H16.71C16.71 28.8421 16.7457 29.7723 16.8173 30.6665H16.7457C16.3712 29.6431 15.9293 28.746 15.2716 27.5776L5.03962 9.93634H0.36403V35.3259H4.00727V17.9575H4.01014C4.01014 16.4187 3.97439 15.49 3.9029 14.5957H3.97439C4.34757 15.6191 4.7894 16.5162 5.44713 17.6832L15.6791 35.3259H20.3075V9.93634H16.7114ZM0.155273 41.9045H20.532V45.1772H0.155273V41.9045Z" fill="black"/>
</svg>
