<svg width="52" height="77" viewBox="0 0 52 77" fill="none" xmlns="http://www.w3.org/2000/svg">
  <path d="M18.4532 24.2339H39.7716C43.6931 24.2339 46.8802 27.4137 46.8802 31.3425C46.8802 35.2639 43.7005 38.4511 39.7716 38.4511H18.4532C14.5318 38.4511 11.3446 35.2713 11.3446 31.3425C11.352 27.4137 14.5318 24.2339 18.4532 24.2339Z" fill="currentColor"/>
  <path d="M11.352 38.385C15.2735 38.385 18.4606 41.5648 18.4606 45.4936C18.4606 49.415 15.2808 52.6022 11.352 52.6022C7.43052 52.6022 4.24341 49.4224 4.24341 45.4936C4.24341 41.5721 7.42318 38.385 11.352 38.385Z" fill="currentColor"/>
  <path d="M18.4532 52.6609H39.7716C43.6931 52.6609 46.8802 55.8406 46.8802 59.7695C46.8802 63.6909 43.7005 66.878 39.7716 66.878H18.4532C14.5318 66.878 11.3446 63.6983 11.3446 59.7695C11.3446 55.848 14.5244 52.6609 18.4532 52.6609Z" fill="currentColor"/>
</svg>
