<svg width="43" height="51" viewBox="0 0 43 51" fill="none" xmlns="http://www.w3.org/2000/svg">
  <path d="M42.1899 28.0465C39.9021 39.9786 31.7011 41.7306 24.0702 41.7306C14.6339 41.7306 11.4178 36.2151 11.4178 28.7459C11.4178 21.2766 14.6412 15.7612 22.7399 15.7612C27.9587 15.7612 31.7888 17.1238 35.3996 20.4114C38.1844 22.942 39.2077 24.1749 40.5453 23.3386C43.3448 21.5361 36.284 3.8435 24.8377 0.238647C27.4471 2.66832 29.9469 5.86943 30.7728 9.54639C30.7728 9.54639 26.6211 6.90042 20.5763 6.90042C8.23096 6.89321 0.285767 16.2586 0.285767 28.7459C0.285767 41.2331 7.66084 50.5264 22.1552 50.5264C33.8573 50.5264 43.3886 44.1458 42.1826 28.0465H42.1899Z" fill="currentColor"/>
</svg>
