<svg width="53" height="77" viewBox="0 0 53 77" fill="none" xmlns="http://www.w3.org/2000/svg">
  <path d="M51.3097 43.5034C50.8324 46.4702 49.3196 48.8495 46.9403 49.8336C42.5415 51.6548 36.8649 48.027 34.2506 41.7336C31.6363 35.4328 33.0903 28.853 37.4818 27.0317C38.4878 26.6132 39.5673 26.4883 40.6542 26.6058C38.5833 25.3133 36.2701 24.3293 33.7586 23.7418C31.1736 23.1396 28.5887 23.0001 26.0845 23.2718C25.9156 22.0601 25.0344 21.01 23.7713 20.7163C23.5583 20.6649 23.3527 20.6428 23.1397 20.6355C22.6477 18.6894 23.0222 16.6259 22.0309 14.7826C20.3932 11.7351 17.1253 10.7143 13.9456 11.0741L16.134 8.75357L12.3153 9.48058L13.4095 0.734375L9.89926 8.17342L7.31432 2.97417L7.04261 9.48792L2.65115 10.0974L5.3903 12.5061L0.83728 14.6284L6.25684 14.8855L5.12593 17.1546L7.61541 16.5818L7.58603 22.0014L10.7511 16.5525L15.3262 20.2169L12.7339 13.593C14.4303 13.0789 16.2661 12.9982 17.8964 13.7913C19.5634 14.5991 20.4006 16.0751 20.5842 17.8743C20.709 19.1007 20.7824 20.2756 21.0688 21.4139C20.6062 21.8178 20.2611 22.3612 20.1142 23.0001C19.9747 23.5949 20.0261 24.1898 20.217 24.7185C13.4389 27.3769 8.04133 33.2077 6.25684 40.8303C3.37816 53.1382 11.0302 65.4534 23.338 68.332C35.6459 71.2107 47.961 63.5587 50.8397 51.2509C51.4492 48.6439 51.5814 46.0296 51.3024 43.5107L51.3097 43.5034Z" fill="currentColor"/>
</svg>
