<svg width="52" height="77" viewBox="0 0 52 77" fill="none" xmlns="http://www.w3.org/2000/svg">
  <path d="M46.3442 45.2145C44.0456 57.3681 35.8061 59.1526 28.1394 59.1526C18.6589 59.1526 15.4277 53.5348 15.4277 45.9268C15.4277 38.3189 18.6662 32.701 26.8029 32.701C32.0462 32.701 35.8942 34.089 39.522 37.4376C42.3199 40.0152 43.348 41.271 44.6919 40.4191C47.5045 38.5832 40.4105 20.5621 28.9105 16.8903C31.5322 19.3651 34.0437 22.6256 34.8735 26.3709C34.8735 26.3709 30.7023 23.6758 24.6292 23.6758C12.2259 23.6684 4.24341 33.2077 4.24341 45.9268C4.24341 58.6459 11.6531 68.1118 26.2154 68.1118C37.9725 68.1118 47.5485 61.6127 46.3368 45.2145H46.3442Z" fill="currentColor"/>
</svg>
