<svg width="52" height="77" viewBox="0 0 52 77" fill="none" xmlns="http://www.w3.org/2000/svg">
  <path d="M22.8324 70.0137C21.9953 70.0137 21.6574 69.5437 21.5253 69.1471L21.9071 69.0149C21.9659 69.1545 22.2156 69.2352 22.5974 69.2352C23.5888 69.2352 24.9621 68.7212 25.3292 68.4275C21.6501 68.4568 17.8461 68.4935 14.1156 68.802C13.6603 68.8534 13.1976 68.8828 12.7497 68.8828C9.18805 68.8828 6.82341 67.3406 6.22858 64.6529C5.53094 64.4766 5.0022 64.0507 4.67174 63.3971C2.42461 58.9542 9.636 44.4139 12.008 39.6406C12.1989 39.2661 12.3531 38.9503 12.4633 38.7153C14.8279 34.6543 17.2586 30.8577 21.1287 28.8235C21.4225 28.684 21.7456 28.5812 22.054 28.4784C22.9646 28.1773 23.8165 27.8982 23.8826 26.8995V26.8334L23.9266 26.782C26.9669 23.2865 32.1441 22.7724 36.7191 22.3171C37.3507 22.251 37.9749 22.1923 38.5697 22.1262C38.7092 22.0601 38.8635 22.0307 39.025 22.0307C39.3775 22.0307 39.73 22.1776 40.0678 22.3171C40.3836 22.4493 40.714 22.5815 41.0078 22.5815H41.0739H41.0959C42.7115 22.8312 43.9673 23.8225 44.988 24.7992C45.1643 24.6303 45.3478 24.5422 45.5314 24.5422C46.4861 24.5422 46.8533 26.8628 46.9634 27.8615C47.0369 28.1406 46.9414 28.4049 46.8606 28.6399C46.8092 28.7795 46.7652 28.9116 46.7578 29.0365V29.154L46.6477 29.2054C46.5742 29.2348 46.5522 29.3008 46.5228 29.4477L46.5081 29.5138C46.141 30.7769 45.6783 32.3411 44.6135 33.4793L44.5547 33.5381H44.4666C44.3858 33.5381 44.1288 33.5381 43.9893 33.3398C43.9379 33.259 43.9158 33.1709 43.9158 33.0828C43.7469 33.1489 43.5927 33.2664 43.4238 33.3912C43.1521 33.5895 42.8731 33.8025 42.5353 33.8025C42.3076 33.8025 42.0873 33.707 41.8817 33.5087L41.8303 33.4573V33.3839C41.7642 32.98 41.8303 32.8478 42.1901 32.6642C42.4618 32.4439 42.807 32.275 43.1374 32.1061C43.6441 31.8564 44.1215 31.6141 44.4226 31.1588L44.4446 31.1294L44.474 31.1074C44.5768 31.0266 44.6208 30.8797 44.6649 30.7182C44.7236 30.5052 44.8044 30.2335 45.0688 30.1086H45.0908L45.1129 30.094C45.1863 30.0793 45.201 29.9985 45.201 29.9838V29.9471V29.903C45.3699 28.9851 45.0908 28.0892 44.3858 27.2446C43.086 25.6951 40.3689 24.5275 38.0704 24.5275C37.549 24.5275 37.079 24.5863 36.6751 24.7111C36.6898 24.7992 36.7118 24.88 36.7338 24.9681C36.8513 25.4602 36.9908 26.077 36.374 26.4515L35.9334 26.7159L36.0656 26.2165C36.2198 25.607 36.1463 25.2472 35.7938 24.9314C35.7645 24.902 35.7057 24.88 35.6396 24.88C35.5589 24.88 35.4928 24.9094 35.4707 24.9388C35.4707 24.9388 35.456 24.9608 35.4707 25.0049L35.4854 25.093C35.5074 25.2252 35.5442 25.4528 35.3239 25.6584L35.1035 25.8567L34.9934 25.5703C34.8098 25.1003 34.685 25.1003 34.5968 25.1003C34.494 25.1003 34.3618 25.137 34.1636 25.2105L34.1195 25.2252H34.0754C34.0754 25.2252 34.024 25.2839 34.002 25.3206C33.9433 25.4234 33.8478 25.585 33.6348 25.585C33.5834 25.585 33.532 25.5777 33.4806 25.5556C33.3998 25.5409 33.2823 25.5336 33.1575 25.5336C32.6581 25.5336 32.1661 25.7098 31.6521 25.8934C31.2922 26.0183 30.9251 26.1505 30.5505 26.2239C30.5212 26.2239 30.5065 26.2386 30.5065 26.2386C30.5065 26.2459 30.5065 26.3047 30.5065 26.3414C30.5065 26.4809 30.5065 26.7232 30.2494 26.8628L30.0952 26.9509L29.9851 26.804C29.8455 26.6131 29.7207 26.5911 29.6399 26.5911C29.4637 26.5911 29.2581 26.7012 29.0671 26.8261L29.2067 27.1859L29.1185 27.274C29.0231 27.3768 28.9056 27.4282 28.766 27.4282C28.6706 27.4282 28.5824 27.3989 28.5164 27.3768C28.4135 27.3475 28.2887 27.3328 28.1639 27.3328C27.6204 27.3328 27.055 27.6559 26.5116 27.9717C26.1958 28.1552 25.8653 28.3462 25.5495 28.4637C25.1897 28.6473 25.0135 29.0365 24.8225 29.4477C24.6536 29.8222 24.4774 30.2041 24.1322 30.4391L23.7137 30.7255L23.9119 29.668C22.8838 29.8149 20.4237 32.3558 19.3516 33.6776C20.1814 33.4867 21.0993 33.0094 22.0687 32.51C23.3979 31.8197 24.7638 31.1 26.0416 31.1C27.0256 31.1 27.8261 31.5113 28.4943 32.3631L28.5824 32.4733L28.509 32.5908C28.3989 32.767 28.252 32.8037 28.1492 32.8037C27.9656 32.8037 27.7893 32.6936 27.6204 32.5908C27.5029 32.5173 27.3634 32.4292 27.2826 32.4292H27.2312L27.1872 32.3998C26.7025 32.1355 26.1738 31.9959 25.6083 31.9959C24.0588 31.9959 22.4726 32.9947 21.2315 33.9053L21.5179 34.3385L21.4885 34.434C21.4371 34.6029 21.327 34.9554 21.0332 34.9554C20.9011 34.9554 20.7909 34.882 20.6881 34.8085C20.5926 34.7424 20.4972 34.6763 20.3944 34.669C19.8583 34.8159 19.4691 35.2638 19.0652 35.7338C18.8522 35.9835 18.6245 36.2405 18.3822 36.4462L18.3528 36.4755L18.3088 36.4902C18.1619 36.5343 18.0958 36.6444 17.9857 36.8207C17.8828 36.9896 17.7727 37.1805 17.545 37.2833C17.501 37.3054 17.4643 37.32 17.4496 37.3421C17.4863 37.3421 17.5377 37.3421 17.5818 37.3494C17.7433 37.3494 18.1252 37.3641 18.1325 37.7974C18.1766 37.9956 18.1472 38.1866 18.0297 38.3335C17.8314 38.5905 17.4569 38.6052 17.0897 38.6272C16.8841 38.6345 16.6712 38.6492 16.539 38.7006L16.5096 38.7153H16.4729C16.2673 38.7374 15.4227 39.4937 15.3713 39.905C15.364 39.9711 15.3713 39.9784 15.4081 39.9931H15.4301L15.4448 40.0151C15.6284 40.14 15.7165 40.3383 15.6651 40.5218C15.621 40.6834 15.4815 40.7862 15.3053 40.7862C15.2318 40.7862 15.151 40.7642 15.0703 40.7275C14.4975 40.7862 13.9467 42.9673 13.719 45.9561L13.6676 46.595L13.3372 46.0295C12.9333 45.3245 13.0801 44.5094 13.2197 43.7163L13.0434 43.9293C13.2197 44.4653 12.8231 44.6563 12.5808 44.7738C12.4559 44.8325 12.3384 44.8913 12.2724 44.9721C12.1549 45.3466 11.9345 45.7064 11.7216 46.0442C11.3544 46.639 10.9505 48.0637 10.9505 48.0637C10.9285 48.0637 10.9064 48.0637 10.8844 48.0637C10.8844 48.1151 10.8844 48.1592 10.8771 48.2106C10.855 48.5117 10.833 48.7981 10.8844 49.0918C10.8844 49.0918 10.8991 49.0845 10.8991 49.0771C11.2075 48.8568 11.5894 48.5851 11.9492 48.5851C12.1475 48.5851 12.4266 48.6659 12.6028 49.0624L12.6762 49.224L12.5294 49.3195C12.3898 49.4076 12.2136 49.4516 12.0447 49.4957C11.7289 49.5765 11.5747 49.6352 11.56 49.7821C11.5894 50.0171 11.325 50.1126 11.2149 50.1493C11.2149 50.1493 11.1414 50.1713 11.1341 50.1787C11.1561 50.2301 11.2149 50.3108 11.2516 50.3622C11.325 50.4577 11.3911 50.5605 11.4352 50.6707L11.516 50.891L11.2883 50.935C11.2442 50.9424 11.2075 50.9497 11.1708 50.9497C10.8918 50.9497 10.7596 50.7588 10.6715 50.6266C10.6641 50.6119 10.6568 50.6046 10.6494 50.5899C9.90772 51.1039 10.0693 52.0953 10.2308 53.05C10.2676 53.285 10.3043 53.5053 10.3263 53.7183L10.3704 54.1515L10.0105 53.8945C9.70944 53.6815 9.62132 53.3805 9.54054 53.1161C9.53319 53.0867 9.52585 53.0647 9.51851 53.0353C9.42304 53.2336 9.36429 53.4759 9.30554 53.7183C9.21742 54.0854 9.12195 54.4747 8.8943 54.7831C8.8429 54.8565 8.85024 54.9006 8.96774 55.0842C9.05586 55.2237 9.15867 55.3999 9.13664 55.6129L9.11461 55.7818H8.94571C8.75477 55.7818 8.62259 55.8185 8.56384 55.892C8.52712 55.936 8.51244 56.0095 8.52712 56.1123C8.57853 56.1637 8.65931 56.2151 8.74743 56.2665C8.97508 56.406 9.32023 56.619 9.26148 57.133L9.23211 57.368L9.00446 57.2946C8.82087 57.2358 8.65931 57.2065 8.52712 57.2065C8.27744 57.2065 8.1526 57.3019 8.11588 57.5369C7.94698 58.5063 9.38632 60.9443 10.1574 61.2748L10.3336 61.3482L10.2822 61.5245C10.2308 61.6934 10.106 61.7962 9.95178 61.7962C9.86366 61.7962 9.76085 61.7595 9.67272 61.7007C8.81352 61.172 8.17463 60.4597 7.6973 59.4903C7.59449 59.9309 7.63121 60.4083 7.66792 60.9076C7.67527 61.0251 7.68261 61.1353 7.68995 61.2454C7.68995 61.2675 7.75605 61.3776 7.80011 61.4584C7.94698 61.7448 8.10854 62.0385 7.9837 62.2515C7.96901 62.2809 7.93229 62.3249 7.88089 62.3543C8.22604 62.582 8.2701 62.9712 8.30682 63.2943C8.33619 63.5587 8.36556 63.801 8.51978 63.9772C8.65931 64.1535 8.79149 64.4179 8.93836 64.7189C9.15867 65.1742 9.49648 65.8572 9.76085 65.8572C9.79022 65.8572 10.2308 66.0334 10.7743 66.0334C11.3177 66.0334 12.0741 65.9233 12.6689 65.8278C12.7937 65.8058 12.9186 65.7911 13.0287 65.7764C12.8525 65.5781 12.7864 65.3725 12.8451 65.1669C13.1903 63.8597 18.9624 63.6248 19.0211 63.6248C19.4103 63.6101 19.7995 63.6027 20.1961 63.6027C21.0846 63.6027 21.9879 63.6321 22.8618 63.6615C23.721 63.6908 24.6096 63.7129 25.4761 63.7202C24.9253 63.5733 24.2204 63.309 24.1543 62.9198C24.1175 62.6921 24.2718 62.5012 24.6169 62.3617L24.8666 62.2588L24.9033 62.5306C24.9547 62.8757 25.41 62.9198 26.0563 62.9491C26.2766 62.9565 26.4895 62.9638 26.6584 63.0005C26.7098 63.0152 26.7465 63.0152 26.7906 63.0152C26.9815 63.0152 27.1578 62.8977 27.3487 62.7729C27.5617 62.6334 27.7967 62.4792 28.0831 62.4792C28.2373 62.4792 28.3989 62.5232 28.5531 62.6187L28.6118 62.6554L28.6412 62.7141C28.7293 62.8977 28.957 62.9859 29.3315 62.9859C31.9091 62.9859 39.0103 58.6825 39.5391 57.1404L39.5538 57.0963L39.5905 57.0669C39.9136 56.7658 40.1927 56.3546 40.457 55.9581C40.8903 55.3118 41.3309 54.6436 42.0432 54.3351C43.064 53.542 43.578 52.0219 42.6821 50.8396L42.6381 50.7808V50.7074C42.6381 50.4357 42.8363 50.2154 43.0787 50.2154C43.2182 50.2154 43.3504 50.2888 43.4532 50.4136C43.9893 50.9424 44.0407 51.6914 44.0848 52.345C44.0848 52.3891 44.0848 52.4331 44.0921 52.4845C44.2022 52.2422 44.2977 51.9264 44.3271 51.6327C44.3565 51.3757 44.3124 51.2214 44.2683 51.17C44.1288 51.0525 43.8498 50.6927 43.9232 50.4357C43.9526 50.3255 44.048 50.2521 44.1655 50.2374C44.2169 50.2301 44.283 50.2227 44.3418 50.2227C44.9072 50.2227 45.0982 50.7441 45.2157 51.0525C45.2304 51.0966 45.2524 51.1407 45.2671 51.1847C45.2818 51.1627 45.3111 51.1333 45.3405 51.0966C45.4653 50.8543 45.8032 50.5679 46.1483 50.5679C46.2878 50.5679 46.42 50.6193 46.5302 50.7074L46.5595 50.7368L46.5816 50.7735C46.8973 51.383 46.3099 51.6914 45.9206 51.8971C45.7664 51.9778 45.6049 52.066 45.5241 52.1467C45.3699 52.3891 45.2083 52.6828 45.0541 52.9766C44.944 53.1822 44.8338 53.3951 44.709 53.5934C44.6649 53.6742 44.6722 53.6889 44.709 53.7403C45.0468 54.3351 44.5327 54.717 44.1582 54.996C44.0187 55.0989 43.8791 55.2017 43.8057 55.2971C42.9024 57.1697 41.3383 58.4549 39.8328 59.7033L39.5978 59.8942C37.1818 61.4951 34.5675 63.074 31.586 64.7336C30.7194 65.2624 29.9043 65.9747 29.1185 66.665C28.0317 67.6197 26.9081 68.6037 25.5422 69.2059C25.41 69.2573 25.2631 69.316 25.1089 69.3821C24.4627 69.6465 23.5741 70.0063 22.8471 70.0063L22.8324 70.0137ZM24.7638 67.6343C25.1236 67.6343 25.5936 67.6564 26.0563 67.8033H26.0783L26.1297 67.84C26.1738 67.8693 26.2325 67.8987 26.2472 67.8987C26.2252 67.8987 26.2839 67.8473 26.328 67.8179L26.4675 67.7225C27.2753 67.1644 28.0978 66.5842 28.8101 65.9013C27.8848 66.1656 26.9375 66.4447 26.137 66.8853C26.137 66.9 26.137 66.922 26.137 66.9367C26.137 67.0909 26.1517 67.4508 25.7552 67.4508C25.7258 67.4508 25.6964 67.4508 25.6597 67.4508C25.4835 67.4214 25.3072 67.4067 25.1236 67.4067C24.5875 67.4067 24.0368 67.5169 23.5154 67.6564C23.5594 67.6564 23.6035 67.6564 23.6549 67.6564C23.8385 67.6564 24.0221 67.6564 24.2057 67.6417C24.3966 67.6417 24.5802 67.627 24.7711 67.627L24.7638 67.6343ZM7.93229 66.3052C8.18932 66.7091 8.674 67.1203 9.04117 67.2084L9.02649 67.0395L9.19539 66.9881L9.39367 66.9514C9.14398 66.7605 8.83555 66.6503 8.51978 66.5402C8.3215 66.4741 8.12323 66.4006 7.93229 66.3125V66.3052ZM12.8966 66.8633C13.4033 66.9367 13.932 66.9734 14.4681 66.9734C15.0042 66.9734 15.6063 66.9294 16.1791 66.8486C15.7606 66.7384 15.2832 66.6797 14.7471 66.6797C14.2111 66.6797 13.5869 66.7384 12.8966 66.8559V66.8633ZM13.8365 65.2183C14.0054 65.3652 14.7398 65.6222 16.9208 65.6222C18.1986 65.6222 19.4911 65.5414 20.5926 65.4313C20.0125 65.4313 19.4397 65.4092 18.8595 65.3946C18.2427 65.3799 17.6258 65.3578 17.009 65.3578C16.2746 65.3578 15.7679 65.2257 15.2024 65.2771C15.1657 65.2771 15.1143 65.2917 15.0629 65.2917C14.7839 65.2917 14.3946 65.3285 14.2111 65.1375C14.1964 65.1228 14.1743 65.1082 14.1156 65.1082C14.0348 65.1082 13.9247 65.1522 13.8365 65.2257V65.2183ZM42.0139 24.4321C42.3957 24.7111 42.7923 24.9755 43.2035 25.2545C44.0848 25.842 44.988 26.4515 45.7738 27.1932C45.7224 27.1051 45.6563 27.0023 45.5682 26.8848C44.5988 25.5483 42.2856 23.705 41.2061 23.5875C41.5586 23.7418 41.8817 23.9914 42.0065 24.4321H42.0139ZM34.8612 23.2057C35.5148 23.2204 36.1684 23.2644 36.8073 23.3085C37.5416 23.3599 38.298 23.4186 39.0397 23.4186C39.3555 23.4186 39.6566 23.4113 39.9356 23.3893C39.6639 23.213 39.3408 23.0661 39.1131 23.0661C38.9663 23.0661 38.6138 23.2277 38.6138 23.2277C37.9749 23.0147 37.3066 23.0368 36.5723 23.0368C36.0288 23.0368 35.456 23.0955 34.8612 23.213V23.2057Z" fill="currentColor"/>
</svg>
