<svg width="52" height="77" viewBox="0 0 52 77" fill="none" xmlns="http://www.w3.org/2000/svg">
  <path d="M40.4107 27.5375C40.183 27.3393 39.9627 27.1189 39.735 26.8986C38.3838 25.5474 37.297 23.8878 35.5712 22.8964C33.5664 21.7434 30.886 21.7434 28.8665 22.889C27.5447 23.6307 26.5093 24.8278 25.0773 25.2977C24.152 25.5988 23.1385 25.6062 22.1545 25.6062C19.6944 25.6282 17.014 25.8044 15.2222 27.3686C13.2467 29.1164 13.0778 31.929 12.1085 34.2789C11.1318 36.6069 9.35464 38.5015 7.51875 40.3007C5.88847 41.8942 5.48458 44.2001 5.82238 46.3151C6.08675 48.0041 6.63017 49.627 6.57143 51.3234C6.52736 52.6673 6.10144 54.0185 6.32909 55.3477C6.74767 57.6609 9.0095 59.1884 10.6545 60.9582C12.7988 63.3008 14.1794 66.4659 17.1756 67.8465C20.6417 69.4694 24.8716 68.03 28.6976 68.7057C30.4895 69.0361 32.2079 69.8219 34.0658 69.7925C35.9531 69.7631 37.8184 68.7791 38.7877 67.281C39.4413 66.2529 39.735 65.0559 40.5575 64.1233C41.1377 63.4476 41.9455 62.9997 42.6137 62.4195C44.4863 60.848 45.3969 58.2998 44.7066 56.0673C44.0164 53.8349 41.6664 52.0871 39.1476 52.1312C36.4965 52.1826 34.1686 54.0919 33.0818 56.3464C32.6411 57.2203 32.3694 58.1896 31.8187 59.0121C31.2679 59.8346 30.3867 60.5469 29.3145 60.5763C28.2423 60.6057 27.295 59.8787 26.4064 59.2912C24.622 58.1309 22.5217 57.3525 20.348 57.0881C19.2464 56.9412 17.8732 56.7283 17.5721 55.7516C17.4179 55.2008 17.7043 54.6353 17.9099 54.0993C18.96 51.4409 18.3432 48.2758 16.3384 46.1609C15.9418 45.7423 15.4939 45.3237 15.3984 44.7729C15.2956 44.1414 15.7729 43.5465 16.3384 43.1794C16.9038 42.8122 17.5795 42.6359 18.2037 42.3936C20.0175 41.6592 21.5376 40.3007 22.3675 38.6337C23.4029 36.5848 23.6306 33.9191 25.7308 32.7735C27.8091 31.6499 30.4968 32.7882 32.2666 34.3083C34.0364 35.8211 35.5712 37.7304 37.8037 38.4721C40.0435 39.2138 41.8427 38.8907 43.7446 37.5982C44.2293 37.2531 45.0959 35.9459 45.3823 35.4539C45.9037 34.558 45.7641 33.4197 45.3529 32.4724C44.3542 30.1518 42.3567 29.3 40.418 27.5302L40.4107 27.5375Z" fill="currentColor"/>
</svg>
