<svg xmlns="http://www.w3.org/2000/svg" viewBox="0 0 122 23" fill="none">
  <path d="M0.583469 0.286134L8.56087 0.28661C13.9108 0.28693 17.0958 3.57501 17.096 7.61796C17.0963 11.6957 13.9116 14.9834 8.56175 14.9831L4.78616 14.9829L4.7866 22.3485L0.584737 22.3483L0.583469 0.286134ZM8.56151 11.0044C11.1863 11.0046 12.8608 9.59098 12.8607 7.6177C12.8606 5.64443 11.1859 4.23064 8.56111 4.23048L4.78552 4.23026L4.78592 11.0042L8.56151 11.0044Z" fill="url(#paint0_linear_63_181)"/>
  <path d="M23.9288 4.49647L23.9291 9.16325L30.3628 9.16363L30.3631 13.3726L23.9293 13.3722L23.9296 18.1407L35.6157 18.1414L35.616 22.3504L19.728 22.3494L19.7267 0.287278L35.6147 0.288226L35.6149 4.49716L23.9288 4.49647Z" fill="url(#paint1_linear_63_181)"/>
  <path d="M38.9487 0.288426L46.9247 0.288902C52.276 0.289222 55.461 3.57731 55.4613 7.62025C55.4709 8.99785 55.07 10.3469 54.3098 11.4949C53.5497 12.6429 52.4649 13.5377 51.1943 14.0646L55.4621 22.3516L51.2268 22.3513L47.3854 14.9533L46.3683 14.9853L43.1514 14.9852L43.1518 22.3508L38.95 22.3506L38.9487 0.288426ZM46.9254 11.0067C49.5529 11.0069 51.2261 9.59327 51.2259 7.62C51.2258 5.64672 49.5525 4.23293 46.925 4.23278L43.1508 4.23255L43.1512 11.0065L46.9254 11.0067Z" fill="url(#paint2_linear_63_181)"/>
  <path d="M58.358 13.8078L58.3572 0.25989L62.5591 0.260141L62.5599 13.808C62.5468 14.4425 62.6602 15.0731 62.8936 15.6631C63.127 16.2531 63.4755 16.7905 63.9188 17.2438C64.3622 17.6972 64.8913 18.0573 65.4754 18.3032C66.0594 18.5491 66.6865 18.6758 67.32 18.6759C67.9535 18.6759 68.5806 18.5493 69.1646 18.3035C69.7486 18.0576 70.2777 17.6975 70.721 17.2442C71.1642 16.7909 71.5128 16.2536 71.746 15.6636C71.9793 15.0737 72.0927 14.443 72.0795 13.8086L72.0787 0.26071L76.2806 0.260961L76.2814 13.8089C76.2817 19.3324 72.2766 22.6228 67.3196 22.6225C62.396 22.6222 58.3583 19.3314 58.358 13.8078Z" fill="url(#paint3_linear_63_181)"/>
  <path d="M89.0336 9.95698L96.3875 22.354L91.8583 22.3537L86.441 13.2126L83.815 16.5004L83.8154 22.3533L79.6135 22.353L79.6122 0.290855L83.8141 0.291106L83.8147 10.4172L91.9224 0.29159L96.7471 0.291879L89.0336 9.95698Z" fill="url(#paint4_linear_63_181)"/>
  <path d="M114.771 17.0297L105.941 17.0291L103.906 22.3545L99.4739 22.3542L108.402 0.292575L112.34 0.29281L121.27 22.3555L116.807 22.3552L114.771 17.0297ZM113.161 12.8206L110.372 5.4548L107.548 12.8203L113.161 12.8206Z" fill="url(#paint5_linear_63_181)"/>
  <defs>
    <linearGradient id="paint0_linear_63_181" x1="0.186713" y1="8.65146" x2="121.647" y2="14.4122" gradientUnits="userSpaceOnUse">
      <stop stop-color="#3FFFC1"/>
      <stop offset="0.21044" stop-color="#3CF5C8"/>
      <stop offset="0.56024" stop-color="#35DCDD"/>
      <stop offset="0.99438" stop-color="#2AB4FF"/>
    </linearGradient>
    <linearGradient id="paint1_linear_63_181" x1="0.186713" y1="8.65146" x2="121.647" y2="14.4122" gradientUnits="userSpaceOnUse">
      <stop stop-color="#3FFFC1"/>
      <stop offset="0.21044" stop-color="#3CF5C8"/>
      <stop offset="0.56024" stop-color="#35DCDD"/>
      <stop offset="0.99438" stop-color="#2AB4FF"/>
    </linearGradient>
    <linearGradient id="paint2_linear_63_181" x1="0.186713" y1="8.65146" x2="121.647" y2="14.4122" gradientUnits="userSpaceOnUse">
      <stop stop-color="#3FFFC1"/>
      <stop offset="0.21044" stop-color="#3CF5C8"/>
      <stop offset="0.56024" stop-color="#35DCDD"/>
      <stop offset="0.99438" stop-color="#2AB4FF"/>
    </linearGradient>
    <linearGradient id="paint3_linear_63_181" x1="0.186713" y1="8.65146" x2="121.647" y2="14.4122" gradientUnits="userSpaceOnUse">
      <stop stop-color="#3FFFC1"/>
      <stop offset="0.21044" stop-color="#3CF5C8"/>
      <stop offset="0.56024" stop-color="#35DCDD"/>
      <stop offset="0.99438" stop-color="#2AB4FF"/>
    </linearGradient>
    <linearGradient id="paint4_linear_63_181" x1="0.186713" y1="8.65146" x2="121.647" y2="14.4122" gradientUnits="userSpaceOnUse">
      <stop stop-color="#3FFFC1"/>
      <stop offset="0.21044" stop-color="#3CF5C8"/>
      <stop offset="0.56024" stop-color="#35DCDD"/>
      <stop offset="0.99438" stop-color="#2AB4FF"/>
    </linearGradient>
    <linearGradient id="paint5_linear_63_181" x1="0.186713" y1="8.65146" x2="121.647" y2="14.4122" gradientUnits="userSpaceOnUse">
      <stop stop-color="#3FFFC1"/>
      <stop offset="0.21044" stop-color="#3CF5C8"/>
      <stop offset="0.56024" stop-color="#35DCDD"/>
      <stop offset="0.99438" stop-color="#2AB4FF"/>
    </linearGradient>
  </defs>
</svg>
