<svg fill="none" viewBox="0 0 123 29" xmlns="http://www.w3.org/2000/svg">
  <path d="m1.562 0.89254 8.0299 0.352c5.3852 0.23607 8.4457 3.6903 8.2671 7.765-0.1802 4.1098-3.5312 7.283-8.9164 7.0469l-3.8005-0.1666-0.32542 7.4235-4.2295-0.1854 0.97478-22.235zm7.5564 11.154c2.6421 0.1158 4.3902-1.2351 4.4774-3.2239s-1.536-3.4874-4.1781-3.6033l-3.8005-0.1666-0.29927 6.8271 3.8004 0.1666z" fill="url(#a1)"/>
  <path d="m24.875 6.1646-0.2061 4.7034 6.4761 0.2839-0.186 4.242-6.4761-0.2839-0.2107 4.806 11.763 0.5157-0.186 4.2419-15.993-0.701 0.9747-22.235 15.993 0.70107-0.186 4.242-11.763-0.51565z" fill="url(#a1)"/>
  <path d="m40.18 2.5854 8.0286 0.35195c5.3865 0.23612 8.447 3.6904 8.2684 7.765-0.0512 1.3888-0.5145 2.7308-1.3304 3.8544-0.8159 1.1235-1.9475 1.9774-3.2498 2.4525l3.9294 8.5401-4.2632-0.1869-3.5395-7.6254-1.0252-0.0125-3.2381-0.1419-0.3254 7.4235-4.2295-0.1854 0.9747-22.235zm7.5551 11.154c2.6448 0.1159 4.3915-1.235 4.4787-3.2238 0.0872-1.9887-1.5346-3.4874-4.1794-3.6033l-3.7991-0.16653-0.2993 6.8271 3.7991 0.1665z" fill="url(#a1)"/>
  <path d="m59.119 17.066 0.5985-13.654 4.2296 0.18541-0.5986 13.654c-0.0412 0.6388 0.0451 1.2794 0.2539 1.8843s0.5359 1.1618 0.962 1.6383c0.4262 0.4764 0.943 0.8627 1.5199 1.1363 0.577 0.2736 1.2027 0.4289 1.8404 0.4568 0.6376 0.028 1.2745-0.072 1.8732-0.294s1.1472-0.5617 1.6135-0.999c0.4662-0.4373 0.8408-0.9635 1.1017-1.5478s0.4029-1.2149 0.4178-1.8549l0.5985-13.654 4.2296 0.1854-0.5986 13.654c-0.244 5.567-4.4212 8.7066-9.4108 8.4879-4.956-0.2173-8.8746-3.7118-8.6306-9.2787z" fill="url(#a1)"/>
  <path d="m90.167 14.537 6.8539 12.818-4.5591-0.1998-5.0485-9.4516-2.7887 3.1978-0.2586 5.8989-4.2295-0.1855 0.9747-22.235 4.2295 0.18541-0.4474 10.206 8.6091-9.8478 4.8565 0.21289-8.1919 9.401z" fill="url(#a1)"/>
  <path d="m115.76 22.799-8.888-0.3896-2.285 5.2774-4.461-0.1955 9.963-21.841 3.965 0.17379 8.013 22.629-4.494-0.197-1.813-5.4571zm-1.434-4.313-2.482-7.5465-3.168 7.2989 5.65 0.2476z" fill="url(#a1)"/>
  <defs>
    <linearGradient id="a1" x1=".79255" x2="122.8" y1="9.306" y2="20.464" gradientUnits="userSpaceOnUse">
      <stop stop-color="#3FFFC1" offset="0"/>
      <stop stop-color="#3CF5C8" offset=".21044"/>
      <stop stop-color="#35DCDD" offset=".56024"/>
      <stop stop-color="#2AB4FF" offset=".99438"/>
    </linearGradient>
  </defs>
</svg>
