<svg xmlns="http://www.w3.org/2000/svg" viewBox="0 0 123 24" fill="none">
  <path d="M0.41915 0.526515L8.45679 0.526515C13.8471 0.526515 17.0559 3.8434 17.0559 7.922C17.0559 12.0357 13.8471 15.3526 8.45679 15.3526L4.65269 15.3526L4.65269 22.7832L0.419098 22.7832L0.41915 0.526515ZM8.45679 11.3388C11.1014 11.3388 12.7887 9.91267 12.7887 7.922C12.7887 5.93133 11.1014 4.50517 8.45679 4.50517L4.65269 4.50517L4.65269 11.3388L8.45679 11.3388Z" fill="url(#paint0_linear_63_216)"/>
  <path d="M23.9405 4.77257L23.9405 9.48051L30.4229 9.48051L30.4229 13.7266L23.9405 13.7266L23.9405 18.5372L35.7149 18.5372L35.7149 22.7832L19.7069 22.7832L19.7069 0.526515L35.7149 0.526515L35.7149 4.77257L23.9405 4.77257Z" fill="url(#paint1_linear_63_216)"/>
  <path d="M39.0741 0.526515L47.1103 0.526515C52.502 0.526515 55.7109 3.84341 55.7109 7.922C55.7205 9.31175 55.3165 10.6728 54.5505 11.8309C53.7846 12.9891 52.6916 13.8918 51.4113 14.4234L55.7109 22.7832L51.4436 22.7832L47.5736 15.3202L46.5488 15.3526L43.3076 15.3526L43.3076 22.7832L39.074 22.7832L39.0741 0.526515ZM47.1104 11.3388C49.7577 11.3388 51.4436 9.91267 51.4436 7.922C51.4436 5.93133 49.7577 4.50517 47.1103 4.50517L43.3076 4.50517L43.3076 11.3388L47.1104 11.3388Z" fill="url(#paint2_linear_63_216)"/>
  <path d="M58.6291 14.1639L58.6291 0.496559L62.8627 0.496559L62.8627 14.1639C62.8495 14.804 62.9638 15.4402 63.1989 16.0353C63.4339 16.6305 63.7851 17.1726 64.2317 17.6299C64.6784 18.0872 65.2115 18.4506 65.8 18.6986C66.3884 18.9466 67.0202 19.0744 67.6585 19.0744C68.2968 19.0744 68.9287 18.9466 69.5171 18.6986C70.1055 18.4506 70.6386 18.0872 71.0852 17.6299C71.5319 17.1726 71.8831 16.6305 72.1181 16.0353C72.3532 15.4402 72.4675 14.804 72.4543 14.1639L72.4543 0.496559L76.6879 0.496559L76.6879 14.1639C76.6879 19.7362 72.6523 23.0558 67.6578 23.0558C62.6971 23.0558 58.6291 19.7362 58.6291 14.1639Z" fill="url(#paint3_linear_63_216)"/>
  <path d="M89.5365 10.2773L96.9453 22.7832L92.3818 22.7832L86.9242 13.5618L84.2782 16.8787L84.2782 22.7832L80.0446 22.7832L80.0446 0.526516L84.2782 0.526515L84.2782 10.7419L92.4478 0.526515L97.3089 0.526516L89.5365 10.2773Z" fill="url(#paint4_linear_63_216)"/>
  <path d="M115.468 17.4108L106.571 17.4108L104.52 22.7832L100.055 22.7832L109.051 0.526515L113.02 0.526515L122.016 22.7832L117.519 22.7832L115.468 17.4108ZM113.846 13.1647L111.036 5.73415L108.191 13.1647L113.846 13.1647Z" fill="url(#paint5_linear_63_216)"/>
  <defs>
    <linearGradient id="paint0_linear_63_216" x1="60.5546" y1="25.6334" x2="61.8605" y2="-1.8999" gradientUnits="userSpaceOnUse">
      <stop stop-color="#FF9715"/>
      <stop offset="0.1396" stop-color="#FF8E1A"/>
      <stop offset="0.3716" stop-color="#FF7428"/>
      <stop offset="0.6676" stop-color="#FF4B3F"/>
      <stop offset="0.9944" stop-color="#FF155D"/>
    </linearGradient>
    <linearGradient id="paint1_linear_63_216" x1="60.5546" y1="25.6334" x2="61.8605" y2="-1.8999" gradientUnits="userSpaceOnUse">
      <stop stop-color="#FF9715"/>
      <stop offset="0.1396" stop-color="#FF8E1A"/>
      <stop offset="0.3716" stop-color="#FF7428"/>
      <stop offset="0.6676" stop-color="#FF4B3F"/>
      <stop offset="0.9944" stop-color="#FF155D"/>
    </linearGradient>
    <linearGradient id="paint2_linear_63_216" x1="60.5546" y1="25.6334" x2="61.8605" y2="-1.8999" gradientUnits="userSpaceOnUse">
      <stop stop-color="#FF9715"/>
      <stop offset="0.1396" stop-color="#FF8E1A"/>
      <stop offset="0.3716" stop-color="#FF7428"/>
      <stop offset="0.6676" stop-color="#FF4B3F"/>
      <stop offset="0.9944" stop-color="#FF155D"/>
    </linearGradient>
    <linearGradient id="paint3_linear_63_216" x1="60.5546" y1="25.6334" x2="61.8605" y2="-1.8999" gradientUnits="userSpaceOnUse">
      <stop stop-color="#FF9715"/>
      <stop offset="0.1396" stop-color="#FF8E1A"/>
      <stop offset="0.3716" stop-color="#FF7428"/>
      <stop offset="0.6676" stop-color="#FF4B3F"/>
      <stop offset="0.9944" stop-color="#FF155D"/>
    </linearGradient>
    <linearGradient id="paint4_linear_63_216" x1="60.5546" y1="25.6334" x2="61.8605" y2="-1.8999" gradientUnits="userSpaceOnUse">
      <stop stop-color="#FF9715"/>
      <stop offset="0.1396" stop-color="#FF8E1A"/>
      <stop offset="0.3716" stop-color="#FF7428"/>
      <stop offset="0.6676" stop-color="#FF4B3F"/>
      <stop offset="0.9944" stop-color="#FF155D"/>
    </linearGradient>
    <linearGradient id="paint5_linear_63_216" x1="60.5546" y1="25.6334" x2="61.8605" y2="-1.8999" gradientUnits="userSpaceOnUse">
      <stop stop-color="#FF9715"/>
      <stop offset="0.1396" stop-color="#FF8E1A"/>
      <stop offset="0.3716" stop-color="#FF7428"/>
      <stop offset="0.6676" stop-color="#FF4B3F"/>
      <stop offset="0.9944" stop-color="#FF155D"/>
    </linearGradient>
  </defs>
</svg>
