<svg fill="none" viewBox="0 0 123 26" xmlns="http://www.w3.org/2000/svg">
  <path d="m0.68513 3.1162 8.0355-0.18604c5.3889-0.12476 8.6736 3.117 8.768 7.1944 0.0953 4.1126-3.036 7.5029-8.4248 7.6277l-3.8031 0.088 0.17199 7.4287-4.2325 0.0979-0.5151-22.251zm8.2858 10.623c2.6439-0.0612 4.2977-1.5261 4.2516-3.5162-0.0461-1.9901-1.7659-3.3769-4.4098-3.3156l-3.8031 0.08805 0.15817 6.8318 3.8031-0.088z" fill="url(#a2)"/>
  <path d="m24.298 6.8167 0.1089 4.7067 6.4806-0.1501 0.0983 4.2449-6.4806 0.1501 0.1114 4.8093 11.771-0.2725 0.0982 4.2449-16.004 0.3705-0.5152-22.251 16.004-0.37053 0.0983 4.2449-11.771 0.27253z" fill="url(#a2)"/>
  <path d="m39.33 2.2215 8.0341-0.18601c5.3902-0.12479 8.675 3.1169 8.7694 7.1944 0.0418 1.3892-0.3306 2.7592-1.0695 3.9348-0.739 1.1756-1.8108 2.1033-3.0785 2.6644l4.492 8.2581-4.2661 0.0987-4.0418-7.3714-1.0237 0.0561-3.2403 0.075 0.172 7.4286-4.2325 0.098-0.5151-22.251zm8.2844 10.623c2.6466-0.0613 4.299-1.5261 4.253-3.5162-0.0461-1.9901-1.7646-3.3769-4.4112-3.3156l-3.8017 0.08802 0.1582 6.8318 3.8017-0.088z" fill="url(#a2)"/>
  <path d="m59.195 15.403-0.3164-13.664 4.2325-0.09799 0.3163 13.664c0.0016 0.6402 0.1306 1.2736 0.3794 1.8632 0.2488 0.5895 0.6124 1.1233 1.0695 1.5702s0.9985 0.7978 1.5925 1.0321c0.594 0.2344 1.2287 0.3475 1.8668 0.3327s1.2668-0.1571 1.8494-0.4187c0.5825-0.2616 1.107-0.6372 1.543-1.1047 0.4359-0.4676 0.7744-1.0177 0.9957-1.6181 0.2212-0.6004 0.3207-1.2391 0.2927-1.8787l-0.3163-13.664 4.2324-0.09799 0.3164 13.664c0.1289 5.5708-3.8288 8.9829-8.8218 9.0985-4.9594 0.1149-9.1032-3.1097-9.2321-8.6805z" fill="url(#a2)"/>
  <path d="m90.004 10.802 7.6963 12.331-4.5623 0.1057-5.6696-9.0926-2.5685 3.3772 0.1367 5.9029-4.2325 0.098-0.5151-22.251 4.2324-0.09799 0.2365 10.213 7.9309-10.402 4.8598-0.11252-7.5446 9.9281z" fill="url(#a2)"/>
  <path d="m116.09 17.333-8.895 0.2059-1.926 5.4184-4.464 0.1034 8.479-22.459 3.968-0.091852 9.509 22.042-4.497 0.1041-2.174-5.3234zm-1.719-4.2075-2.982-7.3635-2.672 7.4944 5.654-0.1309z" fill="url(#a2)"/>
  <defs>
    <linearGradient id="a2" x1="61.386" x2="62.054" y1="26.824" y2="-.73169" gradientUnits="userSpaceOnUse">
      <stop stop-color="#FF9715" offset="0"/>
      <stop stop-color="#FF8E1A" offset=".1396"/>
      <stop stop-color="#FF7428" offset=".3716"/>
      <stop stop-color="#FF4B3F" offset=".6676"/>
      <stop stop-color="#FF155D" offset=".9944"/>
    </linearGradient>
  </defs>
</svg>
