<svg width="26" height="26" viewBox="0 0 26 26" fill="none" xmlns="http://www.w3.org/2000/svg">
  <path fill-rule="evenodd" clip-rule="evenodd" d="M1.82765 1.82765C0 3.65531 0 6.59685 0 12.48V13.52C0 19.4032 0 22.3447 1.82765 24.1724C3.65531 26 6.59685 26 12.48 26H13.52C19.4032 26 22.3447 26 24.1724 24.1724C26 22.3447 26 19.4032 26 13.52V12.48C26 6.59685 26 3.65531 24.1724 1.82765C22.3447 0 19.4032 0 13.52 0H12.48C6.59685 0 3.65531 0 1.82765 1.82765Z" fill="black"/>
  <path d="M8.90002 11.5669C10.5432 14.2304 11.6387 15.2959 14.3772 16.8939L16.5682 14.7631C17.6871 15.0411 19.0995 15.4227 20.2331 15.4182C20.611 15.4152 20.9873 15.7828 20.9975 16.1339L20.972 19.4581C20.9705 19.8257 20.5911 20.1948 20.206 20.2172C10.7661 20.2334 5.30873 14.9257 5.00181 5.72649C4.97051 5.37105 5.34992 5.00198 5.72783 5.00048H9.47149C9.88477 4.98496 10.2612 5.35101 10.3509 5.5746C10.2551 6.82127 10.7986 8.34204 11.0909 9.43671L8.90002 11.5669Z" fill="white"/>
</svg>
