<svg viewBox="0 0 155 28" fill="none" xmlns="http://www.w3.org/2000/svg">
  <path d="M0.193848 14.0985C0.193848 21.9997 4.73708 27.0514 11.7985 27.0514C13.1226 27.0514 14.3168 26.8701 15.3553 26.5851C14.6023 25.8857 13.9793 25.0566 13.486 24.2017C12.9667 24.2795 12.3696 24.3572 11.7985 24.3572C5.33418 24.3572 3.04958 19.0205 3.04958 14.0985C3.04958 9.17633 5.33418 3.83972 11.7985 3.83972C16.861 3.83972 18.7042 6.87071 18.7042 8.94317C18.7042 10.8861 18.2889 11.7151 17.1725 13.373C15.9264 15.1606 15.1735 16.5335 15.1735 19.2537C15.1735 23.1396 18.4966 27.0514 24.935 27.0514C31.9964 27.0514 36.5397 21.9997 36.5397 14.0985C36.5397 6.19715 31.9964 1.14551 24.935 1.14551C23.6109 1.14551 22.4167 1.32685 21.3782 1.61182C22.1311 2.31127 22.7542 3.14025 23.2475 3.99515C23.7667 3.91744 24.3638 3.83972 24.935 3.83972C31.3993 3.83972 33.6839 9.17633 33.6839 14.0985C33.6839 19.0205 31.3993 24.3572 24.935 24.3572C19.8725 24.3572 18.0293 21.3262 18.0293 19.2537C18.0293 17.3108 18.4446 16.4817 19.5609 14.8238C20.7811 13.0363 21.56 11.6633 21.56 8.94317C21.56 5.0573 18.237 1.14551 11.7985 1.14551C4.73708 1.14551 0.193848 6.19715 0.193848 14.0985Z" fill="black"/>
  <path d="M47.5032 11.1013C48.0251 9.87374 49.1299 9.02002 50.4445 9.02002C50.7987 9.02002 51.1325 9.02002 51.6952 9.08255L51.5699 10.9355C51.0699 10.8933 50.736 10.8933 50.3805 10.8933C49.0468 10.8933 48.0032 11.7879 47.5032 13.3484V19.0091H45.626V9.18723H47.5032V11.1013Z" fill="black"/>
  <path d="M61.2481 17.6985C59.8926 18.7806 58.6829 19.1967 56.9105 19.1967C54.2198 19.1967 52.2173 17.6985 52.2173 14.1816C52.2173 10.5601 54.2621 8.99951 56.9936 8.99951C59.725 8.99951 61.3109 10.7056 61.3736 13.7657C61.3736 14.0363 61.3736 14.2442 61.3109 14.6181H54.0114C54.179 16.8448 55.367 17.6985 56.9936 17.6985C58.3082 17.6985 59.3082 17.3655 60.5602 16.4914L61.2481 17.6985ZM59.7046 13.1621C59.5589 11.4343 58.5998 10.5194 56.9936 10.5194C55.5127 10.5194 54.3248 11.2684 54.0537 13.1621H59.7046Z" fill="black"/>
  <path d="M63.9198 9.66563C65.8176 9.16672 66.8612 8.99951 67.9237 8.99951C70.6771 8.99951 71.5531 10.2271 71.5531 13.12V19.0089H69.6757V17.7815C68.7997 18.4897 67.7984 19.1967 66.2767 19.1967C64.0656 19.1967 62.939 18.3429 62.939 16.2208C62.939 14.1395 64.2945 13.0791 67.0478 13.0791C68.1949 13.0791 68.7589 13.0791 69.6757 13.0995C69.6757 11.1855 69.2793 10.6648 67.6104 10.6648C66.7562 10.6648 65.6718 10.8307 64.2332 11.1855L63.9198 9.66563ZM67.278 14.4305C65.5261 14.4305 64.6705 14.7634 64.6705 16.0332C64.6705 17.1996 65.4008 17.8018 66.8189 17.8018C67.8816 17.8018 68.9251 17.1357 69.6757 16.3038V14.4305H67.278Z" fill="black"/>
  <path d="M81.1062 17.7189C80.1675 18.5931 79.3338 19.1966 77.665 19.1966C75.5383 19.1966 73.5356 17.7597 73.5356 14.0566C73.5356 10.3943 75.1215 8.99955 77.436 8.99955C78.8543 8.99955 80.1471 9.56099 81.1062 10.4555V5.42017H82.9835V19.009H81.1062V17.7189ZM81.1062 12.2458C80.2302 11.2059 79.2288 10.5806 78.041 10.5806C76.4756 10.5806 75.3926 11.4764 75.3926 14.0566C75.3926 16.6572 76.7263 17.636 78.2071 17.636C79.5218 17.636 80.3133 16.8448 81.1062 15.9707V12.2458Z" fill="black"/>
  <path d="M94.7884 9.20801C93.6209 12.1009 92.4942 14.9312 91.2422 17.3646C90.0747 19.613 88.6361 21.2566 86.4673 22.1104L85.7997 20.5076C86.801 20.0291 87.6144 19.5084 88.365 18.6343L84.4033 9.20801H86.3623L88.9277 15.2847C89.1578 15.8257 89.3458 16.345 89.5325 16.8235C90.6388 14.639 91.4929 12.3293 92.7231 9.20801H94.7884Z" fill="black"/>
  <path d="M116.951 14.1604C116.951 17.1784 114.97 19.197 111.988 19.197C109.026 19.197 107.066 17.1784 107.066 14.1604C107.066 11.0595 109.048 9 112.009 9C114.97 9 116.951 11.0595 116.951 14.1604ZM115.116 14.1604C115.116 12.0166 113.865 10.6014 112.009 10.6014C110.153 10.6014 108.901 12.0166 108.901 14.1604C108.901 16.2213 110.131 17.5943 111.988 17.5943C113.865 17.5943 115.116 16.2213 115.116 14.1604Z" fill="black"/>
  <path d="M120.956 11.1013C121.478 9.87374 122.583 9.02002 123.898 9.02002C124.251 9.02002 124.586 9.02002 125.148 9.08255L125.023 10.9355C124.522 10.8933 124.189 10.8933 123.833 10.8933C122.499 10.8933 121.456 11.7879 120.956 13.3484V19.0091H119.079V9.18723H120.956V11.1013Z" fill="black"/>
  <path d="M133.242 17.7189C132.303 18.5931 131.469 19.1966 129.801 19.1966C127.674 19.1966 125.671 17.7597 125.671 14.0566C125.671 10.3943 127.257 8.99955 129.572 8.99955C130.99 8.99955 132.283 9.56099 133.242 10.4555V5.42017H135.119V19.009H133.242V17.7189ZM133.242 12.2458C132.366 11.2059 131.365 10.5806 130.176 10.5806C128.611 10.5806 127.529 11.4764 127.529 14.0566C127.529 16.6572 128.862 17.636 130.343 17.636C131.657 17.636 132.449 16.8448 133.242 15.9707V12.2458Z" fill="black"/>
  <path d="M146.32 17.6985C144.964 18.7806 143.754 19.1967 141.983 19.1967C139.291 19.1967 137.289 17.6985 137.289 14.1816C137.289 10.5601 139.333 8.99951 142.066 8.99951C144.797 8.99951 146.382 10.7056 146.446 13.7657C146.446 14.0363 146.446 14.2442 146.382 14.6181H139.083C139.251 16.8448 140.438 17.6985 142.066 17.6985C143.379 17.6985 144.38 17.3655 145.632 16.4914L146.32 17.6985ZM144.776 13.1621C144.63 11.4343 143.671 10.5194 142.066 10.5194C140.584 10.5194 139.397 11.2684 139.126 13.1621H144.776Z" fill="black"/>
  <path d="M150.472 11.1013C150.994 9.87374 152.099 9.02002 153.411 9.02002C153.767 9.02002 154.101 9.02002 154.664 9.08255L154.539 10.9355C154.039 10.8933 153.705 10.8933 153.349 10.8933C152.015 10.8933 150.971 11.7879 150.472 13.3484V19.0091H148.595V9.18723H150.472V11.1013Z" fill="black"/>
  <path d="M105.5 21.4109V19.7918H97.2345L97.2385 19.5689C97.2603 17.7024 98.9768 16.5223 100.794 15.2717C102.667 13.983 105.231 12.2184 105.231 9.49685C105.231 8.23801 104.772 7.18037 103.903 6.43813C103.065 5.72035 101.909 5.34106 100.557 5.34106C98.7848 5.34106 97.2931 5.8794 95.4675 6.75215L96.4225 8.04905C97.8788 7.34214 98.6662 6.94248 100.234 6.94248C101.804 6.94248 103.396 7.69153 103.396 9.46422C103.396 11.2369 101.351 12.6888 99.7002 13.8552C97.5327 15.3845 95.0737 17.1192 95.0737 20.3383C95.0737 20.6456 95.1024 20.9881 95.1623 21.4109H105.5Z" fill="black"/>
</svg>
