<svg width="134" height="21" viewBox="0 0 134 21" fill="none" xmlns="http://www.w3.org/2000/svg">
  <g opacity="0.5">
    <path d="M0 1.12732V5.43698H5.831V20.3532H11.201V5.43698H17.0045V1.12732H0Z" fill="currentColor"/>
    <path d="M36.9645 16.1513V20.3533H21.7211V1.12341H36.6138V5.32932H27.0399V8.56954H35.4713V12.6358H27.0399V16.1513H36.9645Z" fill="currentColor"/>
    <path d="M46.7427 19.4593C45.1589 18.6094 43.9178 17.4242 43.0156 15.9039C42.1094 14.3835 41.6603 12.6637 41.6603 10.7403C41.6603 8.81689 42.1094 7.09702 43.0156 5.57667C43.9178 4.05631 45.1628 2.87116 46.7427 2.0212C48.3265 1.17124 50.1113 0.744263 52.1009 0.744263C53.8345 0.744263 55.3986 1.05552 56.7933 1.67802C58.1841 2.30053 59.3424 3.19837 60.2643 4.37156L56.8485 7.50404C55.6192 6.00364 54.126 5.25344 52.3728 5.25344C51.3405 5.25344 50.4265 5.4809 49.6188 5.93979C48.8151 6.39869 48.1926 7.04115 47.7474 7.87515C47.3061 8.70915 47.0815 9.66286 47.0815 10.7443C47.0815 11.8257 47.3022 12.7834 47.7474 13.6134C48.1886 14.4474 48.8151 15.0938 49.6188 15.5487C50.4225 16.0076 51.3405 16.2351 52.3728 16.2351C54.126 16.2351 55.6192 15.4849 56.8485 13.9845L60.2643 17.117C59.3424 18.2902 58.1841 19.188 56.7933 19.8105C55.4025 20.433 53.8384 20.7443 52.1009 20.7443C50.1074 20.7363 48.3226 20.3133 46.7427 19.4593Z" fill="currentColor"/>
    <path d="M83.4192 11.315V20.3533H78.0492V12.8553H70.7289V20.3533H65.3589V1.12341H70.7289V8.35007H78.0492V1.12341H83.4192V11.315Z" fill="currentColor"/>
    <path d="M95.2972 1.12341H89.9272V20.3493H95.2972V1.12341Z" fill="currentColor"/>
    <path d="M107.204 1.12329H101.834V20.3491H107.204V1.12329Z" fill="currentColor"/>
    <path d="M122.448 6.45453L124.887 12.6078H120.005L122.448 6.45453ZM119.844 1.12732L111.464 20.3532H116.94L118.433 16.6181H126.459L127.952 20.3532H133.539L125.131 1.12732H119.844Z" fill="currentColor"/>
  </g>
</svg>
