<svg width="26" height="26" viewBox="0 0 26 26" fill="none" xmlns="http://www.w3.org/2000/svg">
  <path fill-rule="evenodd" clip-rule="evenodd" d="M1.82765 1.82765C0 3.65531 0 6.59685 0 12.48V13.52C0 19.4032 0 22.3447 1.82765 24.1724C3.65531 26 6.59685 26 12.48 26H13.52C19.4032 26 22.3447 26 24.1724 24.1724C26 22.3447 26 19.4032 26 13.52V12.48C26 6.59685 26 3.65531 24.1724 1.82765C22.3447 0 19.4032 0 13.52 0H12.48C6.59685 0 3.65531 0 1.82765 1.82765Z" fill="black"/>
  <path d="M21.64 10.42C20.8 7.54 18.52 5.26 15.64 4.42C14.8 4.12 13.9 4 13 4C12.1 4 11.2 4.12 10.42 4.36C7.54 5.2 5.26 7.48 4.42 10.36C4.12 11.2 4 12.1 4 13C4 13.9 4.12 14.8 4.36 15.58C5.2 18.46 7.48 20.74 10.36 21.58C11.2 21.88 12.1 22 13 22C13.9 22 14.8 21.88 15.58 21.64C18.46 20.8 20.74 18.52 21.58 15.64C21.88 14.8 22 13.9 22 13C22 12.1 21.88 11.2 21.64 10.42ZM16.6 12.4H13.6V9.4C14.56 9.4 15.52 9.52 16.3 9.64C16.48 10.48 16.54 11.44 16.6 12.4ZM12.4 12.4H9.4C9.4 11.44 9.52 10.48 9.64 9.7C10.48 9.58 11.38 9.46 12.34 9.46V12.4H12.4ZM8.2 12.4H5.2C5.2 11.98 5.32 11.56 5.38 11.14C6.16 10.66 7.12 10.24 8.38 9.94C8.32 10.72 8.2 11.56 8.2 12.4ZM5.2 13.6H8.2C8.2 14.44 8.32 15.28 8.38 16.06C7.18 15.76 6.16 15.34 5.38 14.86L5.2 13.6ZM9.4 13.6H12.4V16.6C11.44 16.6 10.48 16.48 9.7 16.36C9.52 15.46 9.46 14.56 9.4 13.6ZM13.6 13.6H16.6C16.6 14.56 16.48 15.46 16.36 16.3C15.52 16.42 14.62 16.54 13.66 16.54V13.6H13.6ZM17.8 13.6H20.8L20.62 14.86C19.84 15.34 18.88 15.76 17.62 16.06C17.68 15.28 17.8 14.44 17.8 13.6ZM20.8 12.4H17.8C17.8 11.56 17.68 10.72 17.62 9.94C18.82 10.24 19.84 10.66 20.62 11.14L20.8 12.4ZM19.96 9.46C19.18 9.1 18.34 8.86 17.38 8.62C17.14 7.66 16.9 6.82 16.54 6.04C17.98 6.82 19.18 8.02 19.96 9.46ZM16.06 8.38C15.28 8.32 14.44 8.2 13.6 8.2V5.2C14.02 5.2 14.44 5.32 14.86 5.38C15.34 6.16 15.76 7.18 16.06 8.38ZM12.4 5.2V8.2C11.56 8.2 10.72 8.32 9.94 8.38C10.24 7.18 10.66 6.16 11.14 5.38C11.56 5.32 11.98 5.26 12.4 5.2ZM9.46 6.04C9.1 6.82 8.86 7.66 8.62 8.62C7.66 8.8 6.82 9.1 6.04 9.46C6.82 8.02 8.02 6.82 9.46 6.04ZM6.04 16.54C6.82 16.9 7.66 17.14 8.62 17.38C8.86 18.34 9.1 19.18 9.46 19.96C8.02 19.18 6.82 17.98 6.04 16.54ZM9.94 17.56C10.72 17.68 11.56 17.74 12.4 17.74V20.74C11.98 20.74 11.56 20.62 11.14 20.56C10.66 19.84 10.24 18.82 9.94 17.56ZM13.6 20.8V17.8C14.44 17.8 15.28 17.68 16.06 17.62C15.76 18.82 15.34 19.84 14.86 20.62C14.44 20.68 14.02 20.74 13.6 20.8ZM16.54 19.96C16.9 19.18 17.14 18.34 17.38 17.38C18.34 17.14 19.18 16.9 19.96 16.54C19.18 17.98 17.98 19.18 16.54 19.96Z" fill="white"/>
</svg>
