<svg viewBox="0 0 40 40" fill="none" xmlns="http://www.w3.org/2000/svg">
  <path d="M22.9876 27.1572H17.0562V39.0013H22.9876V27.1572Z" fill="white" stroke="black" stroke-miterlimit="10"/>
  <path d="M22.9876 1.00122H17.0562V12.8452H22.9876V1.00122Z" fill="white" stroke="black" stroke-miterlimit="10"/>
  <path d="M38.9999 17.0308H27.1538V22.9611H38.9999V17.0308Z" fill="white" stroke="black" stroke-miterlimit="10"/>
  <path d="M12.8461 17.0376H1V22.968H12.8461V17.0376Z" fill="white" stroke="black" stroke-miterlimit="10"/>
  <path d="M27.1629 22.9487L22.9688 27.1421L31.3452 35.5171L35.5394 31.3237L27.1629 22.9487Z" fill="white" stroke="black" stroke-miterlimit="10"/>
  <path d="M8.67073 4.45452L4.47656 8.64795L12.853 17.0229L17.0472 12.8295L8.67073 4.45452Z" fill="white" stroke="black" stroke-miterlimit="10"/>
  <path d="M31.332 4.47364L22.9556 12.8486L27.1497 17.0421L35.5262 8.66706L31.332 4.47364Z" fill="white" stroke="black" stroke-miterlimit="10"/>
  <path d="M12.8398 22.9634L4.46338 31.3384L8.65752 35.5318L17.034 27.1568L12.8398 22.9634Z" fill="white" stroke="black" stroke-miterlimit="10"/>
</svg>
