<svg viewBox="0 0 46 39" fill="none" xmlns="http://www.w3.org/2000/svg">
  <path d="M32.2473 31.9154C32.2454 33.9857 32.7828 36.0229 33.8095 37.8371C32.6678 36.0097 31.0572 34.5016 29.1353 33.4603C27.2135 32.4189 25.0463 31.8801 22.8457 31.8965C20.6452 31.9129 18.4867 32.484 16.5816 33.5539C14.6764 34.6238 13.0898 36.1558 11.9771 38C13.0709 36.1265 13.6415 34.0078 13.6326 31.854C13.6236 29.7002 13.0354 27.5861 11.926 25.7212C10.8167 23.8563 9.2249 22.3055 7.30839 21.2223C5.39187 20.1392 3.21723 19.5614 1 19.5463C3.22426 19.5253 5.40413 18.9392 7.32294 17.8462C9.24176 16.7533 10.8327 15.1916 11.9376 13.3163C13.0425 11.4411 13.6229 9.31755 13.6212 7.15687C13.6194 4.99618 13.0355 2.87357 11.9276 1C13.0306 2.85627 14.6114 4.40227 16.5147 5.48643C18.4181 6.5706 20.5789 7.15573 22.7852 7.18447C24.9915 7.2132 27.1675 6.68455 29.1002 5.65034C31.0328 4.61614 32.6556 3.11187 33.8095 1.28499C32.7503 3.16944 32.2145 5.2893 32.2548 7.43595C32.2951 9.58261 32.9101 11.6821 34.0393 13.5278C35.1686 15.3734 36.773 16.9017 38.6949 17.9622C40.6167 19.0227 42.7897 19.5788 45 19.5759C43.3275 19.569 41.6701 19.8832 40.1229 20.5003C38.5757 21.1174 37.1693 22.0253 35.9843 23.1719C34.7994 24.3184 33.8593 25.6811 33.218 27.1815C32.5767 28.682 32.2468 30.2907 32.2473 31.9154V31.9154Z" stroke="black" stroke-linejoin="bevel"/>
</svg>
