<svg width="24" height="24" viewBox="0 0 24 24" fill="none" xmlns="http://www.w3.org/2000/svg">
  <circle opacity="0.2" cx="12" cy="12" r="12" fill="#674BDA"/>
  <path d="M16.9593 11.8114L15.1591 13.5441L15.5851 15.9938C15.6584 16.4179 15.4859 16.836 15.1332 17.0866C14.7835 17.3401 14.327 17.3718 13.9422 17.1696L11.7206 16.0149L9.49438 17.1711C9.32947 17.2571 9.1493 17.3024 8.97065 17.3024C8.73704 17.3024 8.50648 17.23 8.30798 17.0881C7.9568 16.836 7.78426 16.4179 7.85755 15.9938L8.28202 13.5441L6.48182 11.8114C6.17034 11.5126 6.06193 11.0733 6.19629 10.6643C6.33219 10.2568 6.68337 9.96699 7.11243 9.90662L9.59515 9.5489L10.7083 7.3196C10.9022 6.93623 11.29 6.69775 11.7206 6.69775H11.7236C12.1557 6.69926 12.5436 6.93774 12.7344 7.32111L13.8475 9.5489L16.3348 9.90813C16.7593 9.96699 17.1105 10.2568 17.2449 10.6643C17.3808 11.0733 17.2723 11.5126 16.9593 11.8114Z" fill="#674BDA"/>
</svg>
