<svg viewBox="0 0 40 40" fill="none" xmlns="http://www.w3.org/2000/svg">
  <path d="M22.9836 27.156H17.0532V39H22.9836V27.156Z" stroke="black" stroke-miterlimit="10"/>
  <path d="M22.9836 1H17.0532V12.844H22.9836V1Z" stroke="black" stroke-miterlimit="10"/>
  <path d="M38.9934 17.0298H27.1494V22.9602H38.9934V17.0298Z" stroke="black" stroke-miterlimit="10"/>
  <path d="M12.844 17.0366H1V22.967H12.844V17.0366Z" stroke="black" stroke-miterlimit="10"/>
  <path d="M27.1582 22.9477L22.9648 27.1411L31.3398 35.5161L35.5332 31.3227L27.1582 22.9477Z" stroke="black" stroke-miterlimit="10"/>
  <path d="M8.66951 4.45329L4.47607 8.64673L12.8511 17.0217L17.0445 12.8283L8.66951 4.45329Z" stroke="black" stroke-miterlimit="10"/>
  <path d="M31.3266 4.47267L22.9517 12.8477L27.1451 17.0411L35.5201 8.66609L31.3266 4.47267Z" stroke="black" stroke-miterlimit="10"/>
  <path d="M12.8379 22.9622L4.46289 31.3372L8.6563 35.5306L17.0313 27.1556L12.8379 22.9622Z" stroke="black" stroke-miterlimit="10"/>
</svg>
