<svg viewBox="0 0 46 40" fill="none" xmlns="http://www.w3.org/2000/svg">
  <path d="M32.2473 32.7509C32.2454 34.8772 32.7828 36.9694 33.8095 38.8327C32.6678 36.956 31.0572 35.407 29.1353 34.3376C27.2135 33.2681 25.0463 32.7147 22.8457 32.7316C20.6452 32.7484 18.4867 33.3349 16.5816 34.4337C14.6764 35.5325 13.0898 37.1059 11.9771 39C13.0709 37.0758 13.6415 34.8999 13.6326 32.6879C13.6236 30.4759 13.0354 28.3046 11.926 26.3893C10.8167 24.4741 9.2249 22.8813 7.30839 21.7689C5.39187 20.6565 3.21723 20.0631 1 20.0475C3.22426 20.0259 5.40413 19.424 7.32294 18.3015C9.24176 17.1791 10.8327 15.5751 11.9376 13.6492C13.0425 11.7233 13.6229 9.54235 13.6212 7.32327C13.6194 5.10419 13.0355 2.92421 11.9276 1C13.0306 2.90644 14.6114 4.49422 16.5147 5.60769C18.4181 6.72116 20.5789 7.3221 22.7852 7.35161C24.9915 7.38113 27.1675 6.83819 29.1002 5.77603C31.0328 4.71387 32.6556 3.16894 33.8095 1.29269C32.7503 3.22807 32.2145 5.40522 32.2548 7.6099C32.2951 9.81457 32.9101 11.9708 34.0393 13.8664C35.1686 15.7619 36.773 17.3315 38.6949 18.4206C40.6167 19.5098 42.7897 20.0809 45 20.0779C43.3275 20.0709 41.6701 20.3936 40.1229 21.0273C38.5757 21.6611 37.1693 22.5936 35.9843 23.7711C34.7994 24.9487 33.8593 26.3481 33.218 27.8891C32.5767 29.4302 32.2468 31.0824 32.2473 32.7509Z" fill="white" stroke="white" stroke-linejoin="bevel"/>
</svg>
