<?xml version="1.0" encoding="utf-8"?>
<!-- Generator: Adobe Illustrator 24.3.0, SVG Export Plug-In . SVG Version: 6.00 Build 0)  -->
<svg version="1.1" xmlns="http://www.w3.org/2000/svg" xmlns:xlink="http://www.w3.org/1999/xlink" x="0px" y="0px"
	 viewBox="0 0 14 14" style="enable-background:new 0 0 14 14;" width="28" height="28" xml:space="preserve">
<g>
	<path d="M4.6,7.4l0.6,1.9L5.3,8c0,0,2.2-2,3.5-3.1c0,0,0-0.1,0-0.1c0,0-0.1,0-0.1,0C7.1,5.7,4.6,7.4,4.6,7.4z"/>
	<path d="M12.3,0.9C11.4,0,9.9,0,6.9,0H6.4c-3,0-4.5,0-5.4,0.9S0,3.4,0,6.4v0.5c0,3,0,4.5,0.9,5.4
		c0.9,0.9,2.4,0.9,5.4,0.9h0.5c3,0,4.5,0,5.4-0.9c0.9-0.9,0.9-2.4,0.9-5.4V6.4C13.3,3.4,13.3,1.9,12.3,0.9z M8.9,10.1
		c0,0.1-0.1,0.2-0.2,0.3c-0.1,0-0.3,0-0.4,0C7.6,9.8,6.4,8.9,6.4,8.9s-0.6,0.6-1.1,1C5.3,10,5.2,10,5.1,10C5,10,4.9,9.9,4.9,9.8
		C4.6,9,4.1,7.5,4.1,7.5S3.1,7.2,2.2,7C2.1,6.9,2,6.8,2,6.7c0-0.1,0.1-0.2,0.2-0.3C4,5.8,8.4,4.1,9.8,3.6c0.1,0,0.2,0,0.3,0
		c0.1,0.1,0.1,0.2,0.1,0.3C9.9,5.2,9.2,8.7,8.9,10.1z"/>
</g>
</svg>
