<svg fill="none" viewBox="0 0 100 30" xmlns="http://www.w3.org/2000/svg">
  <path d="m98.72 12.598c-4.4055-0.1932-6.6344-2.0182-8.5949-3.6319-1.8685-1.5315-3.6365-2.9805-7.3186-3.1419-3.682-0.1614-5.57 1.1273-7.5654 2.4894-2.0985 1.4357-4.4743 3.059-8.8797 2.8659-4.4055-0.1931-6.6344-2.0182-8.5992-3.6321-1.8642-1.5313-3.6322-2.9803-7.3143-3.1417-3.682-0.16141-5.57 1.1273-7.5654 2.4894-2.0985 1.4357-4.4743 3.059-8.884 2.8656-4.4055-0.19312-6.6344-2.0182-8.5992-3.632-1.8685-1.5315-3.6322-2.9803-7.3186-3.1419s-5.5701 1.1273-7.5655 2.4894c-2.0984 1.4357-4.4785 3.0588-8.884 2.8656l0.09494-2.1659c3.6864 0.1616 5.5701-1.1273 7.5655-2.4894 2.1028-1.4356 4.4828-3.0586 8.8884-2.8655 4.4054 0.19312 6.6344 2.0182 8.5991 3.6321 1.8686 1.5315 3.6323 2.9803 7.3187 3.1419 3.682 0.16141 5.57-1.1273 7.5654-2.4894 2.0985-1.4357 4.4742-3.059 8.8797-2.8658 4.4054 0.19312 6.6344 2.0182 8.5991 3.632 1.8643 1.5313 3.6323 2.9803 7.3143 3.1417 3.6821 0.16141 5.5701-1.1273 7.5655-2.4894 2.0985-1.4357 4.4742-3.059 8.8797-2.8658 4.4054 0.19312 6.6344 2.0182 8.5948 3.6319 1.8686 1.5315 3.6366 2.9805 7.3186 3.1419l-0.0949 2.1659zm-0.2849 6.4977c-3.682-0.1614-5.45-1.6104-7.3186-3.1419-1.9648-1.6139-4.1894-3.4388-8.5948-3.6319-4.4055-0.1931-6.7856 1.4299-8.8797 2.8658-1.9954 1.3622-3.8834 2.6509-7.5655 2.4895-3.6863-0.1616-5.45-1.6104-7.3186-3.1419-1.9647-1.6139-4.1893-3.4388-8.5991-3.6321-4.4055-0.1931-6.7856 1.4299-8.8797 2.8659-1.9954 1.3621-3.8791 2.651-7.5655 2.4894-3.6863-0.1616-5.45-1.6104-7.3186-3.1419-1.9647-1.6139-4.1937-3.4389-8.5991-3.6321-4.4055-0.19312-6.7856 1.43-8.884 2.8657-1.9954 1.3621-3.8791 2.651-7.5655 2.4894l-0.09495 2.1659c4.4054 0.1931 6.7856-1.4299 8.8841-2.8656 1.9954-1.3622 3.8791-2.6511 7.5654-2.4895 3.6864 0.1616 5.4501 1.6104 7.3186 3.1419 1.9648 1.6139 4.1937 3.439 8.5992 3.6321 4.4054 0.1931 6.7855-1.4299 8.884-2.8657 1.9954-1.3621 3.8791-2.651 7.5655-2.4894 3.682 0.1614 5.45 1.6104 7.3186 3.1419 1.9647 1.6139 4.1894 3.4388 8.5991 3.6321 4.4055 0.1931 6.7856-1.4299 8.8797-2.8659 1.9954-1.3621 3.8791-2.651 7.5655-2.4894 3.6863 0.1616 5.45 1.6104 7.3186 3.1419 1.9561 1.6135 4.185 3.4386 8.5905 3.6317l0.0949-2.1659zm-0.3798 8.6636c-3.682-0.1614-5.45-1.6104-7.3186-3.1419-1.9647-1.6139-4.1894-3.4388-8.5948-3.6319s-6.7855 1.4299-8.8797 2.8659c-1.9954 1.3621-3.8834 2.6508-7.5654 2.4894-3.6864-0.1616-5.4501-1.6104-7.3186-3.1419-1.9648-1.6139-4.1894-3.4388-8.5992-3.6321-4.4055-0.1931-6.7855 1.4299-8.8797 2.8659-1.9954 1.3621-3.8791 2.651-7.5654 2.4894-3.6864-0.1616-5.4501-1.6104-7.3187-3.1419-1.9647-1.6139-4.1937-3.4389-8.5991-3.6321-4.4055-0.1931-6.7856 1.43-8.884 2.8657-1.9954 1.3621-3.8791 2.651-7.5655 2.4894l-0.094946 2.1659c4.4054 0.1932 6.7855-1.4299 8.884-2.8656 1.9954-1.3621 3.8791-2.651 7.5654-2.4895 3.6864 0.1616 5.4501 1.6104 7.3186 3.142 1.9648 1.6138 4.1938 3.4389 8.5992 3.632 4.4055 0.1931 6.7856-1.4299 8.884-2.8656 1.9954-1.3622 3.8791-2.6511 7.5655-2.4895 3.682 0.1614 5.45 1.6104 7.3186 3.1419 1.9648 1.6139 4.1894 3.4388 8.5991 3.6321 4.4055 0.1931 6.7856-1.4299 8.8797-2.8659 1.9954-1.3621 3.8791-2.651 7.5655-2.4894 3.6863 0.1616 5.45 1.6104 7.3186 3.1419 1.9561 1.6135 4.185 3.4386 8.5905 3.6317l0.0949-2.1659z" fill="url(#a3)"/>
  <defs>
    <linearGradient id="a3" x1="50.537" x2="49.416" y1="2.2397" y2="27.797" gradientUnits="userSpaceOnUse">
      <stop stop-color="#3FFFC1" offset="0"/>
      <stop stop-color="#3CF5C8" offset=".21044"/>
      <stop stop-color="#35DCDD" offset=".56024"/>
      <stop stop-color="#2AB4FF" offset=".99438"/>
    </linearGradient>
  </defs>
</svg>
