<svg xmlns="http://www.w3.org/2000/svg" viewBox="0 0 98 27" fill="none">
  <path d="M97.541 8.97588C93.1313 8.97588 90.8246 7.25017 88.7954 5.72391C86.8615 4.2757 85.0318 2.90553 81.3462 2.90553C77.6606 2.90553 75.8308 4.2757 73.897 5.72391C71.8634 7.25017 69.561 8.97588 65.1514 8.97588C60.7417 8.97588 58.435 7.25017 56.4014 5.72391C54.4719 4.27569 52.6421 2.90553 48.9565 2.90553C45.271 2.90553 43.4412 4.27569 41.5074 5.72391C39.4738 7.25017 37.1714 8.97588 32.7574 8.97588C28.3477 8.97588 26.041 7.25016 24.0074 5.7239C22.0736 4.27569 20.2481 2.90553 16.5582 2.90553C12.8683 2.90553 11.0429 4.27569 9.10903 5.7239C7.07546 7.25016 4.76871 8.97588 0.359039 8.97588L0.359039 6.8079C4.04895 6.8079 5.87439 5.43773 7.80824 3.98952C9.84614 2.46326 12.1529 0.737545 16.5626 0.737545C20.9722 0.737545 23.279 2.46326 25.3125 3.98952C27.2464 5.43773 29.0718 6.8079 32.7617 6.8079C36.4473 6.8079 38.2771 5.43773 40.2109 3.98952C42.2445 2.46326 44.5469 0.737546 48.9565 0.737547C53.3662 0.737547 55.6729 2.46326 57.7065 3.98952C59.636 5.43773 61.4658 6.8079 65.1514 6.8079C68.8369 6.8079 70.6667 5.43773 72.6005 3.98952C74.6341 2.46326 76.9365 0.737548 81.3462 0.737548C85.7559 0.737548 88.0626 2.46326 90.0918 3.98952C92.0257 5.43773 93.8554 6.8079 97.541 6.8079L97.541 8.97588ZM97.541 15.4798C93.8554 15.4798 92.0257 14.1097 90.0918 12.6615C88.0583 11.1352 85.7559 9.40948 81.3462 9.40948C76.9365 9.40948 74.6298 11.1352 72.6005 12.6615C70.6667 14.1097 68.8369 15.4798 65.1514 15.4798C61.4615 15.4798 59.636 14.1097 57.7022 12.6614C55.6686 11.1352 53.3662 9.40948 48.9522 9.40948C44.5425 9.40948 42.2358 11.1352 40.2066 12.6614C38.2727 14.1097 36.4473 15.4798 32.7574 15.4798C29.0675 15.4798 27.242 14.1097 25.3082 12.6614C23.2746 11.1352 20.9679 9.40947 16.5582 9.40947C12.1485 9.40947 9.8418 11.1352 7.80823 12.6614C5.87439 14.1097 4.04895 15.4798 0.359039 15.4798L0.359039 17.6478C4.76871 17.6478 7.07546 15.9221 9.10903 14.3958C11.0429 12.9476 12.8683 11.5775 16.5582 11.5775C20.2481 11.5775 22.0736 12.9476 24.0074 14.3958C26.041 15.9221 28.3477 17.6478 32.7574 17.6478C37.167 17.6478 39.4738 15.9221 41.5074 14.3958C43.4412 12.9476 45.2666 11.5775 48.9565 11.5775C52.6421 11.5775 54.4719 12.9476 56.4057 14.3958C58.4393 15.9221 60.7417 17.6478 65.1557 17.6478C69.5654 17.6478 71.8721 15.9221 73.9013 14.3958C75.8352 12.9476 77.6606 11.5775 81.3505 11.5775C85.0404 11.5775 86.8659 12.9476 88.7997 14.3958C90.8246 15.9221 93.1313 17.6478 97.541 17.6478L97.541 15.4798ZM97.541 24.1518C93.8554 24.1518 92.0257 22.7816 90.0918 21.3334C88.0583 19.8071 85.7559 18.0814 81.3462 18.0814C76.9365 18.0814 74.6298 19.8071 72.6005 21.3334C70.6667 22.7816 68.8369 24.1518 65.1514 24.1518C61.4615 24.1518 59.636 22.7816 57.7022 21.3334C55.6686 19.8071 53.3662 18.0814 48.9522 18.0814C44.5425 18.0814 42.2358 19.8071 40.2066 21.3334C38.2727 22.7816 36.4473 24.1518 32.7574 24.1518C29.0675 24.1518 27.242 22.7816 25.3082 21.3334C23.2746 19.8071 20.9679 18.0814 16.5582 18.0814C12.1485 18.0814 9.8418 19.8071 7.80823 21.3334C5.87439 22.7816 4.04895 24.1518 0.359038 24.1518L0.359038 26.3197C4.76871 26.3197 7.07546 24.594 9.10903 23.0678C11.0429 21.6196 12.8683 20.2494 16.5582 20.2494C20.2481 20.2494 22.0736 21.6196 24.0074 23.0678C26.041 24.594 28.3477 26.3197 32.7574 26.3197C37.167 26.3197 39.4738 24.594 41.5074 23.0678C43.4412 21.6196 45.2666 20.2494 48.9565 20.2494C52.6421 20.2494 54.4719 21.6196 56.4057 23.0678C58.4393 24.594 60.7417 26.3197 65.1557 26.3197C69.5654 26.3197 71.8721 24.594 73.9013 23.0678C75.8352 21.6196 77.6606 20.2494 81.3505 20.2494C85.0404 20.2494 86.8659 21.6196 88.7997 23.0678C90.8246 24.594 93.1313 26.3197 97.541 26.3197L97.541 24.1518Z" fill="url(#paint0_linear_63_543)"/>
  <defs>
    <linearGradient id="paint0_linear_63_543" x1="48.95" y1="0.737547" x2="48.95" y2="26.3197" gradientUnits="userSpaceOnUse">
      <stop stop-color="#3FFFC1"/>
      <stop offset="0.21044" stop-color="#3CF5C8"/>
      <stop offset="0.56024" stop-color="#35DCDD"/>
      <stop offset="0.99438" stop-color="#2AB4FF"/>
    </linearGradient>
  </defs>
</svg>
