<svg fill="none" viewBox="0 0 98 29" xmlns="http://www.w3.org/2000/svg">
  <path d="m97.357 8.8143c-4.4085 0.10207-6.7546-1.5698-8.8186-3.0487-1.9668-1.4031-3.8278-2.7305-7.5124-2.6452-3.6846 0.08531-5.4821 1.4975-7.3819 2.99-1.9977 1.5729-4.2596 3.3515-8.6681 3.4535-4.4085 0.10206-6.7545-1.5698-8.8229-3.0486-1.9625-1.4032-3.8235-2.7306-7.5081-2.6453-3.6846 0.0853-5.4821 1.4974-7.3819 2.99-1.9977 1.5729-4.2596 3.3514-8.6724 3.4536-4.4085 0.1021-6.7545-1.5698-8.8229-3.0486-1.9668-1.4031-3.8235-2.7306-7.5124-2.6452-3.6889 0.08541-5.4822 1.4975-7.382 2.99-1.9977 1.5729-4.2639 3.3515-8.6724 3.4536l-0.050181-2.1674c3.6889-0.0854 5.4822-1.4974 7.382-2.99 2.002-1.573 4.2682-3.3517 8.6766-3.4537 4.4085-0.10207 6.7546 1.5698 8.8229 3.0486 1.9669 1.4031 3.8236 2.7306 7.5125 2.6452 3.6846-0.08531 5.4821-1.4975 7.3819-2.99 1.9977-1.5729 4.2596-3.3515 8.668-3.4535 4.4085-0.10207 6.7546 1.5698 8.823 3.0486 1.9625 1.4032 3.8235 2.7306 7.508 2.6453 3.6846-0.0853 5.4822-1.4974 7.382-2.99 1.9977-1.5729 4.2595-3.3515 8.668-3.4535s6.7546 1.5698 8.8186 3.0487c1.9668 1.4031 3.8278 2.7305 7.5124 2.6452l0.0502 2.1674zm0.1505 6.5022c-3.6845 0.0853-5.5455-1.2421-7.5124-2.6452-2.0683-1.4788-4.4101-3.1507-8.8186-3.0487-4.4084 0.10207-6.6746 1.8807-8.668 3.4536-1.8998 1.4926-3.6974 2.9047-7.3819 2.99-3.6889 0.0854-5.5456-1.2421-7.5125-2.6452-2.0683-1.4788-4.41-3.1507-8.8229-3.0486-4.4085 0.1021-6.6746 1.8807-8.668 3.4536-1.8998 1.4925-3.693 2.9046-7.3819 2.99-3.689 0.0854-5.5456-1.2421-7.5125-2.6452-2.0683-1.4788-4.4144-3.1506-8.8229-3.0486-4.4085 0.1021-6.6746 1.8807-8.6723 3.4537-1.8998 1.4925-3.693 2.9046-7.382 2.99l0.05018 2.1674c4.4085-0.1021 6.6747-1.8807 8.6724-3.4536 1.8998-1.4926 3.693-2.9047 7.3819-2.9901s5.5456 1.2422 7.5124 2.6452c2.0684 1.4788 4.4144 3.1507 8.8229 3.0486s6.6747-1.8807 8.6724-3.4536c1.8998-1.4926 3.693-2.9047 7.3819-2.9901 3.6846-0.0853 5.5456 1.2422 7.5125 2.6452 2.0683 1.4788 4.4101 3.1508 8.8229 3.0486 4.4085-0.1021 6.6746-1.8807 8.668-3.4535 1.8998-1.4926 3.693-2.9047 7.382-2.9901 3.6889-0.0854 5.5455 1.2422 7.5124 2.6452 2.0597 1.479 4.4057 3.1509 8.8142 3.0488l-0.0502-2.1674zm0.2008 8.6696c-3.6846 0.0853-5.5456-1.2421-7.5125-2.6452-2.0683-1.4788-4.41-3.1507-8.8185-3.0487-4.4085 0.1021-6.6747 1.8808-8.6681 3.4536-1.8998 1.4926-3.6973 2.9047-7.3819 2.99-3.6889 0.0854-5.5456-1.2421-7.5124-2.6452-2.0684-1.4788-4.4101-3.1507-8.8229-3.0486-4.4085 0.1021-6.6747 1.8807-8.6681 3.4536-1.8998 1.4926-3.693 2.9046-7.3819 2.99s-5.5456-1.2421-7.5124-2.6452c-2.0684-1.4788-4.4145-3.1506-8.8229-3.0486-4.4085 0.1021-6.6747 1.8807-8.6724 3.4537-1.8998 1.4925-3.693 2.9046-7.382 2.99l0.05018 2.1674c4.4085-0.1021 6.6747-1.8807 8.6724-3.4536 1.8998-1.4926 3.693-2.9047 7.3819-2.9901s5.5456 1.2422 7.5125 2.6452c2.0683 1.4788 4.4144 3.1507 8.8229 3.0486 4.4084-0.1021 6.6746-1.8807 8.6723-3.4536 1.8998-1.4926 3.6931-2.9047 7.382-2.9901 3.6846-0.0853 5.5456 1.2422 7.5124 2.6452 2.0683 1.4788 4.4101 3.1508 8.8229 3.0486 4.4085-0.102 6.6747-1.8807 8.668-3.4535 1.8998-1.4926 3.6931-2.9046 7.382-2.9901 3.6889-0.0854 5.5456 1.2422 7.5124 2.6452 2.0597 1.479 4.4057 3.1509 8.8142 3.0488l-0.0501-2.1674z" fill="url(#a)"/>
  <defs>
    <linearGradient id="a" x1=".31308" x2="97.462" y1="15.615" y2="13.366" gradientUnits="userSpaceOnUse">
      <stop stop-color="#FF9715" offset="0"/>
      <stop stop-color="#FF8E1A" offset=".1396"/>
      <stop stop-color="#FF7428" offset=".3716"/>
      <stop stop-color="#FF4B3F" offset=".6676"/>
      <stop stop-color="#FF155D" offset=".9944"/>
    </linearGradient>
  </defs>
</svg>
