<svg xmlns="http://www.w3.org/2000/svg" viewBox="0 0 98 26" fill="none">
  <path d="M97.3672 8.31496C92.9575 8.31496 90.6508 6.58925 88.6215 5.06299C86.6877 3.61478 84.8579 2.24461 81.1724 2.24461C77.4868 2.24461 75.657 3.61478 73.7232 5.06299C71.6896 6.58925 69.3872 8.31496 64.9775 8.31496C60.5679 8.31496 58.2611 6.58925 56.2276 5.06299C54.2981 3.61477 52.4683 2.24461 48.7827 2.24461C45.0971 2.24461 43.2674 3.61477 41.3335 5.06299C39.3 6.58925 36.9976 8.31496 32.5835 8.31496C28.1739 8.31496 25.8671 6.58925 23.8336 5.06299C21.8997 3.61477 20.0743 2.24461 16.3844 2.24461C12.6945 2.24461 10.869 3.61477 8.9352 5.06298C6.90163 6.58924 4.59489 8.31496 0.185211 8.31496L0.185211 6.14698C3.87512 6.14698 5.70056 4.77681 7.63441 3.3286C9.67231 1.80234 11.979 0.0766258 16.3887 0.076626C20.7984 0.0766262 23.1051 1.80234 25.1387 3.3286C27.0725 4.77681 28.898 6.14698 32.5879 6.14698C36.2735 6.14698 38.1032 4.77681 40.0371 3.3286C42.0706 1.80234 44.373 0.0766273 48.7827 0.0766275C53.1924 0.0766277 55.4991 1.80234 57.5327 3.3286C59.4622 4.77681 61.292 6.14698 64.9775 6.14698C68.6631 6.14698 70.4929 4.77681 72.4267 3.3286C74.4603 1.80234 76.7627 0.0766287 81.1724 0.0766289C85.582 0.0766291 87.8888 1.80234 89.918 3.3286C91.8518 4.77682 93.6816 6.14698 97.3672 6.14698L97.3672 8.31496ZM97.3672 14.8189C93.6816 14.8189 91.8518 13.4487 89.918 12.0005C87.8844 10.4743 85.582 8.74856 81.1724 8.74856C76.7627 8.74856 74.456 10.4743 72.4267 12.0005C70.4929 13.4487 68.6631 14.8189 64.9775 14.8189C61.2876 14.8189 59.4622 13.4487 57.5283 12.0005C55.4948 10.4743 53.1924 8.74856 48.7784 8.74856C44.3687 8.74856 42.062 10.4743 40.0327 12.0005C38.0989 13.4487 36.2734 14.8189 32.5835 14.8189C28.8936 14.8189 27.0682 13.4487 25.1344 12.0005C23.1008 10.4743 20.7941 8.74856 16.3844 8.74856C11.9747 8.74856 9.66797 10.4743 7.63441 12.0005C5.70056 13.4487 3.87512 14.8189 0.185211 14.8189L0.18521 16.9869C4.59489 16.9869 6.90163 15.2612 8.9352 13.7349C10.869 12.2867 12.6945 10.9165 16.3844 10.9165C20.0743 10.9165 21.8997 12.2867 23.8336 13.7349C25.8671 15.2612 28.1739 16.9869 32.5835 16.9869C36.9932 16.9869 39.3 15.2612 41.3335 13.7349C43.2674 12.2867 45.0928 10.9165 48.7827 10.9165C52.4683 10.9165 54.2981 12.2867 56.2319 13.7349C58.2655 15.2612 60.5679 16.9869 64.9819 16.9869C69.3915 16.9869 71.6983 15.2612 73.7275 13.7349C75.6613 12.2867 77.4868 10.9165 81.1767 10.9165C84.8666 10.9165 86.692 12.2867 88.6259 13.7349C90.6508 15.2612 92.9575 16.9869 97.3672 16.9869L97.3672 14.8189ZM97.3672 23.4908C93.6816 23.4908 91.8518 22.1207 89.918 20.6725C87.8844 19.1462 85.582 17.4205 81.1724 17.4205C76.7627 17.4205 74.456 19.1462 72.4267 20.6725C70.4929 22.1207 68.6631 23.4908 64.9775 23.4908C61.2876 23.4908 59.4622 22.1207 57.5283 20.6725C55.4948 19.1462 53.1924 17.4205 48.7784 17.4205C44.3687 17.4205 42.062 19.1462 40.0327 20.6725C38.0989 22.1207 36.2734 23.4908 32.5835 23.4908C28.8936 23.4908 27.0682 22.1207 25.1344 20.6725C23.1008 19.1462 20.7941 17.4205 16.3844 17.4205C11.9747 17.4205 9.66797 19.1462 7.63441 20.6725C5.70056 22.1207 3.87512 23.4908 0.18521 23.4908L0.18521 25.6588C4.59489 25.6588 6.90163 23.9331 8.9352 22.4068C10.869 20.9586 12.6945 19.5885 16.3844 19.5885C20.0743 19.5885 21.8997 20.9586 23.8336 22.4068C25.8671 23.9331 28.1739 25.6588 32.5835 25.6588C36.9932 25.6588 39.3 23.9331 41.3335 22.4068C43.2674 20.9586 45.0928 19.5885 48.7827 19.5885C52.4683 19.5885 54.2981 20.9586 56.2319 22.4068C58.2655 23.9331 60.5679 25.6588 64.9819 25.6588C69.3915 25.6588 71.6983 23.9331 73.7275 22.4068C75.6613 20.9586 77.4868 19.5885 81.1767 19.5885C84.8666 19.5885 86.692 20.9586 88.6259 22.4068C90.6508 23.9331 92.9575 25.6588 97.3672 25.6588L97.3672 23.4908Z" fill="url(#paint0_linear_63_215)"/>
  <defs>
    <linearGradient id="paint0_linear_63_215" x1="0.19215" y1="12.8677" x2="97.3672" y2="12.8677" gradientUnits="userSpaceOnUse">
      <stop stop-color="#FF9715"/>
      <stop offset="0.1396" stop-color="#FF8E1A"/>
      <stop offset="0.3716" stop-color="#FF7428"/>
      <stop offset="0.6676" stop-color="#FF4B3F"/>
      <stop offset="0.9944" stop-color="#FF155D"/>
    </linearGradient>
  </defs>
</svg>
